<svg width="68" height="37" viewBox="0 0 68 37" fill="none" xmlns="http://www.w3.org/2000/svg">
<g clip-path="url(#clip0_253_147)">
<path d="M0 25.5359L5.82271 14.0083L0 4.70191V25.5359Z" fill="#C62626"/>
<path d="M2.64313 36.9045L17.0854 23.6206L7.85247 27.5998L2.64313 36.9045Z" fill="#ED3A3A"/>
<path d="M14.0117 0L0.121277 26.8754L9.16118 22.2931L16.9795 12.8363L14.0117 0Z" fill="#ED3A3A"/>
<path d="M9.16118 22.2931L0.121277 26.8754L7.85243 27.5998L17.0854 23.6206L9.16118 22.2931Z" fill="#C62626"/>
<path d="M30.6974 9.2398H34.5416L41.2681 27.6784H36.9045L35.4762 23.5488H29.7372L28.3344 27.6784H23.9708L30.6974 9.2398ZM34.7756 20.6153L32.6195 14.0955L30.412 20.6153H34.7756Z" fill="#ED3A3A"/>
<path d="M51.3964 17.598C50.4634 17.6021 49.5382 17.7692 48.6627 18.0918C47.8472 18.405 47.2583 18.8726 46.8961 19.4945V27.6784H42.7477V14.0442H46.5646V16.7967C46.9805 15.9411 47.6007 15.2011 48.3706 14.6422C49.0539 14.1422 49.8733 13.8621 50.7198 13.8392H51.1367C51.2239 13.8399 51.3109 13.8491 51.3964 13.8665V17.598Z" fill="#ED3A3A"/>
<path d="M56.8227 27.9381C56.1818 27.9436 55.5452 27.8337 54.9433 27.6135C54.3905 27.4129 53.8834 27.1039 53.4517 26.7045C53.0351 26.315 52.6995 25.847 52.4642 25.3274C52.2187 24.7856 52.0945 24.1967 52.1003 23.6018C52.0923 22.9612 52.2395 22.3281 52.5291 21.7566C52.8201 21.1982 53.2315 20.7115 53.7336 20.3317C54.289 19.9152 54.9129 19.5989 55.5772 19.3971C56.3427 19.163 57.1396 19.0477 57.9401 19.0554C58.4973 19.0544 59.0535 19.1018 59.6025 19.1972C60.0871 19.277 60.5588 19.4212 61.0052 19.626V19.0024C61.0052 17.4271 60.094 16.6395 58.2715 16.6395C57.5446 16.6368 56.8231 16.7641 56.141 17.0154C55.3892 17.307 54.6746 17.6867 54.0121 18.1464L52.7939 15.5477C53.6605 14.9744 54.6047 14.5279 55.5977 14.2219C56.6005 13.9234 57.6421 13.7748 58.6884 13.7811C60.7489 13.7811 62.3436 14.2658 63.4723 15.2351C64.6011 16.2044 65.1638 17.6242 65.1604 19.4945V23.0004C65.1604 23.4161 65.2253 23.706 65.3552 23.8701C65.4434 23.963 65.5493 24.0373 65.6666 24.0886C65.784 24.14 65.9105 24.1673 66.0386 24.169V27.6784C65.714 27.7594 65.384 27.8165 65.051 27.8492C64.7555 27.8749 64.4889 27.8885 64.2463 27.8885C63.4672 27.8885 62.8783 27.7371 62.4797 27.4341C62.0734 27.1173 61.8037 26.6569 61.7262 26.1475L61.6493 25.5239C61.0726 26.2787 60.331 26.8917 59.4812 27.3162C58.6554 27.7273 57.7451 27.9402 56.8227 27.9381ZM58.0443 24.9447C58.4921 24.9447 58.9363 24.8655 59.3565 24.7107C59.7452 24.5758 60.1026 24.3637 60.4072 24.087C60.8047 23.7761 61.0041 23.4475 61.0052 23.1012V21.8027C60.6219 21.6585 60.2261 21.5498 59.8229 21.4781C59.4338 21.4029 59.0386 21.3635 58.6423 21.3602C57.9778 21.332 57.3211 21.5112 56.7629 21.8728C56.5347 22.0165 56.3468 22.216 56.2171 22.4524C56.0873 22.6889 56.02 22.9545 56.0214 23.2242C56.0158 23.46 56.0645 23.6938 56.1638 23.9077C56.263 24.1216 56.4101 24.3098 56.5937 24.4578C57.0026 24.79 57.5178 24.963 58.0443 24.9447Z" fill="#ED3A3A"/>
</g>
<defs>
<clipPath id="clip0_253_147">
<rect width="68" height="36.9045" fill="white"/>
</clipPath>
</defs>
</svg>
