<svg width="32" height="32" viewBox="0 0 32 32" fill="none" xmlns="http://www.w3.org/2000/svg">
<path d="M22.0627 19.9373L17.9373 24.0627C17.5914 24.4086 17.4184 24.5816 17.2166 24.7053C17.0376 24.8149 16.8425 24.8957 16.6385 24.9447C16.4083 25 16.1637 25 15.6745 25H12.2C11.0799 25 10.5198 25 10.092 24.782C9.71569 24.5903 9.40973 24.2843 9.21799 23.908C9 23.4802 9 22.9201 9 21.8V10.2C9 9.0799 9 8.51984 9.21799 8.09202C9.40973 7.71569 9.71569 7.40973 10.092 7.21799C10.5198 7 11.0799 7 12.2 7H19.8C20.9201 7 21.4802 7 21.908 7.21799C22.2843 7.40973 22.5903 7.71569 22.782 8.09202C23 8.51984 23 9.0799 23 10.2V17.6745C23 18.1637 23 18.4083 22.9447 18.6385C22.8957 18.8425 22.8149 19.0376 22.7053 19.2166C22.5816 19.4184 22.4086 19.5914 22.0627 19.9373Z" stroke="black" stroke-width="2"/>
<path d="M14.4118 13L14.6427 12.2373H15.9452L16.1789 13H17.2799L15.9909 9.11133H14.5998L13.3053 13H14.4118ZM14.8791 11.4639L15.2765 10.1587H15.3087L15.7089 11.4639H14.8791ZM18.5497 9.11133H17.5292V13H18.5497V9.11133Z" fill="black"/>
<path d="M17 22.2V23.8412C17 24.2047 17 24.3864 17.0719 24.4706C17.1342 24.5436 17.2278 24.5823 17.3235 24.5748C17.4339 24.5661 17.5624 24.4376 17.8194 24.1806L22.1806 19.8194L22.1806 19.8194C22.4376 19.5624 22.5661 19.4339 22.5748 19.3235C22.5823 19.2278 22.5436 19.1342 22.4706 19.0719C22.3864 19 22.2047 19 21.8412 19H20.2C19.0799 19 18.5198 19 18.092 19.218C17.7157 19.4097 17.4097 19.7157 17.218 20.092C17 20.5198 17 21.0799 17 22.2Z" fill="white" stroke="black" stroke-width="2" stroke-linecap="round"/>
<path d="M11.5 22.5C11.8333 21.1667 12 18.1667 14 17.5C17 16.5 16.5 20.5 19 19C21 17.8 21.1667 15.5 21 14.5" stroke="black" stroke-linecap="round"/>
<path d="M11 18.5L18 16" stroke="black" stroke-width="0.5" stroke-linecap="round"/>
<rect x="13" y="17" width="1.5" height="1.5" transform="rotate(-18.531 13 17)" fill="white" stroke="black" stroke-width="0.5"/>
<circle cx="18.5" cy="15.85" r="0.5" fill="white" stroke="black" stroke-width="0.5"/>
</svg>
