<svg width="32" height="32" viewBox="0 0 32 32" fill="none" xmlns="http://www.w3.org/2000/svg">
<path fill-rule="evenodd" clip-rule="evenodd" d="M14.1615 6H17.8385C18.3657 5.99998 18.8205 5.99997 19.195 6.03057C19.5904 6.06287 19.9836 6.13419 20.362 6.32698C20.9265 6.6146 21.3854 7.07354 21.673 7.63803C21.8658 8.01641 21.9371 8.40963 21.9694 8.80497C22 9.17955 22 9.63432 22 10.1615V21.8385C22 22.3657 22 22.8205 21.9694 23.195C21.9371 23.5904 21.8658 23.9836 21.673 24.362C21.3854 24.9265 20.9265 25.3854 20.362 25.673C19.9836 25.8658 19.5904 25.9371 19.195 25.9694C18.8205 26 18.3657 26 17.8386 26H14.1614C13.6343 26 13.1795 26 12.805 25.9694C12.4096 25.9371 12.0164 25.8658 11.638 25.673C11.0735 25.3854 10.6146 24.9265 10.327 24.362C10.1342 23.9836 10.0629 23.5904 10.0306 23.195C9.99997 22.8205 9.99998 22.3657 10 21.8385V10.1615C9.99998 9.63431 9.99997 9.17955 10.0306 8.80497C10.0629 8.40963 10.1342 8.01641 10.327 7.63803C10.6146 7.07354 11.0735 6.6146 11.638 6.32698C12.0164 6.13419 12.4096 6.06287 12.805 6.03057C13.1795 5.99997 13.6343 5.99998 14.1615 6ZM12.9678 8.02393C12.6962 8.04612 12.5955 8.0838 12.546 8.109C12.3578 8.20487 12.2049 8.35785 12.109 8.54601C12.0838 8.59546 12.0461 8.69617 12.0239 8.96784C12.0008 9.25117 12 9.62345 12 10.2V21.8C12 22.3766 12.0008 22.7488 12.0239 23.0322C12.0461 23.3038 12.0838 23.4045 12.109 23.454C12.2049 23.6422 12.3578 23.7951 12.546 23.891C12.5955 23.9162 12.6962 23.9539 12.9678 23.9761C13.2512 23.9992 13.6234 24 14.2 24H17.8C18.3766 24 18.7488 23.9992 19.0322 23.9761C19.3038 23.9539 19.4045 23.9162 19.454 23.891C19.6422 23.7951 19.7951 23.6422 19.891 23.454C19.9162 23.4045 19.9539 23.3038 19.9761 23.0322C19.9992 22.7488 20 22.3766 20 21.8V10.2C20 9.62345 19.9992 9.25117 19.9761 8.96784C19.9539 8.69617 19.9162 8.59546 19.891 8.54601C19.7951 8.35785 19.6422 8.20487 19.454 8.109C19.4045 8.0838 19.3038 8.04612 19.0322 8.02393C18.7488 8.00078 18.3766 8 17.8 8H14.2C13.6234 8 13.2512 8.00078 12.9678 8.02393Z" fill="black"/>
<path d="M16.75 9.25C16.75 9.66421 16.4142 10 16 10C15.5858 10 15.25 9.66421 15.25 9.25C15.25 8.83579 15.5858 8.5 16 8.5C16.4142 8.5 16.75 8.83579 16.75 9.25Z" fill="black"/>
</svg>
