<svg width="11" height="12" viewBox="0 0 11 12" fill="none" xmlns="http://www.w3.org/2000/svg">
<g clip-path="url(#clip0_1676_824)">
<path d="M-3.3042e-07 3.70387C-3.95048e-07 4.44313 0.161988 5.09433 0.485962 5.65747C0.809937 6.22058 1.28233 6.66083 1.90314 6.97819C2.52395 7.29557 3.2767 7.45425 4.16137 7.45425L8.07248 7.45425L9.87672 7.37298L9.77195 7.10592L8.33438 8.33088L6.65237 9.96804C6.60969 10.0145 6.57574 10.0667 6.55052 10.1248C6.5253 10.1828 6.51269 10.2486 6.51269 10.3222C6.51269 10.4731 6.56022 10.596 6.65528 10.6908C6.75035 10.7857 6.87548 10.8331 7.03068 10.8331C7.17424 10.8331 7.2984 10.7789 7.40317 10.6705L10.8254 7.32073C10.8836 7.26654 10.9272 7.20655 10.9563 7.14075C10.9855 7.07496 11 7.00529 11 6.93175C11 6.86209 10.9855 6.79436 10.9563 6.72856C10.9272 6.66276 10.8836 6.60278 10.8254 6.54859L7.40317 3.19879C7.29841 3.09044 7.17424 3.03626 7.03068 3.03626C6.87548 3.03626 6.75035 3.08366 6.65528 3.17846C6.56022 3.2733 6.51269 3.39618 6.51269 3.5471C6.51269 3.62066 6.5253 3.68647 6.55052 3.74453C6.57574 3.80259 6.6097 3.85485 6.65238 3.90129L8.33439 5.53262L9.77195 6.7634L9.87672 6.49634L8.07248 6.41506L4.07406 6.41506C3.41057 6.41506 2.85379 6.30282 2.40371 6.07834C1.95362 5.85388 1.61411 5.54134 1.38518 5.14074C1.15624 4.74017 1.04177 4.28058 1.04177 3.76195C1.04177 3.23943 1.15624 2.77306 1.38518 2.36282C1.61411 1.95255 1.95362 1.6284 2.40371 1.39036C2.85379 1.15233 3.41057 1.03332 4.07406 1.03332L5.41269 1.03332C5.57177 1.03332 5.69982 0.983002 5.79682 0.882375C5.89382 0.781749 5.94232 0.659839 5.94232 0.516648C5.94232 0.373456 5.89382 0.251546 5.79682 0.150919C5.69982 0.0502935 5.57177 -1.9548e-05 5.41269 -1.95619e-05L4.06822 -1.96795e-05C3.19908 -1.97555e-05 2.46187 0.153813 1.8566 0.461479C1.25132 0.769185 0.790567 1.20074 0.47434 1.75615C0.158113 2.31152 -2.65455e-07 2.96076 -3.3042e-07 3.70387Z" fill="#646464"/>
</g>
<defs>
<clipPath id="clip0_1676_824">
<rect width="11" height="12" fill="white" transform="translate(11 12) rotate(-180)"/>
</clipPath>
</defs>
</svg>
