<svg width="34" height="34" viewBox="0 0 34 34" fill="none" xmlns="http://www.w3.org/2000/svg">
<path fill-rule="evenodd" clip-rule="evenodd" d="M17.3719 7.8056C17.1258 7.76186 16.874 7.76186 16.6279 7.8056C16.3828 7.84919 16.1311 7.95809 15.2808 8.35827L10.1719 10.7624C9.6085 11.0276 9.49808 11.088 9.42076 11.1512C9.2441 11.2959 9.11868 11.4935 9.0631 11.7148C9.03878 11.8117 9.03113 11.9374 9.03113 12.56V13.19C9.03113 15.1783 9.03426 16.0559 9.16382 16.8679C9.52385 19.1247 10.6018 21.205 12.2379 22.8006C12.8266 23.3748 13.5417 23.8834 15.1661 25.03C15.7878 25.4689 15.9756 25.595 16.1504 25.6712C16.6921 25.9075 17.3077 25.9075 17.8494 25.6712C18.0241 25.595 18.212 25.4689 18.8337 25.03C20.4581 23.8834 21.1732 23.3748 21.7619 22.8006C23.3979 21.205 24.476 19.1247 24.8359 16.8679C24.9656 16.0559 24.9686 15.1783 24.9686 13.19V12.56C24.9686 11.9374 24.961 11.8117 24.9367 11.7148C24.8811 11.4935 24.7557 11.2959 24.579 11.1512C24.5017 11.088 24.3913 11.0276 23.8278 10.7624L18.719 8.35827C17.8687 7.95809 17.617 7.84919 17.3719 7.8056ZM16.256 5.7134C16.7481 5.62593 17.2517 5.62593 17.7437 5.7134C18.302 5.81264 18.8228 6.05809 19.5125 6.38309C19.5491 6.40035 19.5862 6.41783 19.6238 6.43553L24.7327 8.83967C24.7626 8.85376 24.7923 8.86769 24.8217 8.8815C25.2455 9.08046 25.6169 9.25476 25.9248 9.50667C26.4548 9.94036 26.831 10.5332 26.9977 11.1975C27.0946 11.5833 27.0942 11.9935 27.0937 12.4617C27.0936 12.4942 27.0936 12.527 27.0936 12.56V13.2968C27.0937 15.1491 27.0937 16.2042 26.9344 17.2027C26.5024 19.9107 25.2088 22.4073 23.2456 24.3219C22.5216 25.0279 21.6597 25.6363 20.1464 26.7045L20.059 26.7661C20.0309 26.786 20.0031 26.8056 19.9757 26.825C19.4743 27.1792 19.0986 27.4447 18.6988 27.619C17.6155 28.0915 16.3843 28.0915 15.3009 27.619C14.9011 27.4447 14.5254 27.1792 14.024 26.825C13.9966 26.8056 13.9689 26.786 13.9406 26.7661L13.8535 26.7045C12.3401 25.6363 11.4782 25.0279 10.7542 24.3219C8.79099 22.4073 7.49738 19.9107 7.06536 17.2027C6.90604 16.2042 6.90607 15.1491 6.90613 13.2968V12.56C6.90613 12.527 6.9061 12.4942 6.90607 12.4617C6.9056 11.9935 6.9052 11.5833 7.00206 11.1975C7.16879 10.5332 7.54503 9.94036 8.07503 9.50667C8.38288 9.25476 8.7542 9.08046 9.17808 8.8815C9.20751 8.86769 9.23718 8.85376 9.26711 8.83967L14.3759 6.43553C14.4135 6.41783 14.4506 6.40035 14.4873 6.38309C15.177 6.05809 15.6978 5.81264 16.256 5.7134Z" fill="#333333"/>
</svg>
