<svg width="32" height="32" viewBox="0 0 32 32" fill="none" xmlns="http://www.w3.org/2000/svg">
<path d="M9.1479 9.22452L13.9562 6.9618C14.7073 6.60832 15.0829 6.43158 15.4749 6.36189C15.8222 6.30014 16.1778 6.30014 16.5251 6.36189C16.9171 6.43158 17.2927 6.60832 18.0438 6.9618L22.8521 9.22452C23.3342 9.45139 23.5753 9.56483 23.7666 9.72138C24.0991 9.9935 24.3352 10.3655 24.4398 10.7823C24.5 11.022 24.5 11.2884 24.5 11.8212V12.4141C24.5 14.2529 24.5 15.1722 24.3626 16.0333C23.9899 18.3696 22.8738 20.5235 21.1801 22.1753C20.5559 22.7841 19.8048 23.3143 18.3026 24.3747L18.3025 24.3747C17.7541 24.7618 17.4799 24.9554 17.1993 25.0777C16.4345 25.4113 15.5655 25.4113 14.8007 25.0777C14.5201 24.9554 14.2459 24.7618 13.6974 24.3747C12.1952 23.3143 11.4441 22.7841 10.8199 22.1753C9.12615 20.5235 8.0101 18.3696 7.63737 16.0333C7.5 15.1722 7.5 14.2529 7.5 12.4141V11.8212C7.5 11.2884 7.5 11.022 7.56019 10.7823C7.66481 10.3655 7.90088 9.9935 8.23343 9.72138C8.42474 9.56483 8.66579 9.45139 9.1479 9.22452Z" stroke="black" stroke-width="2" stroke-linejoin="round"/>
</svg>
