<svg width="15" height="15" viewBox="0 0 15 15" fill="none" xmlns="http://www.w3.org/2000/svg">
<g clip-path="url(#clip0_1394_859)">
<path d="M7.49999 15C8.52452 15 9.48898 14.804 10.3934 14.4121C11.2978 14.0201 12.0956 13.4787 12.7867 12.7879C13.4779 12.097 14.0196 11.2996 14.4117 10.3957C14.8039 9.49166 15 8.52766 15 7.50366C15 6.47965 14.8039 5.51567 14.4117 4.61169C14.0196 3.70772 13.4779 2.91032 12.7867 2.21948C12.0956 1.52864 11.2966 0.98724 10.3897 0.595273C9.48283 0.203307 8.51715 0.00732422 7.49264 0.00732422C6.46813 0.00732422 5.50367 0.203307 4.59926 0.595273C3.69485 0.98724 2.89828 1.52864 2.20956 2.21948C1.52083 2.91032 0.980391 3.70772 0.588235 4.61169C0.196078 5.51567 0 6.47965 0 7.50366C0 8.52766 0.196078 9.49166 0.588235 10.3957C0.980391 11.2996 1.52206 12.097 2.21323 12.7879C2.90441 13.4787 3.7022 14.0201 4.60661 14.4121C5.51102 14.804 6.47548 15 7.49999 15ZM5.25734 11.5238C5.1348 11.5238 5.03553 11.4809 4.95955 11.3951C4.88357 11.3094 4.84558 11.1906 4.84558 11.0387V4.65947C4.84558 4.2871 4.93995 4.00537 5.12867 3.81429C5.31739 3.62321 5.59558 3.52766 5.96323 3.52766H9.04409C9.41173 3.52766 9.68991 3.62321 9.87865 3.81429C10.0674 4.00537 10.1618 4.2871 10.1618 4.65947V11.0387C10.1618 11.1906 10.1238 11.3094 10.0478 11.3951C9.97182 11.4809 9.87012 11.5238 9.74267 11.5238C9.64459 11.5238 9.55511 11.4907 9.47425 11.4246C9.39338 11.3584 9.2647 11.2396 9.08821 11.0681L7.53678 9.54675C7.51226 9.52227 7.49019 9.52227 7.47058 9.54675L5.91911 11.0681C5.74264 11.2396 5.61397 11.3584 5.53308 11.4246C5.4522 11.4907 5.36029 11.5238 5.25734 11.5238Z" fill="#646464"/>
</g>
<defs>
<clipPath id="clip0_1394_859">
<rect width="15" height="15" rx="7.5" fill="white"/>
</clipPath>
</defs>
</svg>
