<svg width="32" height="32" viewBox="0 0 32 32" fill="none" xmlns="http://www.w3.org/2000/svg">
<path fill-rule="evenodd" clip-rule="evenodd" d="M16 8C10.4552 8 6.3582 11.5606 6.3582 15.5134C6.3582 17.9734 7.90211 20.2462 10.4486 21.6512C10.7793 21.8336 10.979 22.1869 10.9648 22.5644C10.9361 23.3257 10.7896 23.8546 10.3637 24.8012C11.9571 24.3721 12.8847 23.7486 13.4506 23.1885C13.6723 22.9691 13.9837 22.8657 14.2926 22.9089C14.8462 22.9864 15.4167 23.0269 16 23.0269C21.5448 23.0269 25.6418 19.4663 25.6418 15.5134C25.6418 11.5606 21.5448 8 16 8ZM4.3582 15.5134C4.3582 10.0626 9.79018 6 16 6C22.2098 6 27.6418 10.0626 27.6418 15.5134C27.6418 20.9643 22.2098 25.0269 16 25.0269C15.4885 25.0269 14.9843 25 14.4895 24.9478C13.5666 25.7341 12.2376 26.4438 10.2887 26.8786C10.2775 26.8811 10.2663 26.8836 10.2551 26.8861C10.066 26.9284 9.85587 26.9753 9.67358 26.9965C9.47419 27.0196 9.15361 27.0343 8.82204 26.8741L9.25689 25.9736L8.82204 26.8741C8.41823 26.6791 8.11484 26.2999 8.01329 25.8631C7.92748 25.494 8.0221 25.1737 8.08778 24.9897C8.15097 24.8126 8.24651 24.6103 8.33569 24.4215C8.34068 24.4109 8.34565 24.4004 8.35059 24.3899C8.66829 23.7167 8.8187 23.3419 8.89242 23.0542C6.19196 21.353 4.3582 18.6487 4.3582 15.5134Z" fill="black"/>
</svg>
