<svg width="12" height="23" viewBox="0 0 12 23" fill="none" xmlns="http://www.w3.org/2000/svg">
<path fill-rule="evenodd" clip-rule="evenodd" d="M0.403934 12.1759C0.261189 11.7366 0.261189 11.2634 0.403934 10.8241C0.5069 10.5071 0.681429 10.2645 0.843774 10.0732C0.991606 9.89908 1.1817 9.70898 1.37693 9.51386L10.0079 0.882848C10.435 0.455717 11.1276 0.455717 11.5547 0.882848C11.9818 1.30999 11.9818 2.00251 11.5547 2.42965L2.94843 11.0359C2.71907 11.2653 2.59417 11.3914 2.51137 11.489C2.50809 11.4928 2.50503 11.4965 2.50207 11.5C2.50503 11.5035 2.50809 11.5072 2.51137 11.511C2.59417 11.6086 2.71907 11.7347 2.94843 11.9641L11.5547 20.5704C11.9818 20.9975 11.9818 21.69 11.5547 22.1171C11.1276 22.5443 10.435 22.5443 10.0079 22.1171L1.40165 13.5109C1.39334 13.5025 1.38514 13.4943 1.37693 13.4861C1.1817 13.291 0.991606 13.1009 0.843774 12.9268C0.681429 12.7355 0.5069 12.4928 0.403934 12.1759Z" fill="#ED3A3A"/>
</svg>
