<svg width="8" height="14" viewBox="0 0 8 14" fill="none" xmlns="http://www.w3.org/2000/svg">
<path fill-rule="evenodd" clip-rule="evenodd" d="M7.77291 6.57512C7.86263 6.85129 7.86263 7.14871 7.77291 7.42488C7.70822 7.62411 7.5985 7.7766 7.49647 7.89684C7.40352 8.00629 7.28403 8.12578 7.16131 8.24843L1.73611 13.6736C1.46765 13.9421 1.03232 13.9421 0.763852 13.6736C0.495383 13.4052 0.495383 12.9698 0.763852 12.7014L6.17351 7.29171C6.31768 7.14754 6.3962 7.06827 6.44824 7.00694C6.4503 7.00454 6.45223 7.0022 6.45408 7C6.45223 6.9978 6.4503 6.99546 6.44824 6.99306C6.3962 6.93173 6.31768 6.85246 6.17351 6.70829L0.763852 1.29864C0.495383 1.03015 0.495383 0.594851 0.763852 0.326362C1.03232 0.0578794 1.46765 0.0578794 1.73611 0.326362L7.14578 5.73603C7.151 5.74126 7.15616 5.74641 7.16131 5.75157C7.28403 5.87422 7.40352 5.99371 7.49647 6.10316C7.5985 6.2234 7.70822 6.37596 7.77291 6.57512Z" fill="black"/>
</svg>
