<svg width="32" height="32" viewBox="0 0 32 32" fill="none" xmlns="http://www.w3.org/2000/svg">
<path fill-rule="evenodd" clip-rule="evenodd" d="M15.382 10.5121C15.7837 10.3816 16.2163 10.3816 16.618 10.5121C16.9078 10.6062 17.1296 10.7658 17.3045 10.9142C17.4637 11.0494 17.6375 11.2232 17.8159 11.4017L25.7071 19.2929C26.0976 19.6834 26.0976 20.3166 25.7071 20.7071C25.3166 21.0976 24.6834 21.0976 24.2929 20.7071L16.4243 12.8384C16.2146 12.6288 16.0993 12.5146 16.0101 12.4389C16.0066 12.4359 16.0032 12.433 16 12.4304C15.9968 12.433 15.9934 12.4359 15.9899 12.4389C15.9007 12.5146 15.7854 12.6288 15.5757 12.8384L7.7071 20.7071C7.31658 21.0976 6.68342 21.0976 6.29289 20.7071C5.90237 20.3166 5.90237 19.6834 6.29289 19.2929L14.1615 11.4242C14.1691 11.4167 14.1766 11.4092 14.1841 11.4017C14.3625 11.2232 14.5363 11.0494 14.6955 10.9142C14.8704 10.7658 15.0923 10.6062 15.382 10.5121Z" fill="black"/>
</svg>
