<svg width="5" height="9" viewBox="0 0 5 9" fill="none" xmlns="http://www.w3.org/2000/svg">
<g clip-path="url(#clip0_1394_836)">
<path d="M5 4.50259C5 4.43696 4.98807 4.37565 4.96421 4.31866C4.94035 4.26166 4.90457 4.20898 4.85685 4.16063L0.802656 0.145057C0.710632 0.0518185 0.599863 0.0052 0.470348 0.00519999C0.38173 0.00519998 0.302485 0.0259281 0.232613 0.0673833C0.162745 0.108802 0.106509 0.164918 0.0639046 0.235732C0.0213006 0.306546 -1.6312e-06 0.386856 -1.63905e-06 0.476663C-1.65023e-06 0.604496 0.0460103 0.716765 0.138035 0.813469L3.85992 4.50259L0.138034 8.19171C0.0460096 8.28843 -2.33179e-06 8.40069 -2.34297e-06 8.5285C-2.35082e-06 8.61831 0.0212999 8.69862 0.0639038 8.76943C0.106508 8.84024 0.162744 8.89637 0.232613 8.93782C0.302485 8.97927 0.38173 9 0.470347 9C0.599862 9 0.710631 8.95509 0.802655 8.86528L4.85685 4.84456C4.90457 4.7962 4.94035 4.74353 4.96421 4.68653C4.98807 4.62954 5 4.56822 5 4.50259Z" fill="#333333"/>
</g>
<defs>
<clipPath id="clip0_1394_836">
<rect width="5" height="9" fill="white" transform="translate(5 9) rotate(-180)"/>
</clipPath>
</defs>
</svg>
