<svg width="32" height="32" viewBox="0 0 32 32" fill="none" xmlns="http://www.w3.org/2000/svg">
<path fill-rule="evenodd" clip-rule="evenodd" d="M16.618 21.4879C16.2163 21.6184 15.7837 21.6184 15.382 21.4879C15.0922 21.3938 14.8704 21.2342 14.6955 21.0858C14.5363 20.9506 14.3625 20.7768 14.1841 20.5983L6.29289 12.7071C5.90237 12.3166 5.90237 11.6834 6.29289 11.2929C6.68342 10.9024 7.31658 10.9024 7.70711 11.2929L15.5757 19.1616C15.7854 19.3712 15.9007 19.4854 15.9899 19.5611C15.9934 19.5641 15.9968 19.567 16 19.5696C16.0032 19.567 16.0066 19.5641 16.0101 19.5611C16.0993 19.4854 16.2146 19.3712 16.4243 19.1616L24.2929 11.2929C24.6834 10.9024 25.3166 10.9024 25.7071 11.2929C26.0976 11.6834 26.0976 12.3166 25.7071 12.7071L17.8385 20.5758C17.8309 20.5833 17.8234 20.5908 17.8159 20.5983C17.6375 20.7768 17.4637 20.9506 17.3045 21.0858C17.1296 21.2342 16.9077 21.3938 16.618 21.4879Z" fill="black"/>
</svg>
