<svg width="32" height="32" viewBox="0 0 32 32" fill="none" xmlns="http://www.w3.org/2000/svg">
<path fill-rule="evenodd" clip-rule="evenodd" d="M16 8C11.5817 8 8 11.5817 8 16C8 20.4183 11.5817 24 16 24C20.4183 24 24 20.4183 24 16C24 11.5817 20.4183 8 16 8ZM6 16C6 10.4772 10.4772 6 16 6C21.5228 6 26 10.4772 26 16C26 21.5228 21.5228 26 16 26C10.4772 26 6 21.5228 6 16Z" fill="black"/>
<path d="M13.25 16C13.25 16.6904 12.6904 17.25 12 17.25C11.3096 17.25 10.75 16.6904 10.75 16C10.75 15.3096 11.3096 14.75 12 14.75C12.6904 14.75 13.25 15.3096 13.25 16Z" fill="black"/>
<path d="M17.25 16C17.25 16.6904 16.6904 17.25 16 17.25C15.3096 17.25 14.75 16.6904 14.75 16C14.75 15.3096 15.3096 14.75 16 14.75C16.6904 14.75 17.25 15.3096 17.25 16Z" fill="black"/>
<path d="M21.25 16C21.25 16.6904 20.6904 17.25 20 17.25C19.3096 17.25 18.75 16.6904 18.75 16C18.75 15.3096 19.3096 14.75 20 14.75C20.6904 14.75 21.25 15.3096 21.25 16Z" fill="black"/>
</svg>
