<svg width="32" height="32" viewBox="0 0 32 32" fill="none" xmlns="http://www.w3.org/2000/svg">
<path fill-rule="evenodd" clip-rule="evenodd" d="M16 8C11.5817 8 8 11.5817 8 16C8 17.9285 8.68239 19.6977 9.81889 21.0791C13.1516 17.1403 18.8484 17.1403 22.1811 21.0791C23.3176 19.6977 24 17.9285 24 16C24 11.5817 20.4183 8 16 8ZM20.725 22.4563C18.172 19.3479 13.828 19.3479 11.275 22.4563C12.599 23.4268 14.2326 24 16 24C17.7674 24 19.401 23.4268 20.725 22.4563ZM6 16C6 10.4772 10.4772 6 16 6C21.5228 6 26 10.4772 26 16C26 21.5228 21.5228 26 16 26C10.4772 26 6 21.5228 6 16ZM16 12C15.0335 12 14.25 12.7835 14.25 13.75C14.25 14.7165 15.0335 15.5 16 15.5C16.9665 15.5 17.75 14.7165 17.75 13.75C17.75 12.7835 16.9665 12 16 12ZM12.25 13.75C12.25 11.6789 13.9289 10 16 10C18.0711 10 19.75 11.6789 19.75 13.75C19.75 15.8211 18.0711 17.5 16 17.5C13.9289 17.5 12.25 15.8211 12.25 13.75Z" fill="black"/>
</svg>
