<svg width="9" height="16" viewBox="0 0 9 16" fill="none" xmlns="http://www.w3.org/2000/svg">
<path fill-rule="evenodd" clip-rule="evenodd" d="M3.27273 1.45455C2.26857 1.45455 1.45455 2.26857 1.45455 3.27273V11.8182C1.45455 13.3244 2.67559 14.5455 4.18182 14.5455C5.68805 14.5455 6.90909 13.3244 6.90909 11.8182V5.09091C6.90909 4.68925 7.2347 4.36364 7.63636 4.36364C8.03802 4.36364 8.36364 4.68925 8.36364 5.09091V11.8182C8.36364 14.1277 6.49137 16 4.18182 16C1.87226 16 0 14.1277 0 11.8182V3.27273C0 1.46525 1.46525 0 3.27273 0C5.0802 0 6.54545 1.46525 6.54545 3.27273V10C6.54545 11.3054 5.48722 12.3636 4.18182 12.3636C2.87642 12.3636 1.81818 11.3054 1.81818 10V5.09091C1.81818 4.68925 2.14379 4.36364 2.54545 4.36364C2.94712 4.36364 3.27273 4.68925 3.27273 5.09091V10C3.27273 10.5021 3.67974 10.9091 4.18182 10.9091C4.68389 10.9091 5.09091 10.5021 5.09091 10V3.27273C5.09091 2.26857 4.27688 1.45455 3.27273 1.45455Z" fill="#BBBBBB"/>
</svg>
