<svg width="32" height="32" viewBox="0 0 32 32" fill="none" xmlns="http://www.w3.org/2000/svg">
<path fill-rule="evenodd" clip-rule="evenodd" d="M15 7C13.6193 7 12.5 8.11929 12.5 9.5V21.25C12.5 23.3211 14.1789 25 16.25 25C18.3211 25 20 23.3211 20 21.25V12C20 11.4477 20.4477 11 21 11C21.5523 11 22 11.4477 22 12V21.25C22 24.4256 19.4256 27 16.25 27C13.0744 27 10.5 24.4256 10.5 21.25V9.5C10.5 7.01472 12.5147 5 15 5C17.4853 5 19.5 7.01472 19.5 9.5V18.75C19.5 20.5449 18.0449 22 16.25 22C14.4551 22 13 20.5449 13 18.75V12C13 11.4477 13.4477 11 14 11C14.5523 11 15 11.4477 15 12V18.75C15 19.4404 15.5596 20 16.25 20C16.9404 20 17.5 19.4404 17.5 18.75V9.5C17.5 8.11929 16.3807 7 15 7Z" fill="black"/>
</svg>
