<svg width="32" height="32" viewBox="0 0 32 32" fill="none" xmlns="http://www.w3.org/2000/svg">
<g clip-path="url(#clip0_317_76)">
<path fill-rule="evenodd" clip-rule="evenodd" d="M7.85514 7.85514C8.24567 7.46462 8.87883 7.46462 9.26935 7.85514L16 14.5858L22.7306 7.85514C23.1212 7.46462 23.7543 7.46462 24.1449 7.85514C24.5354 8.24567 24.5354 8.87883 24.1449 9.26935L17.4142 16L24.1449 22.7306C24.5354 23.1212 24.5354 23.7543 24.1449 24.1449C23.7543 24.5354 23.1212 24.5354 22.7306 24.1449L16 17.4142L9.26935 24.1449C8.87883 24.5354 8.24567 24.5354 7.85514 24.1449C7.46462 23.7543 7.46462 23.1212 7.85514 22.7306L14.5858 16L7.85514 9.26935C7.46462 8.87883 7.46462 8.24566 7.85514 7.85514Z" fill="black"/>
</g>
<defs>
<clipPath id="clip0_317_76">
<rect width="32" height="32" fill="white"/>
</clipPath>
</defs>
</svg>
