<svg width="32" height="32" viewBox="0 0 32 32" fill="none" xmlns="http://www.w3.org/2000/svg">
<path fill-rule="evenodd" clip-rule="evenodd" d="M16 8C11.5817 8 8 11.5817 8 16C8 20.4183 11.5817 24 16 24C20.4183 24 24 20.4183 24 16C24 11.5817 20.4183 8 16 8ZM6 16C6 10.4772 10.4772 6 16 6C21.5228 6 26 10.4772 26 16C26 21.5228 21.5228 26 16 26C10.4772 26 6 21.5228 6 16Z" fill="black"/>
<path fill-rule="evenodd" clip-rule="evenodd" d="M20.7071 12.7929C21.0976 13.1834 21.0976 13.8166 20.7071 14.2071L15.2071 19.7071C14.8166 20.0976 14.1834 20.0976 13.7929 19.7071L10.7929 16.7071C10.4024 16.3166 10.4024 15.6834 10.7929 15.2929C11.1834 14.9024 11.8166 14.9024 12.2071 15.2929L14.5 17.5858L19.2929 12.7929C19.6834 12.4024 20.3166 12.4024 20.7071 12.7929Z" fill="black"/>
</svg>
