<svg width="32" height="32" viewBox="0 0 32 32" fill="none" xmlns="http://www.w3.org/2000/svg">
<path d="M23.5294 13.6682L22.5294 13.6646C22.5276 14.1835 22.9229 14.6176 23.4396 14.6641L23.5294 13.6682ZM13.4907 10.0968L13.1573 11.0395C13.5566 11.1807 14.0015 11.0551 14.268 10.7259L13.4907 10.0968ZM8.47065 13.6682L8.56039 14.6641C9.07791 14.6175 9.47349 14.1823 9.47063 13.6627L8.47065 13.6682ZM24.5294 13.6717C24.5294 13.6636 24.5294 13.6554 24.5294 13.6471H22.5294C22.5294 13.6528 22.5294 13.6587 22.5294 13.6646L24.5294 13.6717ZM24.5294 13.6471C24.5294 9.97599 21.5534 7 17.8824 7V9C20.4489 9 22.5294 11.0806 22.5294 13.6471H24.5294ZM17.8824 7C15.7942 7 13.9304 7.96409 12.7134 9.4676L14.268 10.7259C15.1215 9.67137 16.4232 9 17.8824 9V7ZM13.8241 9.15396C13.3258 8.97778 12.7906 8.88235 12.2353 8.88235V10.8824C12.5604 10.8824 12.8702 10.938 13.1573 11.0395L13.8241 9.15396ZM12.2353 8.88235C9.60382 8.88235 7.47059 11.0156 7.47059 13.6471H9.47059C9.47059 12.1202 10.7084 10.8824 12.2353 10.8824V8.88235ZM7.47059 13.6471C7.47059 13.6559 7.47062 13.6648 7.47066 13.6737L9.47063 13.6627C9.47061 13.6575 9.47059 13.6523 9.47059 13.6471H7.47059ZM4.76471 18.8235C4.76471 16.6454 6.43276 14.8558 8.56039 14.6641L8.38091 12.6722C5.23178 12.9559 2.76471 15.6011 2.76471 18.8235H4.76471ZM8.94118 23C6.63458 23 4.76471 21.1301 4.76471 18.8235H2.76471C2.76471 22.2347 5.53001 25 8.94118 25V23ZM23.0588 23H8.94118V25H23.0588V23ZM27.2353 18.8235C27.2353 21.1301 25.3654 23 23.0588 23V25C26.47 25 29.2353 22.2347 29.2353 18.8235H27.2353ZM23.4396 14.6641C25.5673 14.8558 27.2353 16.6455 27.2353 18.8235H29.2353C29.2353 15.6011 26.7682 12.956 23.6191 12.6722L23.4396 14.6641Z" fill="black"/>
</svg>
