<svg width="20" height="21" viewBox="0 0 20 21" fill="none" xmlns="http://www.w3.org/2000/svg">
<path fill-rule="evenodd" clip-rule="evenodd" d="M12.2767 3.78831H7.725C7.04787 3.7883 6.50169 3.78829 6.05942 3.82384C5.60402 3.86044 5.20402 3.93778 4.83391 4.12326C4.24601 4.4179 3.76798 4.88805 3.46829 5.46635C3.27963 5.83039 3.20088 6.22394 3.16351 6.67197C3.12722 7.10715 3.12702 7.64447 3.12677 8.31067L3.12599 10.3694C3.12592 10.5374 3.12586 10.6518 3.13258 10.7529C3.22957 12.2131 4.35542 13.3916 5.80614 13.5958C5.80427 13.6054 5.80227 13.615 5.80014 13.6247C5.76674 13.7764 5.69419 13.9723 5.4966 14.3872C5.49354 14.3937 5.49045 14.4002 5.48734 14.4067C5.43191 14.523 5.37248 14.6477 5.33327 14.7569C5.29248 14.8704 5.23399 15.0678 5.28862 15.2949C5.35329 15.5636 5.54469 15.7966 5.79811 15.9153C6.0057 16.0124 6.20561 16.0025 6.33075 15.9874C6.4445 15.9737 6.57537 15.944 6.69269 15.9173C6.69975 15.9157 6.70675 15.9142 6.71369 15.9126C8.02219 15.6159 8.85162 15.1097 9.39218 14.569C9.7315 14.2296 9.94375 13.8858 10.0801 13.627H12.2767C12.9541 13.627 13.5004 13.627 13.9429 13.5915C14.3984 13.5548 14.7986 13.4775 15.1687 13.2919C15.7567 12.9972 16.2348 12.5268 16.5344 11.9483C16.723 11.5841 16.8016 11.1904 16.8389 10.7422C16.875 10.3069 16.875 9.76938 16.875 9.10293V8.31239C16.875 7.64594 16.875 7.10844 16.8389 6.67314C16.8016 6.22493 16.723 5.83125 16.5344 5.46707C16.2348 4.88855 15.7567 4.41819 15.1687 4.12342C14.7986 3.93784 14.3984 3.86048 13.9429 3.82386C13.5004 3.78829 12.9541 3.7883 12.2767 3.78831ZM7.08487 13.0121C7.08487 12.6725 6.80506 12.3972 6.45987 12.3972C6.25594 12.3972 6.18421 12.3969 6.12795 12.3932C5.18904 12.3325 4.44128 11.5965 4.37992 10.6727C4.37624 10.6174 4.37593 10.5468 4.376 10.3462L4.37676 8.33748C4.37702 7.63881 4.3777 7.15173 4.40932 6.77257C4.44035 6.40061 4.49801 6.18686 4.5819 6.02495C4.76172 5.67802 5.04854 5.3959 5.40127 5.21912C5.56584 5.13664 5.78309 5.07999 6.1612 5.0496C6.54662 5.01863 7.04162 5.01815 7.75175 5.01815H12.25C12.9604 5.01815 13.4556 5.01863 13.8411 5.04962C14.2193 5.08002 14.4366 5.1367 14.6012 5.21921C14.9541 5.39608 15.2409 5.67826 15.4206 6.02538C15.5045 6.18735 15.5621 6.40116 15.593 6.77325C15.6245 7.15259 15.625 7.63979 15.625 8.33871V9.07661C15.625 9.77553 15.6245 10.2627 15.593 10.6421C15.5621 11.0142 15.5045 11.228 15.4206 11.3899C15.2409 11.7371 14.9541 12.0192 14.6012 12.1961C14.4366 12.2786 14.2193 12.3353 13.8411 12.3657C13.4556 12.3967 12.9604 12.3972 12.25 12.3972H9.68806C9.44993 12.3972 9.2325 12.5303 9.12731 12.7405C9.108 12.7792 9.08881 12.819 9.06912 12.86C8.9495 13.1082 8.81025 13.3973 8.50106 13.7066C8.18456 14.0232 7.66244 14.381 6.75669 14.6327C6.88544 14.3453 6.9715 14.1134 7.02181 13.885C7.08512 13.5974 7.085 13.3396 7.08487 13.0513C7.08487 13.0383 7.08487 13.0252 7.08487 13.0121Z" fill="#636363"/>
</svg>
