<svg width="32" height="32" viewBox="0 0 32 32" fill="none" xmlns="http://www.w3.org/2000/svg">
<path fill-rule="evenodd" clip-rule="evenodd" d="M19.6428 7H12.36C11.2766 6.99999 10.4027 6.99998 9.69508 7.05779C8.96644 7.11732 8.32643 7.24307 7.73426 7.54472C6.79362 8.02386 6.02877 8.78843 5.54927 9.72889C5.24741 10.321 5.12141 10.9609 5.06162 11.6895C5.00355 12.3972 5.00323 13.271 5.00284 14.3544L5.00159 17.7024C5.00147 17.9756 5.00138 18.1616 5.01213 18.3261C5.16731 20.7006 6.96868 22.6172 9.28983 22.9493C9.28683 22.9649 9.28363 22.9805 9.28022 22.9962C9.22679 23.2429 9.11071 23.5615 8.79457 24.2363C8.78966 24.2468 8.78472 24.2573 8.77975 24.2679C8.69106 24.4571 8.59597 24.6599 8.53324 24.8374C8.46797 25.0221 8.37438 25.3431 8.4618 25.7123C8.56527 26.1493 8.87151 26.5283 9.27698 26.7212C9.60913 26.8792 9.92899 26.8631 10.1292 26.8386C10.3112 26.8163 10.5206 26.768 10.7083 26.7246C10.7196 26.722 10.7308 26.7195 10.7419 26.7169C12.8355 26.2343 14.1626 25.4112 15.0275 24.5319C15.5704 23.98 15.91 23.4209 16.1281 23H19.6428C20.7266 23 21.6007 23 22.3086 22.9422C23.0375 22.8826 23.6777 22.7568 24.27 22.455C25.2108 21.9757 25.9757 21.2108 26.455 20.27C26.7568 19.6777 26.8826 19.0375 26.9422 18.3086C27 17.6007 27 16.7266 27 15.6428L27 14.3572C27 13.2734 27 12.3993 26.9422 11.6914C26.8826 10.9625 26.7568 10.3223 26.455 9.73005C25.9757 8.78924 25.2108 8.02433 24.2699 7.54497C23.6777 7.24318 23.0375 7.11737 22.3086 7.05782C21.6007 6.99998 20.7266 6.99999 19.6428 7ZM11.3358 22C11.3358 21.4477 10.8881 21 10.3358 21C10.0095 21 9.89474 20.9995 9.80473 20.9935C8.30247 20.8948 7.10605 19.6979 7.00787 18.1956C7.00199 18.1056 7.00149 17.9909 7.00161 17.6646L7.00282 14.398C7.00324 13.2618 7.00432 12.4697 7.05492 11.8531C7.10456 11.2482 7.19682 10.9006 7.33105 10.6373C7.61875 10.0731 8.07766 9.61432 8.64204 9.32683C8.90535 9.1927 9.25295 9.10057 9.85792 9.05115C10.4746 9.00078 11.2666 9 12.4028 9H19.6C20.7366 9 21.5289 9.00078 22.1458 9.05118C22.7509 9.10062 23.0986 9.19279 23.362 9.32698C23.9265 9.6146 24.3854 10.0735 24.673 10.638C24.8072 10.9014 24.8994 11.2491 24.9488 11.8542C24.9992 12.4711 25 13.2634 25 14.4L25 15.6C25 16.7366 24.9992 17.5289 24.9488 18.1458C24.8994 18.7509 24.8072 19.0986 24.673 19.362C24.3854 19.9265 23.9265 20.3854 23.362 20.673C23.0986 20.8072 22.7509 20.8994 22.1458 20.9488C21.5289 20.9992 20.7366 21 19.6 21H15.5009C15.1199 21 14.772 21.2165 14.6037 21.5584C14.5728 21.6212 14.5421 21.686 14.5106 21.7526C14.3192 22.1563 14.0964 22.6265 13.6017 23.1295C13.0953 23.6443 12.2599 24.2262 10.8107 24.6355C11.0167 24.1681 11.1544 23.791 11.2349 23.4196C11.3362 22.9519 11.336 22.5326 11.3358 22.0637C11.3358 22.0426 11.3358 22.0213 11.3358 22Z" fill="black"/>
</svg>
