<svg width="14" height="13" viewBox="0 0 14 13" fill="none" xmlns="http://www.w3.org/2000/svg">
<path fill-rule="evenodd" clip-rule="evenodd" d="M9.27675 0.375H4.725C4.04787 0.374994 3.50169 0.374988 3.05942 0.411119C2.60402 0.448319 2.20402 0.526919 1.83391 0.715444C1.24601 1.01491 0.767979 1.49277 0.468292 2.08056C0.279629 2.45056 0.20088 2.85056 0.163511 3.30594C0.127217 3.74825 0.127017 4.29438 0.126773 4.9715L0.125992 7.064C0.125917 7.23475 0.125861 7.351 0.132579 7.45381C0.229567 8.93788 1.35542 10.1358 2.80614 10.3433C2.80427 10.3531 2.80227 10.3628 2.80014 10.3726C2.76674 10.5268 2.69419 10.7259 2.4966 11.1477C2.49354 11.1543 2.49045 11.1608 2.48734 11.1674C2.43191 11.2857 2.37248 11.4124 2.33327 11.5234C2.29248 11.6388 2.23399 11.8394 2.28862 12.0702C2.35329 12.3433 2.54469 12.5802 2.79811 12.7008C3.0057 12.7995 3.20561 12.7894 3.33075 12.7741C3.4445 12.7602 3.57537 12.73 3.69269 12.7029C3.69975 12.7013 3.70675 12.6997 3.71369 12.6981C5.02219 12.3964 5.85162 11.882 6.39218 11.3324C6.7315 10.9875 6.94375 10.6381 7.08006 10.375H9.27675C9.95412 10.375 10.5004 10.375 10.9429 10.3389C11.3984 10.3016 11.7986 10.223 12.1687 10.0344C12.7567 9.73481 13.2348 9.25675 13.5344 8.66875C13.723 8.29856 13.8016 7.89844 13.8389 7.44288C13.875 7.00044 13.875 6.45413 13.875 5.77675V4.97325C13.875 4.29588 13.875 3.74956 13.8389 3.30713C13.8016 2.85156 13.723 2.45144 13.5344 2.08128C13.2348 1.49328 12.7567 1.01521 12.1687 0.715606C11.7986 0.526988 11.3984 0.448356 10.9429 0.411138C10.5004 0.374988 9.95412 0.374994 9.27675 0.375ZM4.08487 9.75C4.08487 9.40481 3.80506 9.125 3.45987 9.125C3.25594 9.125 3.18421 9.12469 3.12795 9.12094C2.18904 9.05925 1.44128 8.31119 1.37992 7.37225C1.37624 7.316 1.37593 7.24431 1.376 7.04038L1.37676 4.99875C1.37702 4.28863 1.3777 3.79356 1.40932 3.40819C1.44035 3.03013 1.49801 2.81288 1.5819 2.64831C1.76172 2.29569 2.04854 2.00895 2.40127 1.82927C2.56584 1.74544 2.78309 1.68786 3.1612 1.65697C3.54662 1.62549 4.04162 1.625 4.75175 1.625H9.25C9.96037 1.625 10.4556 1.62549 10.8411 1.65699C11.2193 1.68789 11.4366 1.74549 11.6012 1.82936C11.9541 2.00913 12.2409 2.29594 12.4206 2.64875C12.5045 2.81337 12.5621 3.03069 12.593 3.40888C12.6245 3.79444 12.625 4.28963 12.625 5V5.75C12.625 6.46038 12.6245 6.95556 12.593 7.34113C12.5621 7.71931 12.5045 7.93663 12.4206 8.10125C12.2409 8.45406 11.9541 8.74088 11.6012 8.92063C11.4366 9.0045 11.2193 9.06213 10.8411 9.093C10.4556 9.1245 9.96037 9.125 9.25 9.125H6.68806C6.44993 9.125 6.2325 9.26031 6.12731 9.474C6.108 9.51325 6.08881 9.55375 6.06912 9.59538C5.9495 9.84769 5.81025 10.1416 5.50106 10.4559C5.18456 10.7777 4.66244 11.1414 3.75669 11.3972C3.88544 11.1051 3.9715 10.8694 4.02181 10.6373C4.08512 10.3449 4.085 10.0829 4.08487 9.78981C4.08487 9.77663 4.08487 9.76331 4.08487 9.75Z" fill="#636363"/>
</svg>
