<svg width="14" height="13" viewBox="0 0 14 13" fill="none" xmlns="http://www.w3.org/2000/svg">
<path fill-rule="evenodd" clip-rule="evenodd" d="M9.27675 0.788307H4.725C4.04787 0.788301 3.50169 0.788295 3.05942 0.823843C2.60402 0.860443 2.20402 0.937776 1.83391 1.12326C1.24601 1.4179 0.767979 1.88805 0.468292 2.46635C0.279629 2.83039 0.20088 3.22394 0.163511 3.67197C0.127217 4.10715 0.127017 4.64447 0.126773 5.31067L0.125992 7.36942C0.125917 7.53742 0.125861 7.65179 0.132579 7.75294C0.229567 9.21307 1.35542 10.3916 2.80614 10.5958C2.80427 10.6054 2.80227 10.615 2.80014 10.6247C2.76674 10.7764 2.69419 10.9723 2.4966 11.3872C2.49354 11.3937 2.49045 11.4002 2.48734 11.4067C2.43191 11.523 2.37248 11.6477 2.33327 11.7569C2.29248 11.8704 2.23399 12.0678 2.28862 12.2949C2.35329 12.5636 2.54469 12.7966 2.79811 12.9153C3.0057 13.0124 3.20561 13.0025 3.33075 12.9874C3.4445 12.9737 3.57537 12.944 3.69269 12.9173C3.69975 12.9157 3.70675 12.9142 3.71369 12.9126C5.02219 12.6159 5.85162 12.1097 6.39218 11.569C6.7315 11.2296 6.94375 10.8858 7.08006 10.627H9.27675C9.95412 10.627 10.5004 10.627 10.9429 10.5915C11.3984 10.5548 11.7986 10.4775 12.1687 10.2919C12.7567 9.99716 13.2348 9.5268 13.5344 8.94829C13.723 8.58407 13.8016 8.1904 13.8389 7.74218C13.875 7.30688 13.875 6.76938 13.875 6.10293V5.31239C13.875 4.64594 13.875 4.10844 13.8389 3.67314C13.8016 3.22493 13.723 2.83125 13.5344 2.46707C13.2348 1.88855 12.7567 1.41819 12.1687 1.12342C11.7986 0.937843 11.3984 0.86048 10.9429 0.823862C10.5004 0.788295 9.95412 0.788301 9.27675 0.788307ZM4.08487 10.0121C4.08487 9.67248 3.80506 9.39718 3.45987 9.39718C3.25594 9.39718 3.18421 9.39687 3.12795 9.39318C2.18904 9.33249 1.44128 8.59649 1.37992 7.6727C1.37624 7.61736 1.37593 7.54682 1.376 7.34618L1.37676 5.33748C1.37702 4.63881 1.3777 4.15173 1.40932 3.77257C1.44035 3.40061 1.49801 3.18686 1.5819 3.02495C1.76172 2.67802 2.04854 2.3959 2.40127 2.21912C2.56584 2.13664 2.78309 2.07999 3.1612 2.0496C3.54662 2.01863 4.04162 2.01815 4.75175 2.01815H9.25C9.96037 2.01815 10.4556 2.01863 10.8411 2.04962C11.2193 2.08002 11.4366 2.1367 11.6012 2.21921C11.9541 2.39608 12.2409 2.67826 12.4206 3.02538C12.5045 3.18735 12.5621 3.40116 12.593 3.77325C12.6245 4.15259 12.625 4.63979 12.625 5.33871V6.07661C12.625 6.77553 12.6245 7.26273 12.593 7.64208C12.5621 8.01416 12.5045 8.22797 12.4206 8.38994C12.2409 8.73706 11.9541 9.01925 11.6012 9.1961C11.4366 9.27862 11.2193 9.33532 10.8411 9.36569C10.4556 9.39669 9.96037 9.39718 9.25 9.39718H6.68806C6.44993 9.39718 6.2325 9.53031 6.12731 9.74055C6.108 9.77917 6.08881 9.81901 6.06912 9.85997C5.9495 10.1082 5.81025 10.3973 5.50106 10.7066C5.18456 11.0232 4.66244 11.381 3.75669 11.6327C3.88544 11.3453 3.9715 11.1134 4.02181 10.885C4.08512 10.5974 4.085 10.3396 4.08487 10.0513C4.08487 10.0383 4.08487 10.0252 4.08487 10.0121Z" fill="#636363"/>
</svg>
