<svg width="32" height="32" viewBox="0 0 32 32" fill="none" xmlns="http://www.w3.org/2000/svg">
<path fill-rule="evenodd" clip-rule="evenodd" d="M16.4161 2.99995L16.5 3L16.5839 2.99995C16.9646 2.99965 17.2924 2.99939 17.5853 3.05764C18.7753 3.29436 19.7056 4.22465 19.9424 5.41472C19.9782 5.59514 19.9919 5.78884 19.9971 5.99999H21.2444L21.3386 5.99994C21.7746 5.99953 22.1531 5.99917 22.498 6.08096C23.4298 6.30194 24.2001 6.95448 24.5712 7.83724C24.7086 8.16399 24.7705 8.53745 24.8418 8.96761L24.8572 9.0605L24.8633 9.09565L24.8633 9.09568C24.8844 9.21563 24.9265 9.45565 24.8985 9.68318C24.8302 10.2384 24.4594 10.7062 23.9421 10.9024L23.1945 22.1163C23.1615 22.6109 23.133 23.0392 23.0812 23.3917C23.0264 23.765 22.9358 24.1335 22.7356 24.485C22.4355 25.0118 21.9828 25.4353 21.4372 25.6997C21.0732 25.8761 20.6995 25.942 20.3233 25.9718C19.9681 26 19.5389 26 19.0433 26H19.0433H19.0433H19.0432H12.9568H12.9567H12.9567H12.9567C12.4611 26 12.0319 26 11.6767 25.9718C11.3005 25.942 10.9268 25.8761 10.5628 25.6997C10.0172 25.4353 9.56453 25.0118 9.26443 24.485C9.0642 24.1335 8.9736 23.765 8.91878 23.3917C8.86702 23.0392 8.83848 22.6109 8.80553 22.1163L8.05794 10.9024C7.54056 10.7062 7.16978 10.2384 7.10146 9.68318C7.07346 9.45563 7.11563 9.21559 7.1367 9.09565L7.14279 9.0605L7.15821 8.9676C7.22949 8.53744 7.29137 8.16399 7.42875 7.83724C7.79991 6.95448 8.5702 6.30194 9.50197 6.08096C9.84685 5.99917 10.2254 5.99953 10.6614 5.99994L10.7556 5.99999H13.0029C13.0081 5.78884 13.0218 5.59514 13.0576 5.41472C13.2944 4.22465 14.2247 3.29436 15.4147 3.05764C15.7076 2.99939 16.0354 2.99965 16.4161 2.99995ZM14 8L13.998 7.99999H10.7556C10.1713 7.99999 10.0492 8.00665 9.96349 8.02698C9.6529 8.10064 9.39614 8.31816 9.27242 8.61241C9.24794 8.67062 9.22733 8.7484 9.18225 8.99999H22.8178C22.7727 8.7484 22.7521 8.67062 22.7276 8.61241C22.6039 8.31816 22.3471 8.10064 22.0365 8.02698C21.9508 8.00665 21.8287 7.99999 21.2444 7.99999H19.002L19 8H14ZM17.9808 5.80491C17.9883 5.84251 17.9932 5.89042 17.9961 6H15.0039C15.0068 5.89042 15.0117 5.84251 15.0192 5.80491C15.0981 5.40821 15.4082 5.09812 15.8049 5.01921C15.8772 5.00484 15.9874 5 16.5 5C17.0126 5 17.1228 5.00484 17.1951 5.01921C17.5918 5.09812 17.9019 5.40821 17.9808 5.80491ZM10.7986 21.9463L10.0689 11H21.9311L21.2014 21.9463C21.1652 22.4883 21.1413 22.8366 21.1024 23.1011C21.0654 23.3536 21.0248 23.4476 20.9978 23.495C20.8977 23.6706 20.7469 23.8118 20.565 23.8999C20.5159 23.9237 20.4194 23.9579 20.165 23.9781C19.8985 23.9993 19.5494 24 19.0062 24H12.9938C12.4506 24 12.1015 23.9993 11.8349 23.9781C11.5806 23.9579 11.4841 23.9237 11.435 23.8999C11.2531 23.8118 11.1022 23.6706 11.0022 23.495C10.9752 23.4476 10.9346 23.3536 10.8976 23.1011C10.8587 22.8366 10.8348 22.4883 10.7986 21.9463ZM13.2488 12.9584C13.2259 12.5448 12.872 12.2282 12.4584 12.2511C12.0448 12.2741 11.7282 12.628 11.7512 13.0416L12.2512 22.0416C12.2741 22.4552 12.628 22.7718 13.0416 22.7488C13.4552 22.7259 13.7718 22.372 13.7488 21.9584L13.2488 12.9584ZM20.2488 13.0416C20.2718 12.628 19.9552 12.2741 19.5416 12.2511C19.128 12.2282 18.7741 12.5448 18.7512 12.9584L18.2512 21.9584C18.2282 22.372 18.5448 22.7259 18.9584 22.7488C19.372 22.7718 19.7259 22.4552 19.7488 22.0416L20.2488 13.0416ZM16.75 13C16.75 12.5858 16.4142 12.25 16 12.25C15.5858 12.25 15.25 12.5858 15.25 13V22C15.25 22.4142 15.5858 22.75 16 22.75C16.4142 22.75 16.75 22.4142 16.75 22V13Z" fill="black"/>
</svg>
