<svg width="32" height="32" viewBox="0 0 32 32" fill="none" xmlns="http://www.w3.org/2000/svg">
<path fill-rule="evenodd" clip-rule="evenodd" d="M16.5884 24.1412C16.9351 23.9597 17.1717 23.6314 17.2107 23.2844C17.4126 21.4833 17.8931 19.2481 19.0294 17.3878C19.5531 16.5305 19.8398 15.3591 19.9483 14.0425C20.0557 12.7395 19.9824 11.3782 19.8517 10.2043C19.7117 8.94694 18.5926 8 17.1867 8L11.8739 8C10.3577 8 9.07978 9.13128 8.89593 10.6362L8.40356 14.6666C8.25795 15.8585 9.18804 16.9091 10.3888 16.9091L14.1078 16.9091C14.4224 16.9091 14.7186 17.0571 14.9075 17.3087C15.0964 17.5603 15.1558 17.8861 15.068 18.1882C14.9606 18.5578 14.8467 18.8938 14.7482 19.1842C14.7173 19.2752 14.688 19.3618 14.6608 19.4435C14.5426 19.7993 14.4577 20.086 14.4073 20.3788C14.313 20.9273 14.3211 21.6063 14.6785 22.8238C14.8284 23.3345 15.1853 23.7973 15.6866 24.1392C15.9223 24.3 16.2479 24.3195 16.5884 24.1412ZM17.5161 25.9131C16.6557 26.3636 15.5214 26.4475 14.5595 25.7914C13.7402 25.2325 13.0598 24.4103 12.7595 23.3871C12.3421 21.9654 12.2765 20.9686 12.4362 20.0398C12.5064 19.6317 12.6163 19.2599 12.7311 18.9091L10.3888 18.9091C7.98729 18.9091 6.1271 16.8078 6.41832 14.424L6.91069 10.3937C7.21712 7.88534 9.34705 6 11.8739 6L17.1867 6C19.4677 6 21.5715 7.57615 21.8394 9.98305C21.9784 11.2316 22.0632 12.7311 21.9415 14.2068C21.821 15.6689 21.4914 17.194 20.7362 18.4304C19.8203 19.9299 19.3862 21.8306 19.1982 23.5073C19.0755 24.6009 18.3702 25.4658 17.5161 25.9131Z" fill="black"/>
<path d="M27 16C27 17.1046 26.1046 18 25 18C23.8954 18 23 17.1046 23 16L23 9C23 7.89543 23.8954 7 25 7C26.1046 7 27 7.89543 27 9L27 16Z" fill="black"/>
</svg>
