<svg width="20" height="21" viewBox="0 0 20 21" fill="none" xmlns="http://www.w3.org/2000/svg">
<path fill-rule="evenodd" clip-rule="evenodd" d="M10.3678 15.4219C10.5845 15.3103 10.7323 15.1084 10.7567 14.8951C10.8829 13.7875 11.1832 12.4131 11.8934 11.2691C12.2207 10.742 12.3999 10.0216 12.4677 9.21204C12.5348 8.4108 12.489 7.57371 12.4073 6.85185C12.3198 6.07868 11.6204 5.49639 10.7417 5.49639H7.42122C6.47359 5.49639 5.67489 6.19203 5.55998 7.11744L5.25225 9.59581C5.16125 10.3287 5.74255 10.9748 6.49303 10.9748H8.8174C9.01403 10.9748 9.19915 11.0658 9.31722 11.2205C9.43528 11.3752 9.4724 11.5755 9.41753 11.7613C9.3504 11.9886 9.27922 12.1952 9.21765 12.3738C9.19834 12.4297 9.18003 12.483 9.16303 12.5332C9.08915 12.752 9.03609 12.9283 9.00459 13.1084C8.94565 13.4456 8.95072 13.8632 9.17409 14.6118C9.26778 14.9259 9.49084 15.2105 9.80415 15.4207C9.95147 15.5196 10.155 15.5316 10.3678 15.4219ZM10.9476 16.5115C10.4098 16.7885 9.7009 16.8401 9.09972 16.4367C8.58765 16.093 8.1624 15.5874 7.97472 14.9582C7.71384 14.084 7.67284 13.471 7.77265 12.8999C7.81653 12.6489 7.88522 12.4203 7.95697 12.2046H6.49303C4.99208 12.2046 3.82947 10.9125 4.01148 9.44663L4.31921 6.96832C4.51073 5.42588 5.84193 4.26655 7.42122 4.26655H10.7417C12.1673 4.26655 13.4822 5.23576 13.6497 6.7158C13.7365 7.48356 13.7895 8.40563 13.7135 9.31307C13.6382 10.2121 13.4322 11.15 12.9602 11.9102C12.3877 12.8323 12.1164 14.0011 11.9989 15.0321C11.9222 15.7046 11.4814 16.2364 10.9476 16.5115Z" fill="#538DD1"/>
<path d="M16.875 10.4157C16.875 11.095 16.3154 11.6456 15.625 11.6456C14.9346 11.6456 14.375 11.095 14.375 10.4157V6.11131C14.375 5.43209 14.9346 4.88147 15.625 4.88147C16.3154 4.88147 16.875 5.43209 16.875 6.11131V10.4157Z" fill="#538DD1"/>
</svg>
