<svg width="20" height="19" viewBox="0 0 20 19" fill="none" xmlns="http://www.w3.org/2000/svg">
<path fill-rule="evenodd" clip-rule="evenodd" d="M7.98411 18.5541C8.88589 19.1692 9.94929 19.0905 10.7559 18.6682C11.5566 18.2488 12.2179 17.438 12.3329 16.4127C12.5091 14.8408 12.9161 13.0589 13.7748 11.6531C14.4828 10.494 14.7918 9.06423 14.9047 7.69351C15.0188 6.31004 14.9393 4.90426 14.809 3.73374C14.5579 1.47728 12.5855 -0.000366211 10.4471 -0.000366211H5.46636C3.09744 -0.000366211 1.10063 1.76714 0.813348 4.11873L0.351751 7.89713C0.0787327 10.1319 1.82266 12.1019 4.07408 12.1019H6.26998C6.16236 12.4308 6.05933 12.7794 5.99351 13.1619C5.84379 14.0327 5.90529 14.9673 6.29661 16.3C6.57814 17.2593 7.21601 18.0301 7.98411 18.5541ZM17.772 11.2496C18.8076 11.2496 19.647 10.4102 19.647 9.37463V2.81213C19.647 1.7766 18.8076 0.937134 17.772 0.937134C16.7365 0.937134 15.897 1.7766 15.897 2.81213V9.37463C15.897 10.4102 16.7365 11.2496 17.772 11.2496Z" fill="#538DD1"/>
</svg>
