<svg width="20" height="19" viewBox="0 0 20 19" fill="none" xmlns="http://www.w3.org/2000/svg">
<path fill-rule="evenodd" clip-rule="evenodd" d="M10.4696 16.2038C10.433 16.5291 10.2112 16.8369 9.8862 17.007C9.56698 17.1742 9.26173 17.1559 9.04076 17.0051C8.57079 16.6846 8.2362 16.2507 8.09567 15.7719C7.76061 14.6305 7.75301 13.994 7.84142 13.4798C7.88867 13.2053 7.96826 12.9365 8.07908 12.6029C8.10458 12.5263 8.13205 12.4451 8.16101 12.3598C8.25336 12.0876 8.36014 11.7726 8.46083 11.4261C8.54314 11.1429 8.48745 10.8374 8.31036 10.6015C8.13326 10.3657 7.85558 10.2269 7.56064 10.2269H4.07408C2.94836 10.2269 2.0764 9.24198 2.21291 8.12457L2.67451 4.34607C2.84687 2.93521 4.04492 1.87463 5.46636 1.87463H10.4471C11.7651 1.87463 12.8143 2.7624 12.9455 3.94117C13.0681 5.0417 13.1368 6.31791 13.0361 7.53948C12.9344 8.77379 12.6656 9.87198 12.1746 10.6757C11.1094 12.4197 10.6589 14.5152 10.4696 16.2038ZM7.98411 18.5541C8.88589 19.1692 9.94929 19.0905 10.7559 18.6682C11.5566 18.2488 12.2179 17.438 12.3329 16.4127C12.5091 14.8408 12.9161 13.0589 13.7748 11.6531C14.4828 10.494 14.7918 9.06423 14.9047 7.69351C15.0188 6.31004 14.9393 4.90426 14.809 3.73374C14.5579 1.47728 12.5855 -0.000366211 10.4471 -0.000366211H5.46636C3.09744 -0.000366211 1.10063 1.76714 0.813348 4.11873L0.351751 7.89713C0.0787327 10.1319 1.82266 12.1019 4.07408 12.1019H6.26998C6.16236 12.4308 6.05933 12.7794 5.99351 13.1619C5.84379 14.0327 5.90529 14.9673 6.29661 16.3C6.57814 17.2593 7.21601 18.0301 7.98411 18.5541ZM17.772 11.2496C18.8076 11.2496 19.647 10.4102 19.647 9.37463V2.81213C19.647 1.7766 18.8076 0.937134 17.772 0.937134C16.7365 0.937134 15.897 1.7766 15.897 2.81213V9.37463C15.897 10.4102 16.7365 11.2496 17.772 11.2496Z" fill="#538DD1"/>
</svg>
