<svg width="32" height="32" viewBox="0 0 32 32" fill="none" xmlns="http://www.w3.org/2000/svg">
<path d="M11.5 14.5H20.5M11.5 16.5H20.5M11.5 18.5H14.5" stroke="black" stroke-linecap="round"/>
<path d="M11.9843 12.3C12.7828 12.3 13.2851 11.8086 13.2851 10.992C13.2851 10.1736 12.7828 9.68397 11.977 9.68397H10.9906V12.3H11.9843ZM11.6771 11.7146V10.2693H11.9409C12.3619 10.2693 12.5913 10.4391 12.5913 10.992C12.5913 11.543 12.3619 11.7146 11.959 11.7146H11.6771ZM15.9694 10.992C15.9694 10.1212 15.4112 9.64784 14.7048 9.64784C13.9912 9.64784 13.4383 10.1212 13.4365 10.992C13.4383 11.8574 13.9912 12.3361 14.7048 12.3361C15.4112 12.3361 15.9694 11.8628 15.9694 10.992ZM14.1447 10.992C14.1447 10.5096 14.3435 10.2476 14.7048 10.2476C15.0625 10.2476 15.263 10.5096 15.2612 10.992C15.263 11.4725 15.0625 11.7345 14.7048 11.7363C14.3435 11.7345 14.1447 11.4725 14.1447 10.992ZM17.8625 10.6559H18.5599C18.5021 10.0128 18.0305 9.64784 17.3783 9.64784C16.6755 9.64784 16.1227 10.1212 16.1209 10.992C16.1227 11.8592 16.6611 12.3361 17.3783 12.3361C18.1317 12.3361 18.5219 11.8158 18.5599 11.3678L17.8625 11.3605C17.8246 11.5936 17.6584 11.7345 17.3928 11.7363C17.0387 11.7345 16.8291 11.4834 16.8291 10.992C16.8291 10.5241 17.0333 10.2476 17.3964 10.2476C17.6746 10.2476 17.839 10.4102 17.8625 10.6559ZM19.3726 9.68397H18.5993L19.3798 10.992L18.574 12.3H19.3581L19.8134 11.5087H19.8351L20.294 12.3H21.0816L20.2687 10.992L21.0527 9.68397H20.2831L19.8351 10.4644H19.8134L19.3726 9.68397Z" fill="black"/>
<path d="M22.0627 19.9373L17.9373 24.0627C17.5914 24.4086 17.4184 24.5816 17.2166 24.7053C17.0376 24.8149 16.8425 24.8957 16.6385 24.9447C16.4083 25 16.1637 25 15.6745 25H12.2C11.0799 25 10.5198 25 10.092 24.782C9.71569 24.5903 9.40973 24.2843 9.21799 23.908C9 23.4802 9 22.9201 9 21.8V10.2C9 9.0799 9 8.51984 9.21799 8.09202C9.40973 7.71569 9.71569 7.40973 10.092 7.21799C10.5198 7 11.0799 7 12.2 7H19.8C20.9201 7 21.4802 7 21.908 7.21799C22.2843 7.40973 22.5903 7.71569 22.782 8.09202C23 8.51984 23 9.0799 23 10.2V17.6745C23 18.1637 23 18.4083 22.9447 18.6385C22.8957 18.8425 22.8149 19.0376 22.7053 19.2166C22.5816 19.4184 22.4086 19.5914 22.0627 19.9373Z" stroke="black" stroke-width="2"/>
<path d="M17 22.2V23.8412C17 24.2047 17 24.3864 17.0719 24.4706C17.1342 24.5436 17.2278 24.5823 17.3235 24.5748C17.4339 24.5661 17.5624 24.4376 17.8194 24.1806L22.1806 19.8194L22.1806 19.8194C22.4376 19.5624 22.5661 19.4339 22.5748 19.3235C22.5823 19.2278 22.5436 19.1342 22.4706 19.0719C22.3864 19 22.2047 19 21.8412 19H20.2C19.0799 19 18.5198 19 18.092 19.218C17.7157 19.4097 17.4097 19.7157 17.218 20.092C17 20.5198 17 21.0799 17 22.2Z" stroke="black" stroke-width="2" stroke-linecap="round"/>
</svg>
