<svg width="32" height="32" viewBox="0 0 32 32" fill="none" xmlns="http://www.w3.org/2000/svg">
<path fill-rule="evenodd" clip-rule="evenodd" d="M16 21C15.4477 21 15 20.5523 15 20V7C15 6.44771 15.4477 6 16 6C16.5523 6 17 6.44771 17 7V20C17 20.5523 16.5523 21 16 21Z" fill="#ED3A3A"/>
<path fill-rule="evenodd" clip-rule="evenodd" d="M16.9271 21.0247C16.3245 21.2205 15.6755 21.2205 15.0729 21.0247C14.6691 20.8935 14.3406 20.6659 14.0382 20.4092C13.7517 20.1659 13.4301 19.8444 13.0574 19.4716L9.29289 15.7071C8.90237 15.3166 8.90237 14.6834 9.29289 14.2929C9.68342 13.9024 10.3166 13.9024 10.7071 14.2929L14.4444 18.0301C14.852 18.4378 15.1158 18.7005 15.3326 18.8845C15.5403 19.0609 15.6382 19.1055 15.691 19.1226C15.8918 19.1879 16.1082 19.1879 16.309 19.1226C16.3618 19.1055 16.4597 19.0609 16.6674 18.8845C16.8842 18.7005 17.1479 18.4378 17.5556 18.0301L21.2929 14.2929C21.6834 13.9024 22.3166 13.9024 22.7071 14.2929C23.0976 14.6834 23.0976 15.3166 22.7071 15.7071L18.9426 19.4716C18.5699 19.8444 18.2483 20.166 17.9618 20.4092C17.6594 20.6659 17.3309 20.8935 16.9271 21.0247Z" fill="#ED3A3A"/>
<path fill-rule="evenodd" clip-rule="evenodd" d="M7 19C7.55228 19 8 19.4477 8 20V22C8 23.1046 8.89543 24 10 24H22C23.1046 24 24 23.1046 24 22V20C24 19.4477 24.4477 19 25 19C25.5523 19 26 19.4477 26 20V22C26 24.2091 24.2091 26 22 26H10C7.79086 26 6 24.2091 6 22V20C6 19.4477 6.44772 19 7 19Z" fill="#ED3A3A"/>
</svg>
