<svg width="32" height="32" viewBox="0 0 32 32" fill="none" xmlns="http://www.w3.org/2000/svg">
<path fill-rule="evenodd" clip-rule="evenodd" d="M18.8385 6H10.1615H10.1614C9.63428 5.99998 9.17953 5.99997 8.80497 6.03057C8.40963 6.06287 8.01641 6.13419 7.63803 6.32698C7.07354 6.6146 6.6146 7.07354 6.32698 7.63803C6.13419 8.01641 6.06287 8.40963 6.03057 8.80497C5.99997 9.17954 5.99998 9.63429 6 10.1614V10.1615V18.8385V18.8386C5.99998 19.3657 5.99997 19.8205 6.03057 20.195C6.06287 20.5904 6.13419 20.9836 6.32698 21.362C6.6146 21.9265 7.07354 22.3854 7.63803 22.673C8.01641 22.8658 8.40963 22.9371 8.80497 22.9694C8.87294 22.975 8.94355 22.9795 9.01675 22.9833C9.02047 23.0565 9.02502 23.1271 9.03057 23.195C9.06287 23.5904 9.13419 23.9836 9.32698 24.362C9.6146 24.9265 10.0735 25.3854 10.638 25.673C11.0164 25.8658 11.4096 25.9371 11.805 25.9694C12.1795 26 12.6343 26 13.1614 26H20.2413C21.0463 26 21.7106 26 22.2518 25.9558C22.8139 25.9099 23.3306 25.8113 23.816 25.564C24.5686 25.1805 25.1805 24.5686 25.564 23.816C25.8113 23.3306 25.9099 22.8139 25.9558 22.2518C26 21.7106 26 21.0463 26 20.2413V13.1614C26 12.6343 26 12.1796 25.9694 11.805C25.9371 11.4096 25.8658 11.0164 25.673 10.638C25.3854 10.0736 24.9265 9.61461 24.362 9.32699C23.9836 9.1342 23.5904 9.06288 23.195 9.03058C23.1271 9.02503 23.0565 9.02049 22.9832 9.01677C22.9795 8.94356 22.975 8.87295 22.9694 8.80497C22.9371 8.40963 22.8658 8.01641 22.673 7.63803C22.3854 7.07354 21.9265 6.6146 21.362 6.32698C20.9836 6.13419 20.5904 6.06287 20.195 6.03057C19.8205 5.99997 19.3657 5.99998 18.8386 6H18.8385ZM23 11.0214V18.8386C23 19.3657 23 19.8205 22.9694 20.195C22.9371 20.5904 22.8658 20.9836 22.673 21.362C22.3854 21.9265 21.9265 22.3854 21.362 22.673C20.9836 22.8658 20.5904 22.9371 20.195 22.9694C19.8205 23 19.3657 23 18.8386 23H11.0214C11.0222 23.0109 11.0231 23.0216 11.0239 23.0322C11.0461 23.3038 11.0838 23.4046 11.109 23.454C11.2049 23.6422 11.3578 23.7951 11.546 23.891C11.5955 23.9162 11.6962 23.9539 11.9678 23.9761C12.2512 23.9992 12.6234 24 13.2 24H20.2C21.0566 24 21.6389 23.9992 22.089 23.9625C22.5274 23.9266 22.7516 23.8617 22.908 23.782C23.2843 23.5903 23.5903 23.2843 23.782 22.908C23.8617 22.7516 23.9266 22.5274 23.9624 22.089C23.9992 21.6389 24 21.0566 24 20.2V13.2C24 12.6235 23.9992 12.2512 23.9761 11.9678C23.9539 11.6962 23.9162 11.5955 23.891 11.546C23.7951 11.3579 23.6422 11.2049 23.454 11.109C23.4045 11.0838 23.3038 11.0461 23.0322 11.0239C23.0216 11.0231 23.0108 11.0222 23 11.0214ZM8.54601 8.109C8.59545 8.0838 8.69617 8.04612 8.96784 8.02393C9.25117 8.00078 9.62345 8 10.2 8H18.8C19.3766 8 19.7488 8.00078 20.0322 8.02393C20.3038 8.04612 20.4045 8.0838 20.454 8.109C20.6422 8.20487 20.7951 8.35785 20.891 8.54601C20.9162 8.59546 20.9539 8.69617 20.9761 8.96784C20.9992 9.25117 21 9.62345 21 10.2V18.8C21 19.3766 20.9992 19.7488 20.9761 20.0322C20.9539 20.3038 20.9162 20.4045 20.891 20.454C20.7951 20.6422 20.6422 20.7951 20.454 20.891C20.4045 20.9162 20.3038 20.9539 20.0322 20.9761C19.7488 20.9992 19.3766 21 18.8 21H10.2C9.62345 21 9.25117 20.9992 8.96784 20.9761C8.69617 20.9539 8.59545 20.9162 8.54601 20.891C8.35785 20.7951 8.20487 20.6422 8.10899 20.454C8.0838 20.4045 8.04612 20.3038 8.02393 20.0322C8.00078 19.7488 8 19.3766 8 18.8V10.2C8 9.62345 8.00078 9.25117 8.02393 8.96784C8.04612 8.69617 8.0838 8.59546 8.10899 8.54601C8.20487 8.35785 8.35785 8.20487 8.54601 8.109Z" fill="black"/>
</svg>
