<svg width="15" height="15" viewBox="0 0 15 15" fill="none" xmlns="http://www.w3.org/2000/svg">
<g clip-path="url(#clip0_1394_867)">
<path d="M4.04266 15C4.17877 15 4.30241 14.9649 4.41358 14.8947C4.52474 14.8245 4.66199 14.7148 4.82533 14.5654L7.28221 12.3246L11.883 12.3314C12.559 12.3314 13.1285 12.2103 13.5913 11.9681C14.054 11.7259 14.4045 11.3739 14.6427 10.9122C14.8809 10.4504 15 9.88682 15 9.22134V4.01991C15 3.35445 14.8809 2.79085 14.6427 2.32911C14.4045 1.86736 14.054 1.51539 13.5913 1.2732C13.1285 1.03101 12.559 0.909912 11.883 0.909912H3.11707C2.44102 0.909912 1.8716 1.03101 1.4088 1.2732C0.946008 1.51539 0.595509 1.86736 0.357305 2.32911C0.119102 2.79085 0 3.35445 0 4.01991V9.22134C0 9.88682 0.119102 10.4504 0.357305 10.9122C0.595509 11.3739 0.946008 11.7248 1.4088 11.9647C1.8716 12.2046 2.44102 12.3246 3.11707 12.3246H3.43694V14.3006C3.43694 14.5133 3.48912 14.6831 3.59347 14.8098C3.69783 14.9366 3.84756 15 4.04266 15ZM7.50683 7.87684C7.14384 7.87684 6.95781 7.69123 6.94874 7.32001L6.86027 3.61928C6.85573 3.44273 6.91358 3.29561 7.03383 3.1779C7.15407 3.06021 7.30946 3.00136 7.5 3.00136C7.68603 3.00136 7.84144 3.06134 7.96624 3.1813C8.09099 3.30126 8.1511 3.44952 8.1466 3.62607L8.0445 7.32001C8.03995 7.69123 7.86072 7.87684 7.50683 7.87684ZM7.50683 10.1516C7.30263 10.1516 7.12455 10.0815 6.97257 9.94115C6.82057 9.80079 6.74456 9.62876 6.74456 9.42508C6.74456 9.22588 6.81943 9.05386 6.96916 8.909C7.1189 8.76413 7.29813 8.6917 7.50683 8.6917C7.71098 8.6917 7.88907 8.763 8.04109 8.90559C8.19306 9.04818 8.26905 9.22134 8.26905 9.42508C8.26905 9.62876 8.19306 9.80079 8.04109 9.94115C7.88907 10.0815 7.71098 10.1516 7.50683 10.1516Z" fill="#646464"/>
</g>
<defs>
<clipPath id="clip0_1394_867">
<rect width="15" height="15" fill="white"/>
</clipPath>
</defs>
</svg>
