<svg width="32" height="32" viewBox="0 0 32 32" fill="none" xmlns="http://www.w3.org/2000/svg">
<rect x="7" y="10" width="18" height="13" rx="2" stroke="black" stroke-width="2"/>
<path d="M20 13C17 13 16 9 13 9H10.2C9.0799 9 8.51984 9 8.09202 9.21799C7.71569 9.40973 7.40973 9.71569 7.21799 10.092C7 10.5198 7 11.0799 7 12.2V19.8C7 20.9201 7 21.4802 7.21799 21.908C7.40973 22.2843 7.71569 22.5903 8.09202 22.782C8.51984 23 9.0799 23 10.2 23H21.8C22.9201 23 23.4802 23 23.908 22.782C24.2843 22.5903 24.5903 22.2843 24.782 21.908C25 21.4802 25 20.9201 25 19.8V16.2C25 15.0799 25 14.5198 24.782 14.092C24.5903 13.7157 24.2843 13.4097 23.908 13.218C23.4802 13 22.9205 13 21.801 13H20Z" fill="white" stroke="black" stroke-width="2" stroke-linecap="round" stroke-linejoin="round"/>
</svg>
