<svg width="32" height="32" viewBox="0 0 32 32" fill="none" xmlns="http://www.w3.org/2000/svg">
<path fill-rule="evenodd" clip-rule="evenodd" d="M16.5417 7.95093C16.1875 7.85124 15.8125 7.85124 15.4583 7.95093C15.3077 7.99328 15.1266 8.07842 14.8282 8.28765C14.5196 8.50411 14.1465 8.80851 13.5937 9.26083L9 13.0193V21.8C9 22.3766 9.00078 22.7488 9.02393 23.0322C9.04612 23.3038 9.0838 23.4045 9.109 23.454C9.20487 23.6422 9.35785 23.7951 9.54601 23.891C9.59546 23.9162 9.69617 23.9539 9.96784 23.9761C10.2512 23.9992 10.6234 24 11.2 24H12V18.968V18.968C12 18.5293 12 18.1509 12.0214 17.8376C12.0439 17.5078 12.0934 17.1779 12.2284 16.852C12.5328 16.1169 13.1169 15.5328 13.852 15.2284C14.1779 15.0934 14.5078 15.0439 14.8376 15.0214C15.1509 15 15.5293 15 15.968 15H15.968H16.032H16.032C16.4707 15 16.8491 15 17.1624 15.0214C17.4922 15.0439 17.8221 15.0934 18.1481 15.2284C18.8831 15.5328 19.4672 16.1169 19.7716 16.852C19.9066 17.1779 19.9561 17.5078 19.9787 17.8376C20 18.1509 20 18.5294 20 18.968L20 24H20.8C21.3766 24 21.7488 23.9992 22.0322 23.9761C22.3038 23.9539 22.4045 23.9162 22.454 23.891C22.6422 23.7951 22.7951 23.6422 22.891 23.454C22.9162 23.4045 22.9539 23.3038 22.9761 23.0322C22.9992 22.7488 23 22.3766 23 21.8V13.0193L18.4063 9.26083C17.8535 8.80851 17.4804 8.50411 17.1718 8.28765C16.8734 8.07842 16.6923 7.99328 16.5417 7.95093ZM20 26H12H11.1615C10.6343 26 10.1796 26 9.80497 25.9694C9.40963 25.9371 9.01641 25.8658 8.63803 25.673C8.07354 25.3854 7.6146 24.9265 7.32698 24.362C7.13419 23.9836 7.06287 23.5904 7.03057 23.195C6.99997 22.8205 6.99998 22.3657 7 21.8385L7 14.6557L5.63324 15.7739C5.20579 16.1237 4.57577 16.0607 4.22604 15.6332C3.87631 15.2058 3.93932 14.5757 4.36676 14.226L12.3554 7.68984L12.3555 7.68981C12.8729 7.26643 13.3032 6.91435 13.6798 6.65021C14.0736 6.37404 14.4645 6.1529 14.9165 6.02569C15.6251 5.82632 16.3749 5.82632 17.0835 6.02569C17.5355 6.1529 17.9264 6.37404 18.3202 6.65021C18.6968 6.91435 19.1271 7.26645 19.6446 7.68984L19.6446 7.68985L27.6332 14.226C28.0607 14.5757 28.1237 15.2058 27.774 15.6332C27.4242 16.0607 26.7942 16.1237 26.3668 15.7739L25 14.6557V21.8386C25 22.3657 25 22.8205 24.9694 23.195C24.9371 23.5904 24.8658 23.9836 24.673 24.362C24.3854 24.9265 23.9265 25.3854 23.362 25.673C22.9836 25.8658 22.5904 25.9371 22.195 25.9694C21.8205 26 21.3657 26 20.8385 26H20ZM18 24V19C18 18.5204 17.9995 18.2107 17.9833 17.9738C17.9677 17.7458 17.9411 17.6589 17.9239 17.6173C17.8224 17.3723 17.6277 17.1776 17.3827 17.0761C17.3411 17.0589 17.2542 17.0323 17.0262 17.0167C16.7893 17.0005 16.4796 17 16 17C15.5204 17 15.2107 17.0005 14.9738 17.0167C14.7458 17.0323 14.6589 17.0589 14.6173 17.0761C14.3723 17.1776 14.1776 17.3723 14.0761 17.6173C14.0589 17.6589 14.0323 17.7458 14.0167 17.9738C14.0005 18.2107 14 18.5204 14 19V24H18Z" fill="black"/>
</svg>
