<svg width="32" height="32" viewBox="0 0 32 32" fill="none" xmlns="http://www.w3.org/2000/svg">
<path d="M18.1407 7.92662C17.3841 7.24565 17.0057 6.90517 16.5779 6.77603C16.201 6.66229 15.799 6.66229 15.4221 6.77603C14.9943 6.90517 14.6159 7.24565 13.8593 7.92662L8.05931 13.1466C7.66925 13.4977 7.47422 13.6732 7.33433 13.8837C7.21035 14.0702 7.11858 14.2763 7.06287 14.4932C7 14.738 7 15.0004 7 15.5252V21.8C7 22.9201 7 23.4802 7.21799 23.908C7.40973 24.2843 7.71569 24.5903 8.09202 24.782C8.51984 25 9.07989 25 10.2 25H21.8C22.9201 25 23.4802 25 23.908 24.782C24.2843 24.5903 24.5903 24.2843 24.782 23.908C25 23.4802 25 22.9201 25 21.8V15.5252C25 15.0004 25 14.738 24.9371 14.4932C24.8814 14.2763 24.7897 14.0702 24.6657 13.8837C24.5258 13.6732 24.3307 13.4977 23.9407 13.1466L18.1407 7.92662Z" stroke="black" stroke-width="2" stroke-linejoin="round"/>
<path d="M13 19C13 18.0681 13 17.6022 13.1522 17.2346C13.3552 16.7446 13.7446 16.3552 14.2346 16.1522C14.6022 16 15.0681 16 16 16V16C16.9319 16 17.3978 16 17.7654 16.1522C18.2554 16.3552 18.6448 16.7446 18.8478 17.2346C19 17.6022 19 18.0681 19 19V25H13V19Z" stroke="black" stroke-width="2"/>
</svg>
