<svg width="36" height="36" viewBox="0 0 36 36" fill="none" xmlns="http://www.w3.org/2000/svg">
<g clip-path="url(#clip0_1220_173)">
<path fill-rule="evenodd" clip-rule="evenodd" d="M18.6095 8.94483C18.211 8.83268 17.7891 8.83268 17.3906 8.94483C17.2212 8.99248 17.0175 9.08826 16.6818 9.32364C16.3346 9.56716 15.9149 9.90961 15.293 10.4185L6.33743 17.7458C5.85655 18.1392 5.14778 18.0683 4.75433 17.5873C4.36088 17.1065 4.43177 16.3978 4.91264 16.0044L13.8999 8.6511C14.482 8.17479 14.9661 7.77868 15.3898 7.48152C15.8328 7.17083 16.2726 6.92205 16.7811 6.77894C17.5783 6.55464 18.4218 6.55464 19.219 6.77894C19.7275 6.92205 20.1672 7.17083 20.6103 7.48152C21.0339 7.77869 21.518 8.1748 22.1002 8.65112L31.0874 16.0044C31.5683 16.3978 31.6392 17.1065 31.2458 17.5873C30.8523 18.0683 30.1435 18.1392 29.6627 17.7458L20.7071 10.4185C20.0852 9.90961 19.6655 9.56716 19.3183 9.32364C18.9826 9.08826 18.7789 8.99248 18.6095 8.94483Z" fill="#333333"/>
<path fill-rule="evenodd" clip-rule="evenodd" d="M9 13.5C9.62133 13.5 10.125 14.0037 10.125 14.625V24.525C10.125 25.1737 10.1259 25.5924 10.1519 25.9112C10.1769 26.2168 10.2193 26.3301 10.2476 26.3858C10.3555 26.5975 10.5276 26.7695 10.7393 26.8774C10.7949 26.9057 10.9082 26.9481 11.2138 26.9731C11.5326 26.9991 11.9513 27 12.6 27H23.4C24.0487 27 24.4674 26.9991 24.7862 26.9731C25.0918 26.9481 25.2051 26.9057 25.2608 26.8774C25.4725 26.7695 25.6445 26.5975 25.7524 26.3858C25.7807 26.3301 25.8231 26.2168 25.8481 25.9112C25.8741 25.5924 25.875 25.1737 25.875 24.525V14.625C25.875 14.0037 26.3787 13.5 27 13.5C27.6213 13.5 28.125 14.0037 28.125 14.625V24.5684C28.125 25.1614 28.125 25.6731 28.0906 26.0944C28.0542 26.5392 27.974 26.9815 27.7571 27.4072C27.4336 28.0423 26.9173 28.5586 26.2823 28.8821C25.8566 29.099 25.4142 29.1792 24.9694 29.2156C24.5481 29.25 24.0364 29.25 23.4433 29.25H12.5567C11.9636 29.25 11.4521 29.25 11.0306 29.2156C10.5858 29.1792 10.1435 29.099 9.71778 28.8821C9.08273 28.5586 8.56643 28.0423 8.24285 27.4072C8.02597 26.9815 7.94573 26.5392 7.90939 26.0944C7.87497 25.6731 7.87498 25.1614 7.875 24.5683V14.625C7.875 14.0037 8.37869 13.5 9 13.5Z" fill="#333333"/>
<path fill-rule="evenodd" clip-rule="evenodd" d="M17.964 16.875H18.036C18.5294 16.875 18.9552 16.875 19.3077 16.8991C19.6787 16.9244 20.0499 16.9801 20.4166 17.132C21.2435 17.4744 21.9006 18.1315 22.2431 18.9585C22.3949 19.3251 22.4506 19.6963 22.476 20.0673C22.5 20.4198 22.5 20.8456 22.5 21.339V29.25H13.5V21.339C13.5 20.8456 13.5 20.4198 13.5241 20.0673C13.5494 19.6963 13.6051 19.3251 13.757 18.9585C14.0994 18.1315 14.7565 17.4744 15.5835 17.132C15.9501 16.9801 16.3213 16.9244 16.6923 16.8991C17.0448 16.875 17.4706 16.875 17.964 16.875ZM16.8455 19.1438C16.589 19.1613 16.4913 19.1913 16.4445 19.2106C16.1688 19.3248 15.9498 19.5438 15.8356 19.8195C15.8163 19.8663 15.7863 19.964 15.7688 20.2205C15.7506 20.487 15.75 20.8354 15.75 21.375V27H20.25V21.375C20.25 20.8354 20.2494 20.487 20.2312 20.2205C20.2137 19.964 20.1837 19.8663 20.1644 19.8195C20.0502 19.5438 19.8312 19.3248 19.5555 19.2106C19.5087 19.1913 19.411 19.1613 19.1545 19.1438C18.888 19.1256 18.5395 19.125 18 19.125C17.4604 19.125 17.112 19.1256 16.8455 19.1438Z" fill="#333333"/>
</g>
<defs>
<clipPath id="clip0_1220_173">
<rect width="36" height="36" fill="white"/>
</clipPath>
</defs>
</svg>
