<svg width="32" height="32" viewBox="0 0 32 32" fill="none" xmlns="http://www.w3.org/2000/svg">
<path d="M24.1807 15.3652L14.8222 8.66304L14.8221 8.663C14.6496 8.53948 14.5634 8.47772 14.4786 8.42123C13.1962 7.56721 11.6344 7.23924 10.1169 7.50525C10.0165 7.52285 9.91265 7.5447 9.70502 7.58842L8.73333 7.79298C5.61822 8.4488 3.69167 11.5847 4.51461 14.6599C4.82944 15.8363 5.52245 16.8766 6.48682 17.6204L16.1225 25.0519C16.3776 25.2487 16.5051 25.3471 16.6345 25.4364C17.5489 26.0682 18.6209 26.4336 19.7309 26.4918C19.8878 26.5 20.0557 26.5 20.3915 26.5C20.5228 26.5 20.5885 26.5 20.6507 26.4987C21.2121 26.4871 21.7691 26.3967 22.3053 26.2302C22.3647 26.2118 22.424 26.192 22.5427 26.1524L22.8202 26.0599C23.9152 25.6949 24.8768 25.0121 25.5824 24.0986C26.4926 22.9201 26.9158 21.4373 26.7648 19.9559L26.7482 19.7932L26.7482 19.7932C26.7382 19.6953 26.7332 19.6463 26.7277 19.5994C26.5339 17.9553 25.6694 16.4643 24.3387 15.4793C24.3008 15.4512 24.2608 15.4226 24.1807 15.3652Z" fill="#FFD99F" stroke="black"/>
<path d="M10.9882 5.29529L10.9043 5.26172C9.99218 4.89687 9 5.56862 9 6.55099C9 6.84289 9.09122 7.12817 9.26599 7.36196C14.3832 14.2072 22.5534 18.5109 26.2734 19.916C26.4253 19.9734 26.5831 20 26.7455 20H27.3109C28.0869 20 28.5917 19.1833 28.2446 18.4892C28.0914 18.1828 27.7976 17.9711 27.4585 17.9226L26.2117 17.7445C25.1974 17.5996 24.4004 16.8026 24.2555 15.7883C24.1054 14.7381 23.2581 13.9258 22.2025 13.8203L20.9214 13.6921C19.736 13.5736 18.7086 12.8202 18.2394 11.7252C17.7814 10.6567 16.7911 9.91138 15.6376 9.7672L15.4307 9.74134C14.2245 9.59056 13.1735 8.84693 12.6298 7.75967L11.7465 5.99301C11.5877 5.67543 11.3179 5.42716 10.9882 5.29529Z" fill="#C4FF65" stroke="black" stroke-linecap="round"/>
<path d="M5.17864 9H5.88837C6.28663 9 6.67543 9.12145 7.00288 9.34815L25.1507 21.912C25.6999 22.2922 26.1003 22.851 26.2838 23.4932L26.6446 24.756C26.8465 25.4627 26.4811 26.2076 25.7987 26.4805C25.0764 26.7694 24.2555 26.4294 23.949 25.7143L23.5254 24.7258C23.1965 23.9585 22.5109 23.4022 21.6922 23.2384L20.1037 22.9207C18.749 22.6498 17.5417 21.889 16.7128 20.7837L16.1847 20.0796C15.4152 19.0536 14.3372 18.3012 13.1088 17.9326L12.2875 17.6863C10.8354 17.2506 9.64576 16.203 9.03004 14.8176L8.72887 14.14C8.26886 13.1049 7.35778 12.3394 6.25895 12.0647L4.84487 11.7112C4.32894 11.5822 3.9335 11.1675 3.82921 10.646C3.6589 9.79449 4.31022 9 5.17864 9Z" fill="#C4FF65" stroke="black" stroke-linecap="round"/>
<path d="M6.69383 6.5C9.3605 9.66667 17.2938 17.3 27.6938 22.5" stroke="black" stroke-width="5" stroke-linecap="round"/>
<path d="M6.69383 6.5C9.3605 9.66667 17.2938 17.3 27.6938 22.5" stroke="#FF5656" stroke-width="3" stroke-linecap="round"/>
<path d="M5.5 10.5C7.33333 9 11.4 6.4 13 8C15 10 6.5 12 9.5 14C12.5 16 16.5 11 19 13C21.5 15 13 17 16 18.5C19 20 23 14.5 25.5 16.5C27.5 18.1 23.5 21 23 23.5" stroke="#DD0000" stroke-linecap="round"/>
<path d="M7 12.0026C8.83333 10.5026 12.9 7.90261 14.5 9.50261C16.5 11.5026 8 13.5026 11 15.5026C14 17.5026 18 12.5026 20.5 14.5026C23 16.5026 14.5 18.5026 17.5 20.0026C20.5 21.5026 24.5 16.0026 27 18.0026C29 19.6026 25 22.5026 24.5 25.0026" stroke="#FAFF00" stroke-linecap="round"/>
</svg>
