<svg width="12" height="11" viewBox="0 0 12 11" fill="none" xmlns="http://www.w3.org/2000/svg">
<path d="M3.30553 11C3.43811 11 3.55994 10.9666 3.67102 10.8999C3.78211 10.8331 3.91827 10.733 4.07951 10.5994L5.93381 9.06236H9.3845C9.91841 9.06236 10.3681 8.97307 10.7336 8.79448C11.0991 8.61592 11.3758 8.35641 11.564 8.01594C11.7521 7.67548 11.8462 7.2599 11.8462 6.76921V2.934C11.8462 2.44333 11.7521 2.02777 11.564 1.6873C11.3758 1.34684 11.0991 1.08732 10.7336 0.908741C10.3681 0.730165 9.91841 0.640877 9.3845 0.640877H2.46168C1.92778 0.640877 1.47808 0.730165 1.11259 0.908741C0.747104 1.08732 0.470299 1.34684 0.28218 1.6873C0.0940599 2.02777 0 2.44333 0 2.934V6.76921C0 7.2599 0.0940599 7.67548 0.28218 8.01594C0.470299 8.35641 0.747104 8.61592 1.11259 8.79448C1.47808 8.97307 1.92778 9.06236 2.46168 9.06236H2.71968V10.3641C2.71968 10.5577 2.77074 10.7121 2.87286 10.8273C2.97498 10.9424 3.11921 11 3.30553 11ZM3.5259 10.0838V8.63175C3.5259 8.49489 3.49544 8.39809 3.43453 8.34135C3.37362 8.28462 3.2697 8.25625 3.12279 8.25625H2.46168C1.91703 8.25625 1.51481 8.13024 1.25503 7.87823C0.995245 7.62622 0.865354 7.25489 0.865354 6.76424V2.934C0.865354 2.44667 0.995245 2.077 1.25503 1.82499C1.51481 1.57298 1.91703 1.44698 2.46168 1.44698H9.3845C9.92557 1.44698 10.3269 1.57298 10.5885 1.82499C10.85 2.077 10.9808 2.44667 10.9808 2.934V6.76424C10.9808 7.25489 10.85 7.62622 10.5885 7.87823C10.3269 8.13024 9.92557 8.25625 9.3845 8.25625H5.90161C5.7511 8.25625 5.62926 8.27127 5.5361 8.30131C5.44294 8.33136 5.34619 8.39478 5.24586 8.49157L3.5259 10.0838Z" fill="#333333"/>
</svg>
