<svg width="21" height="22" viewBox="0 0 21 22" fill="none" xmlns="http://www.w3.org/2000/svg">
<path d="M0.530396 16.8486C0.530396 17.2389 0.672308 17.5511 0.956134 17.7853C1.23996 18.0194 1.63377 18.1364 2.13756 18.1364H6.6291C6.65749 18.8247 6.84375 19.4598 7.18789 20.0417C7.53202 20.6235 7.99501 21.0936 8.57686 21.4519C9.1587 21.8103 9.82214 21.9894 10.5672 21.9894C11.3193 21.9894 11.9863 21.812 12.5681 21.4572C13.15 21.1024 13.613 20.6324 13.9571 20.047C14.3013 19.4616 14.4875 18.8247 14.5159 18.1364H19.0074C19.5113 18.1364 19.9051 18.0194 20.1889 17.7853C20.4727 17.5511 20.6146 17.2389 20.6146 16.8486C20.6146 16.4938 20.5117 16.1497 20.3059 15.8162C20.1002 15.4827 19.8429 15.1563 19.5343 14.837C19.2256 14.5177 18.9188 14.1984 18.6137 13.8791C18.3795 13.6378 18.1968 13.322 18.0655 12.9318C17.9343 12.5415 17.8367 12.1265 17.7728 11.6866C17.7089 11.2466 17.6628 10.8209 17.6345 10.4093C17.6132 9.01147 17.466 7.78215 17.1928 6.72135C16.9196 5.66055 16.4956 4.77537 15.9209 4.06581C15.3461 3.35624 14.5869 2.83117 13.6431 2.49058C13.4657 1.7952 13.1056 1.20626 12.5628 0.723755C12.02 0.241252 11.3548 0 10.5672 0C9.78667 0 9.125 0.241252 8.58219 0.723755C8.03936 1.20626 7.67925 1.7952 7.50186 2.49058C6.55815 2.83117 5.79714 3.35624 5.21885 4.06581C4.64055 4.77537 4.21659 5.66055 3.94695 6.72135C3.67731 7.78215 3.53185 9.01147 3.51057 10.4093C3.48218 10.8209 3.43606 11.2466 3.3722 11.6866C3.30834 12.1265 3.21078 12.5415 3.07951 12.9318C2.94824 13.322 2.76552 13.6378 2.53137 13.8791C2.22626 14.1984 1.91937 14.5177 1.61071 14.837C1.30205 15.1563 1.04483 15.4827 0.839056 15.8162C0.633282 16.1497 0.530396 16.4938 0.530396 16.8486ZM2.59523 16.5293V16.4016C2.65909 16.3022 2.76552 16.1692 2.91453 16.0024C3.06354 15.8357 3.23207 15.653 3.4201 15.4543C3.60814 15.2556 3.79439 15.0534 3.97888 14.8476C4.17046 14.6348 4.33721 14.3882 4.47913 14.1079C4.62104 13.8276 4.74166 13.5101 4.841 13.1553C4.94034 12.8005 5.01839 12.4067 5.07516 11.9739C5.13192 11.541 5.1745 11.0656 5.20288 10.5477C5.23126 9.00083 5.39091 7.77328 5.68183 6.86504C5.97275 5.9568 6.36124 5.28094 6.8473 4.83746C7.33334 4.39398 7.88148 4.08709 8.49171 3.9168C8.62653 3.88842 8.72941 3.83697 8.80037 3.76247C8.87133 3.68796 8.91036 3.5833 8.91745 3.44848C8.93874 2.89502 9.09661 2.44268 9.39108 2.09145C9.68556 1.74021 10.0776 1.56459 10.5672 1.56459C11.0639 1.56459 11.4595 1.74021 11.754 2.09145C12.0484 2.44268 12.2063 2.89502 12.2275 3.44848C12.2275 3.5833 12.2648 3.68796 12.3394 3.76247C12.4138 3.83697 12.5149 3.88842 12.6427 3.9168C13.2529 4.08709 13.801 4.39398 14.2871 4.83746C14.7731 5.28094 15.1634 5.9568 15.4579 6.86504C15.7524 7.77328 15.9138 9.00083 15.9421 10.5477C15.9634 11.0656 16.0042 11.541 16.0645 11.9739C16.1248 12.4067 16.2029 12.8005 16.2987 13.1553C16.3945 13.5101 16.5133 13.8276 16.6552 14.1079C16.7971 14.3882 16.9639 14.6348 17.1555 14.8476C17.3471 15.0534 17.5369 15.2556 17.725 15.4543C17.913 15.653 18.0798 15.8357 18.2252 16.0024C18.3706 16.1692 18.4752 16.3022 18.5391 16.4016V16.5293H2.59523ZM8.28948 18.1364H12.8555C12.813 18.8602 12.5823 19.4332 12.1637 19.8554C11.7451 20.2776 11.2129 20.4886 10.5672 20.4886C9.92858 20.4886 9.39818 20.2776 8.97599 19.8554C8.5538 19.4332 8.32496 18.8602 8.28948 18.1364Z" fill="#333333"/>
</svg>
