<svg width="11" height="11" viewBox="0 0 11 11" fill="none" xmlns="http://www.w3.org/2000/svg">
<path d="M0 7.25096C0 7.6501 0.0597072 8.02628 0.179122 8.3795C0.298536 8.73268 0.46492 9.0447 0.678274 9.31556C0.891629 9.58641 1.13762 9.79865 1.41626 9.95228C1.69489 10.1059 1.99183 10.1827 2.30709 10.1827H3.88813C4.2002 10.3474 4.54571 10.4765 4.92467 10.57C5.30361 10.6634 5.70643 10.7102 6.13314 10.7102H6.79228C7.09162 10.7102 7.36628 10.7006 7.61625 10.6816C7.86623 10.6626 8.0756 10.6325 8.24438 10.5914C8.57555 10.509 8.83746 10.3609 9.03011 10.1471C9.22276 9.93327 9.31908 9.68064 9.31908 9.38922C9.31908 9.27517 9.29997 9.16113 9.26176 9.04712C9.42737 8.92674 9.55476 8.78022 9.64391 8.60755C9.73306 8.43492 9.77763 8.24882 9.77763 8.04927C9.77763 7.84653 9.74101 7.66597 9.66778 7.50757C9.77923 7.3967 9.86602 7.26286 9.92813 7.10606C9.99022 6.94925 10.0213 6.78374 10.0213 6.60952C10.0213 6.49864 10.0077 6.38698 9.98067 6.27452C9.9536 6.16205 9.91459 6.06307 9.86362 5.97756C10.0101 5.77483 10.0833 5.52616 10.0833 5.23156C10.0833 4.99713 10.0268 4.7833 9.9138 4.59007C9.80075 4.39684 9.64868 4.24399 9.4576 4.13154C9.26655 4.01908 9.05319 3.96285 8.81754 3.96285H7.00725C6.94992 3.96285 6.90375 3.95018 6.86873 3.92484C6.83368 3.8995 6.81615 3.86307 6.81615 3.81556C6.81615 3.68568 6.85756 3.51858 6.94039 3.31426C7.02318 3.10994 7.11791 2.88503 7.22457 2.63952C7.33126 2.39403 7.426 2.1414 7.50879 1.88164C7.59159 1.62189 7.63298 1.37164 7.63298 1.13089C7.63298 0.912312 7.58521 0.717496 7.48967 0.546438C7.39413 0.375379 7.26436 0.241541 7.10038 0.144925C6.93639 0.0483083 6.74772 0 6.53437 0C6.29871 0 6.09649 0.0649389 5.92771 0.194817C5.75896 0.324694 5.59816 0.536933 5.44529 0.831532C5.29881 1.10713 5.14358 1.37955 4.9796 1.64881C4.81559 1.91807 4.63805 2.1905 4.44699 2.46609C4.25593 2.74169 4.04417 3.03075 3.81171 3.33327C3.57925 3.63578 3.32131 3.95969 3.0379 4.30497H2.12557C1.83261 4.30497 1.55716 4.381 1.29923 4.53305C1.04129 4.6851 0.815201 4.89655 0.620954 5.16738C0.426707 5.43824 0.274653 5.75185 0.164792 6.10821C0.0549306 6.46457 0 6.84549 0 7.25096ZM2.77519 7.22721C2.77519 6.88509 2.80385 6.57624 2.86117 6.30064C2.91849 6.02505 3.01163 5.75817 3.1406 5.5C3.26957 5.24183 3.44232 4.96861 3.65886 4.68035C3.89769 4.36357 4.1596 4.02304 4.4446 3.65875C4.72961 3.29446 5.0154 2.90483 5.30198 2.48985C5.5886 2.07488 5.85133 1.63139 6.09015 1.1594C6.1793 0.978834 6.25891 0.860043 6.32898 0.803024C6.39903 0.746005 6.47704 0.717496 6.56303 0.717496C6.66809 0.717496 6.75247 0.753133 6.81615 0.824409C6.87987 0.895681 6.91172 0.99784 6.91172 1.13089C6.91172 1.32412 6.87033 1.53636 6.78754 1.7676C6.70471 1.99885 6.60997 2.23643 6.50331 2.48035C6.39665 2.72427 6.3019 2.96105 6.21908 3.19072C6.13629 3.42038 6.09489 3.62866 6.09489 3.81556C6.09489 4.08482 6.19361 4.29626 6.39105 4.4499C6.5885 4.60353 6.82892 4.68035 7.11231 4.68035H8.81754C8.9736 4.68035 9.10336 4.73341 9.20683 4.83953C9.31033 4.94564 9.36207 5.07631 9.36207 5.23156C9.36207 5.4343 9.27451 5.6196 9.09937 5.78746C9.05799 5.82866 9.0349 5.87222 9.03011 5.91815C9.02535 5.96409 9.04048 6.00922 9.0755 6.05357C9.1551 6.16762 9.2124 6.26582 9.24743 6.34818C9.28248 6.43054 9.30001 6.51765 9.30001 6.60952C9.30001 6.72354 9.27294 6.82886 9.21881 6.92549C9.16465 7.02209 9.08344 7.11159 8.97518 7.19398C8.91469 7.23832 8.87489 7.29058 8.85579 7.35075C8.83668 7.41096 8.84463 7.47749 8.87965 7.55034C8.94014 7.66121 8.98472 7.75069 9.01338 7.81878C9.04204 7.8869 9.05637 7.96373 9.05637 8.04927C9.05637 8.29317 8.88761 8.50223 8.55008 8.67645C8.49595 8.70496 8.46172 8.74139 8.44737 8.78573C8.43305 8.83011 8.43703 8.87922 8.4593 8.93307C8.51982 9.0756 8.55804 9.17221 8.57395 9.22291C8.58987 9.27358 8.59782 9.32902 8.59782 9.38922C8.59782 9.50642 8.55405 9.60858 8.46649 9.69571C8.37891 9.7828 8.24755 9.84852 8.07241 9.89287C7.93229 9.92774 7.75318 9.95388 7.53506 9.9713C7.31691 9.98872 7.07092 9.99584 6.79707 9.99266L6.13789 9.98317C5.46916 9.97681 4.88244 9.85644 4.37773 9.62204C3.87301 9.38762 3.47973 9.0645 3.19792 8.65271C2.9161 8.24091 2.77519 7.76574 2.77519 7.22721ZM0.721263 7.25096C0.721263 6.84234 0.787338 6.46934 0.919489 6.13195C1.05164 5.7946 1.2244 5.52535 1.43775 5.3242C1.6511 5.12306 1.88038 5.02248 2.12557 5.02248C2.19882 5.02248 2.27206 5.02248 2.3453 5.02248C2.41854 5.02248 2.49337 5.02248 2.5698 5.02248C2.38829 5.3551 2.25693 5.69959 2.17573 6.05595C2.09453 6.41231 2.05393 6.79798 2.05393 7.21296C2.05393 7.65962 2.13194 8.07301 2.28798 8.45312C2.44401 8.83325 2.66692 9.17062 2.9567 9.46522C2.84843 9.46522 2.74016 9.46522 2.63189 9.46522C2.52362 9.46522 2.41536 9.46522 2.30709 9.46522C2.02686 9.46522 1.76574 9.36386 1.52373 9.16112C1.28171 8.95838 1.08747 8.68993 0.940986 8.35575C0.794504 8.02155 0.721263 7.65328 0.721263 7.25096Z" fill="#ED3A3A"/>
</svg>
