<svg width="27" height="22" viewBox="0 0 27 22" fill="none" xmlns="http://www.w3.org/2000/svg">
<path d="M5.18461 22C5.70449 22 6.37567 21.86 7.19815 21.58C8.02064 21.2999 8.88581 20.9358 9.79365 20.4878C10.7015 20.0397 11.5473 19.5602 12.331 19.0491C13.9527 19.0911 15.4812 18.9651 16.9167 18.6711C18.3522 18.3771 19.6577 17.9447 20.8333 17.3742C22.0088 16.8036 23.0214 16.1193 23.871 15.3212C24.7206 14.5231 25.3763 13.6358 25.838 12.6592C26.2996 11.6826 26.5304 10.6447 26.5304 9.54558C26.5304 8.22243 26.191 6.98329 25.512 5.82816C24.8332 4.67302 23.8904 3.65966 22.6838 2.78806C21.4772 1.91646 20.0747 1.23389 18.4763 0.740334C16.8779 0.246778 15.1631 0 13.3319 0C11.5007 0 9.78588 0.246778 8.18746 0.740334C6.58905 1.23389 5.18655 1.91646 3.97998 2.78806C2.7734 3.65966 1.83065 4.67302 1.15171 5.82816C0.472771 6.98329 0.133301 8.22243 0.133301 9.54558C0.133301 10.6937 0.387418 11.7823 0.895653 12.8115C1.40389 13.8406 2.11775 14.7647 3.03722 15.5838C3.9567 16.4029 5.02943 17.068 6.2554 17.579C6.07694 17.887 5.86355 18.216 5.61526 18.5661C5.36696 18.9161 5.11866 19.2504 4.87036 19.5689C4.62206 19.8875 4.40868 20.1483 4.23022 20.3513C4.02847 20.5963 3.93148 20.8466 3.93924 21.1021C3.947 21.3577 4.05563 21.5712 4.26514 21.7427C4.47464 21.9142 4.78113 22 5.18461 22ZM6.4067 20.2568C6.36015 20.2708 6.32912 20.2655 6.3136 20.241C6.29808 20.2165 6.30584 20.1868 6.33687 20.1517C6.66276 19.7877 7.02357 19.3659 7.41929 18.8864C7.81502 18.4068 8.11375 17.999 8.31549 17.663C8.47844 17.39 8.52888 17.1379 8.46681 16.907C8.40473 16.6759 8.18746 16.4799 7.81502 16.3189C6.59681 15.8078 5.559 15.204 4.7016 14.5074C3.8442 13.8108 3.19047 13.0425 2.74043 12.2024C2.29039 11.3623 2.06537 10.4767 2.06537 9.54558C2.06537 8.46746 2.3544 7.45759 2.93247 6.51599C3.51054 5.57438 4.31363 4.74478 5.34174 4.02721C6.36985 3.30962 7.56672 2.74781 8.93236 2.34176C10.298 1.93572 11.7645 1.7327 13.3319 1.7327C14.8993 1.7327 16.3658 1.93572 17.7314 2.34176C19.0971 2.74781 20.2939 3.30962 21.322 4.02721C22.3502 4.74478 23.1552 5.57438 23.7371 6.51599C24.3191 7.45759 24.61 8.46746 24.61 9.54558C24.61 10.6167 24.3191 11.6248 23.7371 12.57C23.1552 13.515 22.3502 14.3446 21.322 15.0587C20.2939 15.7728 19.0971 16.3328 17.7314 16.7389C16.3658 17.1449 14.8993 17.3479 13.3319 17.3479C13.2155 17.3479 13.068 17.3462 12.8896 17.3427C12.7111 17.3392 12.5055 17.3339 12.2727 17.327C12.0322 17.327 11.8091 17.3637 11.6035 17.4372C11.3979 17.5107 11.1864 17.6245 10.9692 17.7785C10.4959 18.0865 9.97211 18.4069 9.39792 18.7394C8.82373 19.0719 8.26894 19.3747 7.73354 19.6477C7.19815 19.9207 6.75587 20.1237 6.4067 20.2568Z" fill="#333333"/>
</svg>
