<svg width="24" height="21" viewBox="0 0 24 21" fill="none" xmlns="http://www.w3.org/2000/svg">
<path d="M8.77479 19.3628H14.3694V12.3041C14.3694 12.0843 14.3015 11.9065 14.1657 11.7709C14.03 11.6351 13.8522 11.5672 13.6325 11.5672H9.52137C9.29514 11.5672 9.11415 11.6351 8.97841 11.7709C8.84266 11.9065 8.77479 12.0843 8.77479 12.3041V19.3628ZM4.98369 20.3614H18.1022C18.7939 20.3614 19.3304 20.1739 19.7118 19.799C20.0931 19.4241 20.2838 18.8973 20.2838 18.2186V7.50463L18.7228 6.43808V17.8211C18.7228 18.1378 18.642 18.3802 18.4804 18.5482C18.3188 18.7163 18.0828 18.8003 17.7726 18.8003H5.31335C5.00308 18.8003 4.76554 18.7163 4.60071 18.5482C4.43588 18.3802 4.35346 18.1378 4.35346 17.8211V6.44778L2.79242 7.50463V18.2186C2.79242 18.8973 2.98472 19.4241 3.36932 19.799C3.75393 20.1739 4.29205 20.3614 4.98369 20.3614ZM0 9.56985C0 9.77024 0.0743351 9.94963 0.223005 10.108C0.371676 10.2663 0.575291 10.3455 0.833848 10.3455C0.969589 10.3455 1.09402 10.3132 1.20714 10.2486C1.32026 10.1839 1.42853 10.1128 1.53195 10.0352L11.2376 1.8907C11.3475 1.79374 11.4622 1.74526 11.5817 1.74526C11.7013 1.74526 11.8161 1.79374 11.9259 1.8907L21.6315 10.0352C21.7285 10.1128 21.8336 10.1839 21.9467 10.2486C22.0598 10.3132 22.1842 10.3455 22.32 10.3455C22.5462 10.3455 22.7401 10.2793 22.9017 10.1467C23.0633 10.0142 23.1441 9.83162 23.1441 9.59895C23.1441 9.32746 23.0439 9.10769 22.8435 8.93963L12.7501 0.455707C12.3881 0.151902 11.9987 0 11.5817 0C11.1648 0 10.7754 0.151902 10.4134 0.455707L0.310269 8.93963C0.103423 9.10769 0 9.31776 0 9.56985ZM17.8501 5.19701L20.2838 7.25254V2.77303C20.2838 2.55972 20.2208 2.39004 20.0948 2.26399C19.9687 2.13794 19.799 2.07492 19.5858 2.07492H18.5482C18.3414 2.07492 18.1733 2.13794 18.044 2.26399C17.9148 2.39004 17.8501 2.55972 17.8501 2.77303V5.19701Z" fill="#333333"/>
</svg>
