<svg width="26" height="26" viewBox="0 0 26 26" fill="none" xmlns="http://www.w3.org/2000/svg">
<path fill-rule="evenodd" clip-rule="evenodd" d="M11.875 3.17721C11.875 3.0103 12.0102 2.875 12.1772 2.875H13.8228C13.9897 2.875 14.125 3.01029 14.125 3.17719C14.125 4.36749 14.9298 5.29308 15.8888 5.6714C15.9726 5.70445 16.0556 5.73891 16.138 5.77474C17.084 6.18625 18.3082 6.10085 19.15 5.25894C19.2682 5.14083 19.4596 5.14083 19.5778 5.25894L20.741 6.42224C20.8591 6.54036 20.8591 6.73184 20.741 6.84996C19.8992 7.6918 19.8138 8.91603 20.2253 9.86193C20.2611 9.94439 20.2955 10.0274 20.3286 10.1112C20.7069 11.0702 21.6326 11.875 22.8228 11.875C22.9897 11.875 23.125 12.0102 23.125 12.1772V13.8228C23.125 13.9897 22.9898 14.125 22.8228 14.125C21.6326 14.125 20.707 14.9298 20.3287 15.8888C20.2956 15.9726 20.2611 16.0556 20.2253 16.1381C19.8138 17.0841 19.8992 18.3082 20.7411 19.1502C20.8593 19.2683 20.8593 19.4597 20.7411 19.5779L19.5779 20.7411C19.4597 20.8593 19.2682 20.8593 19.15 20.7411C18.3082 19.8992 17.084 19.8138 16.1381 20.2253C16.0556 20.2611 15.9726 20.2956 15.8888 20.3287C14.9298 20.707 14.125 21.6326 14.125 22.8228C14.125 22.9898 13.9897 23.125 13.8228 23.125H12.1772C12.0102 23.125 11.875 22.9897 11.875 22.8228C11.875 21.6326 11.0702 20.7069 10.1112 20.3286C10.0274 20.2956 9.94439 20.2611 9.86204 20.2253C8.91603 19.8138 7.6918 19.8992 6.84985 20.7411C6.73173 20.8593 6.54025 20.8593 6.42212 20.7411L5.25892 19.5779C5.14078 19.4597 5.14078 19.2682 5.25892 19.15C6.10084 18.3082 6.18624 17.084 5.77473 16.138C5.7389 16.0556 5.70445 15.9726 5.6714 15.8888C5.29308 14.9298 4.36749 14.125 3.17719 14.125C3.01029 14.125 2.875 13.9897 2.875 13.8228V12.1772C2.875 12.0102 3.0103 11.875 3.17721 11.875C4.36752 11.875 5.2931 11.0702 5.67143 10.1112C5.70449 10.0274 5.73893 9.94439 5.77474 9.86204C6.18626 8.91603 6.10086 7.69191 5.25894 6.84996C5.14082 6.73184 5.14082 6.54036 5.25894 6.42212L6.42212 5.25896C6.54025 5.14084 6.73184 5.14084 6.84996 5.25896C7.6918 6.10087 8.91603 6.18627 9.86204 5.77476C9.94439 5.73894 10.0274 5.70449 10.1112 5.67143C11.0702 5.2931 11.875 4.36752 11.875 3.17721ZM12.1772 0.625C10.7677 0.625 9.625 1.76766 9.625 3.17721C9.625 3.2893 9.53804 3.47879 9.28547 3.57845C9.17747 3.62102 9.07049 3.66539 8.96451 3.71152C8.71577 3.81973 8.52025 3.74735 8.44094 3.66797C7.44408 2.67117 5.82798 2.67117 4.83117 3.66797L3.66796 4.83118C2.67115 5.828 2.67115 7.44419 3.66796 8.44094C3.74734 8.52036 3.81972 8.71577 3.7115 8.96451C3.66538 9.0706 3.62102 9.17759 3.57845 9.28547C3.47879 9.53804 3.2893 9.625 3.17721 9.625C1.76766 9.625 0.625 10.7677 0.625 12.1772V13.8228C0.625 15.2323 1.76765 16.375 3.17719 16.375C3.28927 16.375 3.47874 16.462 3.57841 16.7145C3.62098 16.8224 3.66535 16.9294 3.71148 17.0355C3.8197 17.2842 3.74731 17.4797 3.66793 17.5591C2.67112 18.5559 2.67112 20.1721 3.66793 21.1688L4.83112 22.3321C5.82793 23.3288 7.44408 23.3288 8.44094 22.3321C8.52025 22.2527 8.71566 22.1803 8.96451 22.2886C9.07049 22.3347 9.17759 22.379 9.28547 22.4216C9.53804 22.5213 9.625 22.7108 9.625 22.8228C9.625 24.2323 10.7677 25.375 12.1772 25.375H13.8228C15.2323 25.375 16.375 24.2323 16.375 22.8228C16.375 22.7108 16.4619 22.5213 16.7145 22.4216C16.8224 22.3791 16.9294 22.3347 17.0355 22.2886C17.2843 22.1803 17.4797 22.2527 17.5591 22.3321C18.5559 23.3288 20.172 23.3288 21.1688 22.3321L22.3321 21.1688C23.3288 20.1721 23.3288 18.5559 22.3321 17.5592C22.2527 17.4798 22.1803 17.2843 22.2886 17.0356C22.3347 16.9295 22.379 16.8224 22.4216 16.7145C22.5213 16.4619 22.7108 16.375 22.8228 16.375C24.2323 16.375 25.375 15.2323 25.375 13.8228V12.1772C25.375 10.7677 24.2323 9.625 22.8228 9.625C22.7108 9.625 22.5213 9.53804 22.4216 9.28547C22.379 9.17747 22.3347 9.07049 22.2886 8.9644C22.1803 8.71566 22.2527 8.52025 22.3321 8.44094C23.3288 7.44408 23.3288 5.828 22.3321 4.83121L21.1687 3.66796C20.172 2.67115 18.5558 2.67116 17.5591 3.66796C17.4796 3.74733 17.2842 3.8197 17.0355 3.71149C16.9294 3.66536 16.8224 3.62099 16.7145 3.57841C16.462 3.47874 16.375 3.28927 16.375 3.17719C16.375 1.76765 15.2323 0.625 13.8228 0.625H12.1772ZM9.0625 13C9.0625 10.8254 10.8254 9.0625 13 9.0625C15.1746 9.0625 16.9375 10.8254 16.9375 13C16.9375 15.1746 15.1746 16.9375 13 16.9375C10.8254 16.9375 9.0625 15.1746 9.0625 13ZM13 6.8125C9.5827 6.8125 6.8125 9.5827 6.8125 13C6.8125 16.4173 9.5827 19.1875 13 19.1875C16.4173 19.1875 19.1875 16.4173 19.1875 13C19.1875 9.5827 16.4173 6.8125 13 6.8125Z" fill="#ED3A3A"/>
</svg>
