<svg width="11" height="11" viewBox="0 0 11 11" fill="none" xmlns="http://www.w3.org/2000/svg">
<path d="M10.0833 3.74904C10.0833 3.3499 10.0236 2.97372 9.90419 2.6205C9.78478 2.26732 9.61839 1.9553 9.40504 1.68444C9.19168 1.41359 8.94569 1.20135 8.66706 1.04772C8.38843 0.894099 8.09148 0.817286 7.77623 0.817286L6.19518 0.817286C5.88311 0.652567 5.5376 0.523481 5.15865 0.430028C4.77971 0.336574 4.37688 0.289848 3.95017 0.289848L3.29103 0.289848C2.99169 0.289848 2.71703 0.299352 2.46706 0.318361C2.21709 0.337369 2.00771 0.367456 1.83893 0.408619C1.50776 0.490978 1.24585 0.639073 1.05321 0.852903C0.860557 1.06673 0.764233 1.31936 0.764233 1.61078C0.764232 1.72483 0.783341 1.83886 0.821558 1.95288C0.655942 2.07326 0.528558 2.21978 0.439407 2.39245C0.350257 2.56508 0.305681 2.75118 0.305681 2.95073C0.305681 3.15347 0.3423 3.33403 0.415538 3.49243C0.304084 3.6033 0.217297 3.73714 0.155179 3.89394C0.0930935 4.05075 0.0620495 4.21626 0.0620495 4.39048C0.0620495 4.50135 0.0755821 4.61302 0.102646 4.72548C0.129712 4.83795 0.168727 4.93693 0.219694 5.02243C0.0732179 5.22517 -1.9544e-05 5.47384 -1.95698e-05 5.76844C-1.95903e-05 6.00287 0.0564894 6.2167 0.169509 6.40993C0.282562 6.60316 0.43463 6.75601 0.625714 6.86846C0.816764 6.98092 1.03012 7.03715 1.26578 7.03715L3.07606 7.03715C3.13339 7.03715 3.17956 7.04982 3.21458 7.07516C3.24964 7.1005 3.26716 7.13693 3.26716 7.18444C3.26716 7.31432 3.22575 7.48142 3.14293 7.68574C3.06013 7.89006 2.96541 8.11497 2.85875 8.36047C2.75205 8.60597 2.65731 8.8586 2.57452 9.11836C2.49173 9.37811 2.45033 9.62836 2.45033 9.86911C2.45033 10.0877 2.4981 10.2825 2.59364 10.4536C2.68919 10.6246 2.81895 10.7585 2.98293 10.8551C3.14692 10.9517 3.33559 11 3.54895 11C3.7846 11 3.98682 10.9351 4.1556 10.8052C4.32435 10.6753 4.48516 10.4631 4.63802 10.1685C4.7845 9.89287 4.93973 9.62045 5.10372 9.35119C5.26772 9.08193 5.44526 8.8095 5.63632 8.53391C5.82738 8.25831 6.03915 7.96925 6.27161 7.66673C6.50407 7.36422 6.762 7.04031 7.04541 6.69503L7.95774 6.69503C8.2507 6.69503 8.52615 6.619 8.78408 6.46695C9.04202 6.3149 9.26811 6.10345 9.46236 5.83262C9.65661 5.56176 9.80866 5.24815 9.91852 4.89179C10.0284 4.53543 10.0833 4.15451 10.0833 3.74904ZM7.30812 3.77279C7.30812 4.11491 7.27946 4.42376 7.22214 4.69936C7.16483 4.97495 7.07168 5.24183 6.94271 5.5C6.81375 5.75817 6.64099 6.03139 6.42446 6.31965C6.18563 6.63642 5.92371 6.97696 5.63871 7.34125C5.35371 7.70554 5.06792 8.09517 4.78134 8.51015C4.49471 8.92512 4.23199 9.36861 3.99317 9.8406C3.90402 10.0212 3.8244 10.14 3.75433 10.197C3.68429 10.254 3.60627 10.2825 3.52028 10.2825C3.41522 10.2825 3.33085 10.2469 3.26716 10.1756C3.20345 10.1043 3.17159 10.0022 3.17159 9.86911C3.17159 9.67588 3.21299 9.46364 3.29578 9.2324C3.3786 9.00115 3.47334 8.76357 3.58001 8.51965C3.68667 8.27573 3.78141 8.03895 3.86423 7.80928C3.94703 7.57962 3.98842 7.37134 3.98842 7.18444C3.98842 6.91518 3.8897 6.70374 3.69226 6.5501C3.49482 6.39647 3.2544 6.31965 2.971 6.31965L1.26578 6.31965C1.10971 6.31965 0.979951 6.26659 0.876485 6.16047C0.772988 6.05436 0.721239 5.92369 0.721239 5.76844C0.721239 5.5657 0.808807 5.3804 0.983945 5.21254C1.02533 5.17134 1.04841 5.12778 1.05321 5.08184C1.05797 5.03591 1.04284 4.99078 1.00781 4.94643C0.928218 4.83238 0.870909 4.73418 0.835888 4.65182C0.800835 4.56946 0.783308 4.48235 0.783308 4.39048C0.783308 4.27646 0.810373 4.17114 0.864503 4.07451C0.918665 3.97791 0.999875 3.88841 1.10813 3.80602C1.16862 3.76168 1.20842 3.70942 1.22753 3.64925C1.24664 3.58904 1.23868 3.52251 1.20366 3.44966C1.14317 3.33879 1.0986 3.24931 1.06993 3.18122C1.04127 3.1131 1.02694 3.03627 1.02694 2.95073C1.02694 2.70683 1.1957 2.49777 1.53323 2.32355C1.58736 2.29504 1.6216 2.25861 1.63594 2.21427C1.65026 2.16989 1.64628 2.12078 1.62401 2.06693C1.56349 1.9244 1.52527 1.82779 1.50936 1.77709C1.49345 1.72642 1.48549 1.67098 1.48549 1.61078C1.48549 1.49358 1.52927 1.39142 1.61682 1.30429C1.7044 1.21719 1.83577 1.15148 2.01091 1.10713C2.15102 1.07226 2.33014 1.04612 2.54825 1.0287C2.7664 1.01128 3.0124 1.00416 3.28624 1.00734L3.94543 1.01683C4.61416 1.02319 5.20087 1.14356 5.70558 1.37796C6.21031 1.61238 6.60358 1.9355 6.88539 2.34729C7.16721 2.75909 7.30812 3.23426 7.30812 3.77279ZM9.36205 3.74904C9.36205 4.15766 9.29598 4.53066 9.16382 4.86805C9.03167 5.2054 8.85892 5.47465 8.64557 5.6758C8.43221 5.87694 8.20294 5.97752 7.95774 5.97752C7.8845 5.97752 7.81126 5.97752 7.73802 5.97752C7.66478 5.97752 7.58994 5.97752 7.51351 5.97752C7.69502 5.6449 7.82638 5.30041 7.90758 4.94405C7.98879 4.58769 8.02939 4.20202 8.02939 3.78704C8.02939 3.34038 7.95137 2.92699 7.79534 2.54688C7.6393 2.16675 7.41639 1.82938 7.12661 1.53478C7.23488 1.53478 7.34315 1.53478 7.45142 1.53478C7.55969 1.53478 7.66796 1.53478 7.77623 1.53478C8.05645 1.53478 8.31757 1.63614 8.55959 1.83888C8.8016 2.04162 8.99585 2.31007 9.14233 2.64425C9.28881 2.97845 9.36205 3.34672 9.36205 3.74904Z" fill="#538DD1"/>
</svg>
