<svg width="23" height="22" viewBox="0 0 23 22" fill="none" xmlns="http://www.w3.org/2000/svg">
<path d="M11.6093 21.9893C13.1112 21.9893 14.525 21.7018 15.8508 21.1269C17.1767 20.5521 18.3462 19.758 19.3594 18.7447C20.3726 17.7316 21.1667 16.562 21.7415 15.2362C22.3165 13.9104 22.6039 12.4965 22.6039 10.9946C22.6039 9.49275 22.3165 8.0789 21.7415 6.75307C21.1667 5.42725 20.3726 4.25773 19.3594 3.24449C18.3462 2.23126 17.1749 1.43721 15.8454 0.862324C14.516 0.287441 13.1004 0 11.5985 0C10.0966 0 8.68275 0.287441 7.35692 0.862324C6.0311 1.43721 4.86337 2.23126 3.85373 3.24449C2.84409 4.25773 2.05183 5.42725 1.47695 6.75307C0.902065 8.0789 0.614624 9.49275 0.614624 10.9946C0.614624 12.4965 0.902065 13.9104 1.47695 15.2362C2.05183 16.562 2.84589 17.7316 3.85912 18.7447C4.87235 19.758 6.04188 20.5521 7.3677 21.1269C8.69352 21.7018 10.1074 21.9893 11.6093 21.9893ZM11.6093 20.1568C10.3373 20.1568 9.14804 19.9197 8.0414 19.4454C6.93474 18.9712 5.96283 18.3155 5.12565 17.4783C4.28848 16.6411 3.63456 15.6692 3.16387 14.5625C2.69318 13.4559 2.45784 12.2666 2.45784 10.9946C2.45784 9.7227 2.69318 8.53342 3.16387 7.42677C3.63456 6.32012 4.28669 5.34641 5.12027 4.50564C5.95384 3.66487 6.92396 3.00915 8.03061 2.53846C9.13726 2.06778 10.3266 1.83244 11.5985 1.83244C12.8704 1.83244 14.0597 2.06778 15.1664 2.53846C16.273 3.00915 17.2467 3.66487 18.0875 4.50564C18.9283 5.34641 19.5858 6.32012 20.06 7.42677C20.5343 8.53342 20.7714 9.7227 20.7714 10.9946C20.7714 12.2666 20.5361 13.4559 20.0655 14.5625C19.5947 15.6692 18.9408 16.6411 18.1036 17.4783C17.2664 18.3155 16.2927 18.9712 15.1825 19.4454C14.0723 19.9197 12.8812 20.1568 11.6093 20.1568ZM18.9821 18.098L18.9498 17.9795C18.7701 17.4477 18.3516 16.9267 17.694 16.4164C17.0365 15.9063 16.1886 15.4859 15.1501 15.1554C14.1118 14.8248 12.9315 14.6595 11.6093 14.6595C10.2942 14.6595 9.1175 14.8248 8.07912 15.1554C7.04074 15.4859 6.19098 15.9063 5.52987 16.4164C4.86876 16.9267 4.44838 17.4441 4.26873 17.9687L4.23639 18.098C4.88313 18.7376 5.64844 19.2837 6.53233 19.7365C7.41621 20.1892 8.30907 20.5359 9.21092 20.7766C10.1128 21.0173 10.9122 21.1377 11.6093 21.1377C12.3135 21.1377 13.1148 21.0173 14.013 20.7766C14.9113 20.5359 15.8005 20.1892 16.6808 19.7365C17.5611 19.2837 18.3282 18.7376 18.9821 18.098ZM11.6093 12.8271C12.2991 12.8343 12.9243 12.66 13.4849 12.3043C14.0454 11.9486 14.4891 11.4618 14.816 10.8437C15.143 10.2257 15.3064 9.53228 15.3064 8.76337C15.3064 8.03757 15.1411 7.37287 14.8106 6.76924C14.4801 6.16562 14.0363 5.68236 13.4795 5.31947C12.9225 4.95657 12.2991 4.77512 11.6093 4.77512C10.9194 4.77512 10.2942 4.95657 9.7337 5.31947C9.17319 5.68236 8.72766 6.16562 8.3971 6.76924C8.06654 7.37287 7.90485 8.03757 7.91204 8.76337C7.91923 9.53228 8.0863 10.2221 8.41327 10.8329C8.74024 11.4437 9.18218 11.927 9.73909 12.2827C10.296 12.6384 10.9194 12.8199 11.6093 12.8271Z" fill="#333333"/>
</svg>
