<svg width="23" height="22" viewBox="0 0 23 22" fill="none" xmlns="http://www.w3.org/2000/svg">
<path d="M11.1387 21.9893C12.6406 21.9893 14.0544 21.7018 15.3802 21.1269C16.7061 20.5521 17.8756 19.758 18.8888 18.7447C19.9021 17.7316 20.6961 16.562 21.271 15.2362C21.8459 13.9104 22.1333 12.4965 22.1333 10.9946C22.1333 9.49275 21.8459 8.0789 21.271 6.75307C20.6961 5.42725 19.9021 4.25773 18.8888 3.24449C17.8756 2.23126 16.7043 1.43721 15.3748 0.862324C14.0454 0.287441 12.6298 0 11.1279 0C9.62602 0 8.21217 0.287441 6.88634 0.862324C5.56052 1.43721 4.39279 2.23126 3.38315 3.24449C2.37351 4.25773 1.58125 5.42725 1.00637 6.75307C0.431484 8.0789 0.144043 9.49275 0.144043 10.9946C0.144043 12.4965 0.431484 13.9104 1.00637 15.2362C1.58125 16.562 2.37531 17.7316 3.38853 18.7447C4.40177 19.758 5.5713 20.5521 6.89711 21.1269C8.22294 21.7018 9.63679 21.9893 11.1387 21.9893ZM11.1387 20.1568C9.86675 20.1568 8.67746 19.9197 7.57081 19.4454C6.46416 18.9712 5.49225 18.3155 4.65507 17.4783C3.8179 16.6411 3.16397 15.6692 2.69329 14.5625C2.2226 13.4559 1.98726 12.2666 1.98726 10.9946C1.98726 9.7227 2.2226 8.53342 2.69329 7.42677C3.16397 6.32012 3.81611 5.34641 4.64968 4.50564C5.48326 3.66487 6.45338 3.00915 7.56003 2.53846C8.66668 2.06778 9.85597 1.83244 11.1279 1.83244C12.3998 1.83244 13.5891 2.06778 14.6958 2.53846C15.8024 3.00915 16.7761 3.66487 17.6169 4.50564C18.4577 5.34641 19.1152 6.32012 19.5895 7.42677C20.0637 8.53342 20.3008 9.7227 20.3008 10.9946C20.3008 12.2666 20.0655 13.4559 19.5949 14.5625C19.1242 15.6692 18.4702 16.6411 17.633 17.4783C16.7958 18.3155 15.8221 18.9712 14.7119 19.4454C13.6017 19.9197 12.4106 20.1568 11.1387 20.1568ZM8.50858 8.08429H16.5928C16.7725 8.08429 16.9252 8.02141 17.051 7.89566C17.1768 7.7699 17.2396 7.6136 17.2396 7.42677C17.2396 7.23993 17.1768 7.08543 17.051 6.96326C16.9252 6.8411 16.7725 6.78003 16.5928 6.78003H8.50858C8.32175 6.78003 8.16545 6.8429 8.0397 6.96866C7.91394 7.09442 7.85106 7.24712 7.85106 7.42677C7.85106 7.60642 7.91574 7.76092 8.04508 7.89027C8.17443 8.01962 8.32893 8.08429 8.50858 8.08429ZM8.50858 15.2201H16.5928C16.7725 15.2201 16.9252 15.1572 17.051 15.0314C17.1768 14.9057 17.2396 14.7494 17.2396 14.5625C17.2396 14.3757 17.1768 14.2212 17.051 14.099C16.9252 13.9768 16.7725 13.9157 16.5928 13.9157H8.50858C8.32893 13.9157 8.17443 13.9786 8.04508 14.1044C7.91574 14.2301 7.85106 14.3828 7.85106 14.5625C7.85106 14.7494 7.91394 14.9057 8.0397 15.0314C8.16545 15.1572 8.32175 15.2201 8.50858 15.2201ZM8.50858 11.6521H16.5928C16.7725 11.6521 16.9252 11.5892 17.051 11.4635C17.1768 11.3377 17.2396 11.1814 17.2396 10.9946C17.2396 10.8078 17.1768 10.6533 17.051 10.5311C16.9252 10.409 16.7725 10.3479 16.5928 10.3479H8.50858C8.32893 10.3479 8.17443 10.4108 8.04508 10.5365C7.91574 10.6623 7.85106 10.815 7.85106 10.9946C7.85106 11.1743 7.91574 11.3288 8.04508 11.4582C8.17443 11.5875 8.32893 11.6521 8.50858 11.6521ZM5.91084 8.35377C6.16235 8.35377 6.37973 8.26215 6.56297 8.0789C6.74621 7.89566 6.83783 7.67828 6.83783 7.42677C6.83783 7.16807 6.74801 6.94889 6.56836 6.76924C6.3887 6.58959 6.16953 6.49977 5.91084 6.49977C5.65214 6.49977 5.43297 6.58959 5.25332 6.76924C5.07367 6.94889 4.98384 7.16807 4.98384 7.42677C4.98384 7.68547 5.07367 7.90464 5.25332 8.08429C5.43297 8.26394 5.65214 8.35377 5.91084 8.35377ZM5.91084 11.9217C6.16235 11.9217 6.37973 11.83 6.56297 11.6468C6.74621 11.4635 6.83783 11.2461 6.83783 10.9946C6.83783 10.7431 6.74621 10.5257 6.56297 10.3425C6.37973 10.1593 6.16235 10.0676 5.91084 10.0676C5.65214 10.0676 5.43297 10.1575 5.25332 10.3371C5.07367 10.5168 4.98384 10.7359 4.98384 10.9946C4.98384 11.2533 5.07367 11.4725 5.25332 11.6521C5.43297 11.8318 5.65214 11.9217 5.91084 11.9217ZM5.91084 15.4895C6.16953 15.4895 6.3887 15.3997 6.56836 15.2201C6.74801 15.0404 6.83783 14.8212 6.83783 14.5625C6.83783 14.311 6.74621 14.0936 6.56297 13.9103C6.37973 13.7271 6.16235 13.6355 5.91084 13.6355C5.65214 13.6355 5.43297 13.7253 5.25332 13.905C5.07367 14.0846 4.98384 14.3038 4.98384 14.5625C4.98384 14.8212 5.07367 15.0404 5.25332 15.2201C5.43297 15.3997 5.65214 15.4895 5.91084 15.4895Z" fill="#333333"/>
</svg>
