<svg width="32" height="32" viewBox="0 0 32 32" fill="none" xmlns="http://www.w3.org/2000/svg">
<rect x="5" y="8" width="22" height="16" rx="3" stroke="black" stroke-width="2"/>
<path d="M12 16.5555C13.9243 16.5555 15.575 17.6779 16.2777 19.2766C16.413 19.5844 16.4807 19.7383 16.4248 20.0772C16.3867 20.3084 16.1623 20.6732 15.9767 20.8058C15.7048 21 15.4483 21 14.9354 21H9.06463C8.5517 21 8.29524 21 8.02327 20.8058C7.83767 20.6732 7.61331 20.3084 7.5752 20.0772C7.51935 19.7383 7.587 19.5844 7.7223 19.2766C8.42497 17.6779 10.0757 16.5555 12 16.5555Z" fill="black"/>
<circle cx="12" cy="13.5" r="2.5" fill="black"/>
<rect x="16.5" y="11.5" width="7" height="2" rx="1" fill="black"/>
<rect x="16.5" y="15" width="7" height="2" rx="1" fill="black"/>
<rect x="18.5" y="18.5" width="5" height="2" rx="1" fill="black"/>
</svg>
