<svg width="32" height="32" viewBox="0 0 32 32" fill="none" xmlns="http://www.w3.org/2000/svg">
<path fill-rule="evenodd" clip-rule="evenodd" d="M11.7587 7.5H20.2413C21.0463 7.49999 21.7106 7.49998 22.2518 7.54419C22.8139 7.59012 23.3306 7.68868 23.816 7.93597C24.5686 8.31947 25.1805 8.93139 25.564 9.68404C25.8113 10.1694 25.9099 10.6861 25.9558 11.2482C26 11.7894 26 12.4537 26 13.2587V18.7413C26 19.5463 26 20.2106 25.9558 20.7518C25.9099 21.3139 25.8113 21.8306 25.564 22.316C25.1805 23.0686 24.5686 23.6805 23.816 24.064C23.3306 24.3113 22.8139 24.4099 22.2518 24.4558C21.7106 24.5 21.0463 24.5 20.2413 24.5H11.7587C10.9537 24.5 10.2894 24.5 9.74817 24.4558C9.18608 24.4099 8.66937 24.3113 8.18404 24.064C7.43139 23.6805 6.81947 23.0686 6.43597 22.316C6.18868 21.8306 6.09012 21.3139 6.04419 20.7518C5.99998 20.2106 5.99999 19.5463 6 18.7413V13.2587C5.99999 12.4537 5.99998 11.7894 6.04419 11.2482C6.09012 10.6861 6.18868 10.1694 6.43597 9.68404C6.81947 8.93139 7.43139 8.31947 8.18404 7.93597C8.66937 7.68868 9.18608 7.59012 9.74817 7.54419C10.2894 7.49998 10.9537 7.49999 11.7587 7.5ZM9.91104 9.53755C9.47262 9.57337 9.24842 9.6383 9.09202 9.71799C8.71569 9.90973 8.40973 10.2157 8.21799 10.592C8.1383 10.7484 8.07337 10.9726 8.03755 11.411C8.00078 11.8611 8 12.4434 8 13.3V18.7C8 19.5566 8.00078 20.1389 8.03755 20.589C8.07337 21.0274 8.1383 21.2516 8.21799 21.408C8.40973 21.7843 8.71569 22.0903 9.09202 22.282C9.24842 22.3617 9.47262 22.4266 9.91104 22.4624C10.3611 22.4992 10.9434 22.5 11.8 22.5H20.2C21.0566 22.5 21.6389 22.4992 22.089 22.4624C22.5274 22.4266 22.7516 22.3617 22.908 22.282C23.2843 22.0903 23.5903 21.7843 23.782 21.408C23.8617 21.2516 23.9266 21.0274 23.9624 20.589C23.9992 20.1389 24 19.5566 24 18.7V13.3C24 12.4434 23.9992 11.8611 23.9624 11.411C23.9266 10.9726 23.8617 10.7484 23.782 10.592C23.5903 10.2157 23.2843 9.90973 22.908 9.71799C22.7516 9.6383 22.5274 9.57337 22.089 9.53755C21.6389 9.50078 21.0566 9.5 20.2 9.5H11.8C10.9434 9.5 10.3611 9.50078 9.91104 9.53755Z" fill="black"/>
<path d="M9 19.58V18.7953C9 18.5018 9 18.355 9.03316 18.2169C9.06255 18.0945 9.11104 17.9774 9.17683 17.8701C9.25104 17.749 9.35481 17.6452 9.56236 17.4377L10.6424 16.3577C11.1176 15.8824 11.3552 15.6448 11.6292 15.5558C11.8702 15.4775 12.1298 15.4775 12.3708 15.5558C12.6448 15.6448 12.8824 15.8824 13.3576 16.3577L13.6424 16.6424C14.1176 17.1176 14.3552 17.3552 14.6292 17.4442C14.8702 17.5225 15.1298 17.5225 15.3708 17.4442C15.6448 17.3552 15.8824 17.1176 16.3576 16.6424L18.6424 14.3577L18.6424 14.3577C19.1176 13.8824 19.3552 13.6448 19.6292 13.5558C19.8702 13.4775 20.1298 13.4775 20.3708 13.5558C20.6448 13.6448 20.8824 13.8824 21.3576 14.3577L22.4376 15.4377C22.6452 15.6452 22.749 15.749 22.8232 15.8701C22.889 15.9774 22.9374 16.0945 22.9668 16.2169C23 16.355 23 16.5018 23 16.7953V19.58C23 20.2521 23 20.5881 22.8692 20.8448C22.7542 21.0706 22.5706 21.2542 22.3448 21.3692C22.0881 21.5 21.7521 21.5 21.08 21.5H10.92C10.2479 21.5 9.91191 21.5 9.65521 21.3692C9.42942 21.2542 9.24584 21.0706 9.13079 20.8448C9 20.5881 9 20.2521 9 19.58Z" fill="black"/>
<path d="M16 13C16 14.1046 15.1046 15 14 15C12.8954 15 12 14.1046 12 13C12 11.8954 12.8954 11 14 11C15.1046 11 16 11.8954 16 13Z" fill="black"/>
</svg>
