<svg width="32" height="32" viewBox="0 0 32 32" fill="none" xmlns="http://www.w3.org/2000/svg">
<rect x="7" y="8.5" width="18" height="15" rx="3" stroke="black" stroke-width="2"/>
<path d="M9 19.58V18.7953C9 18.5018 9 18.355 9.03316 18.2169C9.06255 18.0945 9.11104 17.9774 9.17683 17.8701C9.25104 17.749 9.35481 17.6452 9.56236 17.4376L10.6424 16.3576C11.1176 15.8824 11.3552 15.6448 11.6292 15.5558C11.8702 15.4775 12.1298 15.4775 12.3708 15.5558C12.6448 15.6448 12.8824 15.8824 13.3576 16.3576L13.6424 16.6424C14.1176 17.1176 14.3552 17.3552 14.6292 17.4442C14.8702 17.5225 15.1298 17.5225 15.3708 17.4442C15.6448 17.3552 15.8824 17.1176 16.3576 16.6424L18.6424 14.3576L18.6424 14.3576C19.1176 13.8824 19.3552 13.6448 19.6292 13.5558C19.8702 13.4775 20.1298 13.4775 20.3708 13.5558C20.6448 13.6448 20.8824 13.8824 21.3576 14.3576L22.4376 15.4376C22.6452 15.6452 22.749 15.749 22.8232 15.8701C22.889 15.9774 22.9374 16.0945 22.9668 16.2169C23 16.355 23 16.5018 23 16.7953V19.58C23 20.2521 23 20.5881 22.8692 20.8448C22.7542 21.0706 22.5706 21.2542 22.3448 21.3692C22.0881 21.5 21.7521 21.5 21.08 21.5H10.92C10.2479 21.5 9.91191 21.5 9.65521 21.3692C9.42942 21.2542 9.24584 21.0706 9.13079 20.8448C9 20.5881 9 20.2521 9 19.58Z" fill="black"/>
<circle cx="14" cy="13" r="2" fill="black"/>
</svg>
