<svg width="17" height="16" viewBox="0 0 17 16" fill="none" xmlns="http://www.w3.org/2000/svg">
<path fill-rule="evenodd" clip-rule="evenodd" d="M4.8949 0.921677H12.1051C12.7894 0.921669 13.354 0.92166 13.814 0.958632C14.2918 0.997043 14.731 1.07947 15.1436 1.28627C15.7833 1.60699 16.3034 2.11873 16.6294 2.74817C16.8396 3.15407 16.9234 3.58618 16.9624 4.05626C17 4.50886 17 5.06441 17 5.73762V10.3227C17 10.9959 17 11.5514 16.9624 12.004C16.9234 12.4741 16.8396 12.9062 16.6294 13.3122C16.3034 13.9415 15.7833 14.4533 15.1436 14.774C14.731 14.9808 14.2918 15.0633 13.814 15.1016C13.354 15.1386 12.7894 15.1386 12.1051 15.1386H4.8949C4.21065 15.1386 3.64599 15.1386 3.18594 15.1016C2.70817 15.0633 2.26896 14.9808 1.85643 14.774C1.21668 14.4533 0.69655 13.9415 0.370575 13.3122C0.160378 12.9062 0.0766022 12.4741 0.0375617 12.004C-1.68046e-05 11.5514 -8.24431e-06 10.9959 2.55687e-07 10.3227V5.73762C-8.24431e-06 5.06441 -1.68046e-05 4.50886 0.0375617 4.05626C0.0766022 3.58618 0.160378 3.15407 0.370575 2.74817C0.69655 2.11873 1.21668 1.60699 1.85643 1.28627C2.26896 1.07947 2.70817 0.997043 3.18594 0.958632C3.64599 0.92166 4.21065 0.921669 4.8949 0.921677ZM3.32438 2.62566C2.95173 2.65562 2.76116 2.70992 2.62822 2.77656C2.30835 2.93691 2.04827 3.19279 1.88529 3.50749C1.81756 3.63828 1.76236 3.82578 1.73192 4.19241C1.70066 4.56882 1.7 5.05579 1.7 5.77216V10.2881C1.7 11.0045 1.70066 11.4915 1.73192 11.8679C1.76236 12.2345 1.81756 12.422 1.88529 12.5528C2.04827 12.8675 2.30835 13.1234 2.62822 13.2837C2.76116 13.3504 2.95173 13.4046 3.32438 13.4346C3.70694 13.4654 4.20189 13.466 4.93 13.466H12.07C12.7981 13.466 13.2931 13.4654 13.6757 13.4346C14.0483 13.4046 14.2389 13.3504 14.3718 13.2837C14.6917 13.1234 14.9518 12.8675 15.1147 12.5528C15.1824 12.422 15.2376 12.2345 15.268 11.8679C15.2993 11.4915 15.3 11.0045 15.3 10.2881V5.77216C15.3 5.05579 15.2993 4.56882 15.268 4.19241C15.2376 3.82578 15.1824 3.63828 15.1147 3.50749C14.9518 3.19279 14.6917 2.93691 14.3718 2.77656C14.2389 2.70992 14.0483 2.65562 13.6757 2.62566C13.2931 2.59491 12.7981 2.59426 12.07 2.59426H4.93C4.20189 2.59426 3.70694 2.59491 3.32438 2.62566Z" fill="#BBBBBB"/>
<path d="M2.55005 11.024V10.3678C2.55005 10.1224 2.55005 9.99959 2.57824 9.88409C2.60322 9.78173 2.64443 9.6838 2.70035 9.59407C2.76343 9.49279 2.85164 9.40599 3.02805 9.23237L3.94609 8.32918C4.35001 7.93177 4.55197 7.73307 4.78487 7.65864C4.98972 7.59316 5.21038 7.59316 5.41523 7.65864C5.64813 7.73307 5.85009 7.93177 6.25401 8.32918L6.49609 8.56736C6.90001 8.96476 7.10197 9.16346 7.33487 9.23789C7.53972 9.30337 7.76038 9.30337 7.96523 9.23789C8.19813 9.16346 8.40009 8.96476 8.80401 8.56736L10.7461 6.6566C11.15 6.25919 11.352 6.06049 11.5849 5.98606C11.7897 5.92058 12.0104 5.92058 12.2152 5.98606C12.4481 6.06049 12.6501 6.25919 13.054 6.6566L13.972 7.55979C14.1485 7.73341 14.2367 7.82021 14.2998 7.92149C14.3557 8.01122 14.3968 8.10915 14.4218 8.21151C14.45 8.32701 14.45 8.44977 14.45 8.69522V11.024C14.45 11.5861 14.45 11.8671 14.3389 12.0818C14.2411 12.2706 14.0851 12.4242 13.8931 12.5203C13.6749 12.6297 13.3893 12.6297 12.818 12.6297H4.18205C3.61076 12.6297 3.32517 12.6297 3.10698 12.5203C2.91506 12.4242 2.75901 12.2706 2.66122 12.0818C2.55005 11.8671 2.55005 11.5861 2.55005 11.024Z" fill="#BBBBBB"/>
<path d="M8.49998 5.52127C8.49998 6.44503 7.73889 7.19385 6.79998 7.19385C5.86107 7.19385 5.09998 6.44503 5.09998 5.52127C5.09998 4.5975 5.86107 3.84869 6.79998 3.84869C7.73889 3.84869 8.49998 4.5975 8.49998 5.52127Z" fill="#BBBBBB"/>
</svg>
