<svg width="17" height="15" viewBox="0 0 17 15" fill="none" xmlns="http://www.w3.org/2000/svg">
<path fill-rule="evenodd" clip-rule="evenodd" d="M4.8949 0.150025H12.1051C12.7894 0.150016 13.354 0.150008 13.814 0.187586C14.2918 0.226627 14.731 0.310403 15.1436 0.520599C15.7833 0.846574 16.3034 1.36671 16.6294 2.00646C16.8396 2.41901 16.9234 2.85821 16.9624 3.33599C17 3.79601 17 4.36067 17 5.04492V9.70513C17 10.3894 17 10.954 16.9624 11.4141C16.9234 11.8918 16.8396 12.331 16.6294 12.7436C16.3034 13.3833 15.7833 13.9034 15.1436 14.2294C14.731 14.4396 14.2918 14.5234 13.814 14.5625C13.354 14.6 12.7894 14.6 12.1051 14.6H4.8949C4.21065 14.6 3.64599 14.6 3.18594 14.5625C2.70817 14.5234 2.26896 14.4396 1.85643 14.2294C1.21668 13.9034 0.69655 13.3833 0.370575 12.7436C0.160378 12.331 0.0766022 11.8918 0.0375617 11.4141C-1.68046e-05 10.954 -8.24431e-06 10.3894 2.55687e-07 9.70513V5.04492C-8.24431e-06 4.36067 -1.68046e-05 3.79601 0.0375617 3.33599C0.0766022 2.85821 0.160378 2.41901 0.370575 2.00646C0.69655 1.36671 1.21668 0.846574 1.85643 0.520599C2.26896 0.310403 2.70817 0.226627 3.18594 0.187586C3.64599 0.150008 4.21065 0.150016 4.8949 0.150025ZM3.32438 1.88194C2.95173 1.91239 2.76116 1.96758 2.62822 2.03532C2.30835 2.19829 2.04827 2.45837 1.88529 2.77822C1.81756 2.91116 1.76236 3.10173 1.73192 3.47437C1.70066 3.85696 1.7 4.35191 1.7 5.08002V9.67002C1.7 10.3981 1.70066 10.8931 1.73192 11.2757C1.76236 11.6483 1.81756 11.8389 1.88529 11.9718C2.04827 12.2917 2.30835 12.5518 2.62822 12.7147C2.76116 12.7825 2.95173 12.8376 3.32438 12.8681C3.70694 12.8993 4.20189 12.9 4.93 12.9H12.07C12.7981 12.9 13.2931 12.8993 13.6757 12.8681C14.0483 12.8376 14.2389 12.7825 14.3718 12.7147C14.6917 12.5518 14.9518 12.2917 15.1147 11.9718C15.1824 11.8389 15.2376 11.6483 15.268 11.2757C15.2993 10.8931 15.3 10.3981 15.3 9.67002V5.08002C15.3 4.35191 15.2993 3.85696 15.268 3.47437C15.2376 3.10173 15.1824 2.91116 15.1147 2.77822C14.9518 2.45837 14.6917 2.19829 14.3718 2.03532C14.2389 1.96758 14.0483 1.91239 13.6757 1.88194C13.2931 1.85069 12.7981 1.85002 12.07 1.85002H4.93C4.20189 1.85002 3.70694 1.85069 3.32438 1.88194Z" fill="#BBBBBB"/>
<path d="M2.55 10.418V9.75102C2.55 9.50155 2.55 9.37677 2.57819 9.25938C2.60317 9.15534 2.64439 9.05581 2.70031 8.9646C2.76339 8.86167 2.85159 8.77344 3.02801 8.59698L3.94604 7.67898C4.34996 7.27506 4.55192 7.0731 4.78482 6.99745C4.98967 6.93089 5.21033 6.93089 5.41518 6.99745C5.64808 7.0731 5.85004 7.27506 6.25396 7.67898L6.49604 7.92106C6.89996 8.32498 7.10192 8.52694 7.33482 8.60259C7.53967 8.66914 7.76033 8.66914 7.96518 8.60259C8.19808 8.52694 8.40004 8.32498 8.80396 7.92106L10.746 5.97898C11.15 5.57506 11.3519 5.3731 11.5848 5.29745C11.7897 5.2309 12.0103 5.2309 12.2152 5.29745C12.4481 5.3731 12.65 5.57506 13.054 5.97898L13.972 6.89698C14.1484 7.07344 14.2367 7.16167 14.2997 7.2646C14.3557 7.35581 14.3968 7.45534 14.4218 7.55938C14.45 7.67677 14.45 7.80155 14.45 8.05102V10.418C14.45 10.9893 14.45 11.2749 14.3388 11.4931C14.2411 11.685 14.085 11.8411 13.8931 11.9388C13.6749 12.05 13.3893 12.05 12.818 12.05H4.182C3.61072 12.05 3.32513 12.05 3.10693 11.9388C2.91501 11.8411 2.75897 11.685 2.66117 11.4931C2.55 11.2749 2.55 10.9893 2.55 10.418Z" fill="#BBBBBB"/>
<path d="M8.5 4.82502C8.5 5.76393 7.73891 6.52502 6.8 6.52502C5.86109 6.52502 5.1 5.76393 5.1 4.82502C5.1 3.88611 5.86109 3.12502 6.8 3.12502C7.73891 3.12502 8.5 3.88611 8.5 4.82502Z" fill="#BBBBBB"/>
</svg>
