<svg width="40" height="40" viewBox="0 0 40 40" fill="none" xmlns="http://www.w3.org/2000/svg">
<path fill-rule="evenodd" clip-rule="evenodd" d="M20 10C14.4771 10 10 14.4771 10 20C10 25.5229 14.4771 30 20 30C25.5229 30 30 25.5229 30 20C30 14.4771 25.5229 10 20 10ZM7.5 20C7.5 13.0965 13.0965 7.5 20 7.5C26.9035 7.5 32.5 13.0965 32.5 20C32.5 26.9035 26.9035 32.5 20 32.5C13.0965 32.5 7.5 26.9035 7.5 20Z" fill="#F0F0F0"/>
<path fill-rule="evenodd" clip-rule="evenodd" d="M20 13.125C20.6904 13.125 21.25 13.6846 21.25 14.375V21.875C21.25 22.5654 20.6904 23.125 20 23.125C19.3096 23.125 18.75 22.5654 18.75 21.875V14.375C18.75 13.6846 19.3096 13.125 20 13.125Z" fill="#F0F0F0"/>
<path d="M21.5625 25.9375C21.5625 26.8005 20.863 27.5 20 27.5C19.137 27.5 18.4375 26.8005 18.4375 25.9375C18.4375 25.0745 19.137 24.375 20 24.375C20.863 24.375 21.5625 25.0745 21.5625 25.9375Z" fill="#F0F0F0"/>
</svg>
