<svg width="32" height="32" viewBox="0 0 32 32" fill="none" xmlns="http://www.w3.org/2000/svg">
<path d="M11 9.4C11 8.55992 11 8.13988 11.1635 7.81901C11.3073 7.53677 11.5368 7.3073 11.819 7.16349C12.1399 7 12.5599 7 13.4 7H18.6C19.4401 7 19.8601 7 20.181 7.16349C20.4632 7.3073 20.6927 7.53677 20.8365 7.81901C21 8.13988 21 8.55992 21 9.4V22.6C21 23.4401 21 23.8601 20.8365 24.181C20.6927 24.4632 20.4632 24.6927 20.181 24.8365C19.8601 25 19.4401 25 18.6 25H13.4C12.5599 25 12.1399 25 11.819 24.8365C11.5368 24.6927 11.3073 24.4632 11.1635 24.181C11 23.8601 11 23.4401 11 22.6V9.4Z" fill="black"/>
<path fill-rule="evenodd" clip-rule="evenodd" d="M13.3639 6C13.3759 6 13.3879 6 13.4 6L18.6361 6C19.0252 5.99998 19.3753 5.99996 19.6666 6.02376C19.9786 6.04925 20.3101 6.10694 20.635 6.27249C21.1054 6.51217 21.4878 6.89462 21.7275 7.36503C21.8931 7.68993 21.9508 8.0214 21.9762 8.33337C22 8.62469 22 8.97484 22 9.36393V22.6361C22 23.0252 22 23.3753 21.9762 23.6666C21.9508 23.9786 21.8931 24.3101 21.7275 24.635C21.4878 25.1054 21.1054 25.4878 20.635 25.7275C20.3101 25.8931 19.9786 25.9508 19.6666 25.9762C19.3753 26 19.0252 26 18.6361 26H13.3639C12.9748 26 12.6247 26 12.3334 25.9762C12.0214 25.9508 11.6899 25.8931 11.365 25.7275C10.8946 25.4878 10.5122 25.1054 10.2725 24.635C10.1069 24.3101 10.0492 23.9786 10.0238 23.6666C9.99995 23.3753 9.99998 23.0252 10 22.6361L10 9.4C10 9.38794 10 9.37591 10 9.36391C9.99998 8.97482 9.99995 8.62469 10.0238 8.33337C10.0492 8.0214 10.1069 7.68993 10.2725 7.36503C10.5122 6.89462 10.8946 6.51217 11.365 6.27249C11.6899 6.10694 12.0214 6.04925 12.3334 6.02376C12.6247 5.99996 12.9748 5.99998 13.3639 6ZM12.2808 8.05133C12.2756 8.05318 12.273 8.0545 12.273 8.0545C12.1789 8.10244 12.1024 8.17893 12.0545 8.27301C12.0545 8.27301 12.0532 8.27559 12.0513 8.28079C12.0494 8.28621 12.0462 8.29622 12.0423 8.3125C12.0343 8.34673 12.0247 8.40309 12.0171 8.49624C12.0008 8.6962 12 8.96346 12 9.4V22.6C12 23.0365 12.0008 23.3038 12.0171 23.5038C12.0247 23.5969 12.0343 23.6533 12.0423 23.6875C12.0462 23.7038 12.0494 23.7138 12.0513 23.7192C12.0532 23.7244 12.0545 23.727 12.0545 23.727C12.1024 23.8211 12.1789 23.8976 12.273 23.9455C12.273 23.9455 12.2756 23.9468 12.2808 23.9487C12.2862 23.9506 12.2962 23.9538 12.3125 23.9577C12.3467 23.9657 12.4031 23.9753 12.4962 23.9829C12.6962 23.9992 12.9635 24 13.4 24H18.6C19.0365 24 19.3038 23.9992 19.5038 23.9829C19.5969 23.9753 19.6533 23.9657 19.6875 23.9577C19.7038 23.9538 19.7138 23.9506 19.7192 23.9487C19.7244 23.9468 19.727 23.9455 19.727 23.9455C19.8211 23.8976 19.8976 23.8211 19.9455 23.727L19.9466 23.7246C19.9466 23.7246 19.9478 23.7216 19.9487 23.7192C19.9506 23.7138 19.9538 23.7038 19.9577 23.6875C19.9657 23.6533 19.9753 23.5969 19.9829 23.5038C19.9992 23.3038 20 23.0365 20 22.6V9.4C20 8.96346 19.9992 8.6962 19.9829 8.49624C19.9753 8.40309 19.9657 8.34673 19.9577 8.3125C19.9538 8.29622 19.9506 8.28621 19.9487 8.28079C19.9468 8.27559 19.9455 8.27301 19.9455 8.27301C19.8976 8.17893 19.8211 8.10244 19.727 8.0545C19.727 8.0545 19.7244 8.05318 19.7192 8.05133C19.7138 8.0494 19.7038 8.04618 19.6875 8.04235C19.6533 8.03429 19.5969 8.02473 19.5038 8.01712C19.3038 8.00078 19.0365 8 18.6 8H13.4C12.9635 8 12.6962 8.00078 12.4962 8.01712C12.4031 8.02473 12.3467 8.03429 12.3125 8.04235C12.2962 8.04618 12.2862 8.0494 12.2808 8.05133Z" fill="black"/>
<path d="M11 10C11 9.44772 11.4477 9 12 9H20C20.5523 9 21 9.44772 21 10V22C21 22.5523 20.5523 23 20 23H12C11.4477 23 11 22.5523 11 22V10Z" fill="white"/>
<path fill-rule="evenodd" clip-rule="evenodd" d="M10.5 10C10.5 9.17157 11.1716 8.5 12 8.5H20C20.8284 8.5 21.5 9.17157 21.5 10V22C21.5 22.8284 20.8284 23.5 20 23.5H12C11.1716 23.5 10.5 22.8284 10.5 22V10ZM12 9.5C11.7239 9.5 11.5 9.72386 11.5 10V22C11.5 22.2761 11.7239 22.5 12 22.5H20C20.2761 22.5 20.5 22.2761 20.5 22V10C20.5 9.72386 20.2761 9.5 20 9.5H12Z" fill="black"/>
<path d="M17 24.25C17 24.8023 16.5523 25.25 16 25.25C15.4477 25.25 15 24.8023 15 24.25C15 23.6977 15.4477 23.25 16 23.25C16.5523 23.25 17 23.6977 17 24.25Z" fill="white"/>
</svg>
