<svg width="32" height="32" viewBox="0 0 32 32" fill="none" xmlns="http://www.w3.org/2000/svg">
<path fill-rule="evenodd" clip-rule="evenodd" d="M17.8385 6H14.1615C13.6343 5.99998 13.1795 5.99997 12.805 6.03057C12.4096 6.06287 12.0164 6.13419 11.638 6.32698C11.0735 6.6146 10.6146 7.07354 10.327 7.63803C10.1342 8.01641 10.0629 8.40963 10.0306 8.80497C9.99997 9.17955 9.99998 9.63431 10 10.1615V21.8385C9.99998 22.3657 9.99997 22.8205 10.0306 23.195C10.0629 23.5904 10.1342 23.9836 10.327 24.362C10.6146 24.9265 11.0735 25.3854 11.638 25.673C12.0164 25.8658 12.4096 25.9371 12.805 25.9694C13.1795 26 13.6343 26 14.1614 26H17.8386C18.3657 26 18.8205 26 19.195 25.9694C19.5904 25.9371 19.9836 25.8658 20.362 25.673C20.9265 25.3854 21.3854 24.9265 21.673 24.362C21.8658 23.9836 21.9371 23.5904 21.9694 23.195C22 22.8205 22 22.3657 22 21.8385V10.1615C22 9.63432 22 9.17955 21.9694 8.80497C21.9371 8.40963 21.8658 8.01641 21.673 7.63803C21.3854 7.07354 20.9265 6.6146 20.362 6.32698C19.9836 6.13419 19.5904 6.06287 19.195 6.03057C18.8205 5.99997 18.3657 5.99998 17.8385 6ZM12.546 8.109C12.5955 8.0838 12.6962 8.04612 12.9678 8.02393C13.2512 8.00078 13.6234 8 14.2 8H17.8C18.3766 8 18.7488 8.00078 19.0322 8.02393C19.3038 8.04612 19.4045 8.0838 19.454 8.109C19.6422 8.20487 19.7951 8.35785 19.891 8.54601C19.9162 8.59546 19.9539 8.69617 19.9761 8.96784C19.9992 9.25117 20 9.62345 20 10.2V21.8C20 22.3766 19.9992 22.7488 19.9761 23.0322C19.9539 23.3038 19.9162 23.4045 19.891 23.454C19.7951 23.6422 19.6422 23.7951 19.454 23.891C19.4045 23.9162 19.3038 23.9539 19.0322 23.9761C18.7488 23.9992 18.3766 24 17.8 24H14.2C13.6234 24 13.2512 23.9992 12.9678 23.9761C12.6962 23.9539 12.5955 23.9162 12.546 23.891C12.3578 23.7951 12.2049 23.6422 12.109 23.454C12.0838 23.4045 12.0461 23.3038 12.0239 23.0322C12.0008 22.7488 12 22.3766 12 21.8V10.2C12 9.62345 12.0008 9.25117 12.0239 8.96784C12.0461 8.69617 12.0838 8.59546 12.109 8.54601C12.2049 8.35785 12.3578 8.20487 12.546 8.109ZM14.875 8.39999C14.5298 8.39999 14.25 8.67982 14.25 9.02499C14.25 9.37017 14.5298 9.64999 14.875 9.64999H17.125C17.4702 9.64999 17.75 9.37017 17.75 9.02499C17.75 8.67982 17.4702 8.39999 17.125 8.39999H14.875Z" fill="black"/>
</svg>
