<svg width="32" height="32" viewBox="0 0 32 32" fill="none" xmlns="http://www.w3.org/2000/svg">
<path d="M5.5 11.8C5.5 10.1198 5.5 9.27976 5.82698 8.63803C6.1146 8.07354 6.57354 7.6146 7.13803 7.32698C7.77976 7 8.61984 7 10.3 7H21.7C23.3802 7 24.2202 7 24.862 7.32698C25.4265 7.6146 25.8854 8.07354 26.173 8.63803C26.5 9.27976 26.5 10.1198 26.5 11.8V16.2C26.5 17.8802 26.5 18.7202 26.173 19.362C25.8854 19.9265 25.4265 20.3854 24.862 20.673C24.2202 21 23.3802 21 21.7 21H10.3C8.61984 21 7.77976 21 7.13803 20.673C6.57354 20.3854 6.1146 19.9265 5.82698 19.362C5.5 18.7202 5.5 17.8802 5.5 16.2V11.8Z" stroke="black" stroke-width="2"/>
<rect x="11.3333" y="16.3333" width="9.33333" height="2.33333" rx="0.9" fill="black"/>
<rect x="11.3333" y="12.8333" width="2.33333" height="2.33333" rx="0.9" fill="black"/>
<rect x="11.3333" y="9.33334" width="2.33333" height="2.33333" rx="0.9" fill="black"/>
<rect x="7.83334" y="12.8333" width="2.33333" height="2.33333" rx="0.9" fill="black"/>
<rect x="7.83334" y="16.3333" width="2.33333" height="2.33333" rx="1" fill="black"/>
<rect x="7.83334" y="9.33334" width="2.33333" height="2.33333" rx="0.9" fill="black"/>
<rect x="18.3333" y="12.8333" width="2.33333" height="2.33333" rx="0.9" fill="black"/>
<rect x="18.3333" y="9.33334" width="2.33333" height="2.33333" rx="0.9" fill="black"/>
<rect x="21.8333" y="12.8333" width="2.33333" height="2.33333" rx="0.9" fill="black"/>
<rect x="21.8333" y="16.3333" width="2.33333" height="2.33333" rx="0.9" fill="black"/>
<rect x="21.8333" y="9.33334" width="2.33333" height="2.33333" rx="0.9" fill="black"/>
<rect x="14.8333" y="12.8333" width="2.33333" height="2.33333" rx="0.9" fill="black"/>
<rect x="14.8333" y="9.33334" width="2.33333" height="2.33333" rx="0.9" fill="black"/>
<path d="M11 24L15.2845 26.1422C15.5468 26.2734 15.678 26.339 15.8156 26.3648C15.9375 26.3877 16.0625 26.3877 16.1844 26.3648C16.322 26.339 16.4532 26.2734 16.7155 26.1422L21 24" stroke="black" stroke-width="2" stroke-linecap="round" stroke-linejoin="round"/>
</svg>
