<svg width="32" height="32" viewBox="0 0 32 32" fill="none" xmlns="http://www.w3.org/2000/svg">
<path d="M5.5 13.8C5.5 12.1198 5.5 11.2798 5.82698 10.638C6.1146 10.0735 6.57354 9.6146 7.13803 9.32698C7.77976 9 8.61984 9 10.3 9H21.7C23.3802 9 24.2202 9 24.862 9.32698C25.4265 9.6146 25.8854 10.0735 26.173 10.638C26.5 11.2798 26.5 12.1198 26.5 13.8V18.2C26.5 19.8802 26.5 20.7202 26.173 21.362C25.8854 21.9265 25.4265 22.3854 24.862 22.673C24.2202 23 23.3802 23 21.7 23H10.3C8.61984 23 7.77976 23 7.13803 22.673C6.57354 22.3854 6.1146 21.9265 5.82698 21.362C5.5 20.7202 5.5 19.8802 5.5 18.2V13.8Z" stroke="black" stroke-width="2"/>
<rect x="11.3333" y="18.3333" width="9.33333" height="2.33333" rx="0.9" fill="black"/>
<rect x="11.3333" y="14.8333" width="2.33333" height="2.33333" rx="0.9" fill="black"/>
<rect x="11.3333" y="11.3333" width="2.33333" height="2.33333" rx="0.9" fill="black"/>
<rect x="7.83333" y="14.8333" width="2.33333" height="2.33333" rx="0.9" fill="black"/>
<rect x="7.83333" y="18.3333" width="2.33333" height="2.33333" rx="1" fill="black"/>
<rect x="7.83333" y="11.3333" width="2.33333" height="2.33333" rx="0.9" fill="black"/>
<rect x="18.3333" y="14.8333" width="2.33333" height="2.33333" rx="0.9" fill="black"/>
<rect x="18.3333" y="11.3333" width="2.33333" height="2.33333" rx="0.9" fill="black"/>
<rect x="21.8333" y="14.8333" width="2.33333" height="2.33333" rx="0.9" fill="black"/>
<rect x="21.8333" y="18.3333" width="2.33333" height="2.33333" rx="0.9" fill="black"/>
<rect x="21.8333" y="11.3333" width="2.33333" height="2.33333" rx="0.9" fill="black"/>
<rect x="14.8333" y="14.8333" width="2.33333" height="2.33333" rx="0.9" fill="black"/>
<rect x="14.8333" y="11.3333" width="2.33333" height="2.33333" rx="0.9" fill="black"/>
</svg>
