<svg width="32" height="32" viewBox="0 0 32 32" fill="none" xmlns="http://www.w3.org/2000/svg">
<path fill-rule="evenodd" clip-rule="evenodd" d="M18.8004 10.9742L19.6687 11.4704C19.3748 11.9846 18.9353 12.4004 18.4056 12.6652L17.7322 13.0019C17.5341 13.101 17.3972 13.291 17.3658 13.5103L17.2164 14.5565C17.0073 16.0198 15.343 16.7639 14.1132 15.944C13.8925 15.7969 13.7031 15.6075 13.556 15.3868L13.4741 15.264C13.2743 14.9643 12.8892 14.8498 12.5581 14.9916L11.5227 15.4354C11.2056 15.5713 11 15.8831 11 16.2281V17.0272C11 18.3106 9.91826 19.2984 8.67983 19.2322C9.92163 22.0405 12.732 24 16 24C16.4175 24 16.8276 23.968 17.2279 23.9064C16.2558 22.6712 16.3769 20.6641 18.0101 19.7114L18.7114 19.3023L19.2153 20.1661L18.7114 19.3023C18.9953 19.1367 19.3048 19.0192 19.6271 18.9548L20.982 18.6838C21.8947 18.5013 22.7053 18.8381 23.2325 19.4236C23.7247 18.3857 24 17.225 24 16C24 13.0956 22.4523 10.5527 20.1366 9.15108C20.2772 9.82829 20.1863 10.5646 19.8002 11.2401L19.6687 11.4704L18.8004 10.9742ZM6 16C6 10.4772 10.4772 6 16 6C21.5228 6 26 10.4772 26 16C26 21.5228 21.5228 26 16 26C10.4772 26 6 21.5228 6 16Z" fill="black"/>
</svg>
