<svg width="32" height="32" viewBox="0 0 32 32" fill="none" xmlns="http://www.w3.org/2000/svg">
<rect x="7" y="7" width="18" height="12" rx="2" stroke="black" stroke-width="2"/>
<path d="M5.56425 21.0101C6.09006 20.2739 6.35297 19.9058 6.69177 19.64C6.99179 19.4045 7.33394 19.2284 7.69991 19.1212C8.11319 19 8.56551 19 9.47017 19H22.5298C23.4345 19 23.8868 19 24.3001 19.1212C24.6661 19.2284 25.0082 19.4045 25.3082 19.64C25.647 19.9058 25.9099 20.2739 26.4358 21.0101L27.2893 22.205C28.1652 23.4313 28.6031 24.0444 28.5842 24.5556C28.5677 25.0006 28.3543 25.4153 28.0017 25.6875C27.5968 26 26.8433 26 25.3363 26H6.66365C5.15672 26 4.40325 26 3.9983 25.6875C3.64573 25.4153 3.43232 25.0006 3.41581 24.5556C3.39686 24.0444 3.8348 23.4313 4.71069 22.205L5.56425 21.0101Z" stroke="black" stroke-width="2"/>
<path d="M8.15636 21.9053C8.27721 21.7543 8.34483 21.6702 8.39889 21.6094C8.42994 21.5744 8.44512 21.5604 8.44964 21.5565C8.47821 21.5359 8.51017 21.5205 8.54406 21.5111C8.54994 21.51 8.57041 21.5069 8.6171 21.5045C8.69838 21.5003 8.80625 21.5 8.9997 21.5H23.0003C23.1938 21.5 23.3016 21.5003 23.3829 21.5045C23.4296 21.5069 23.4501 21.51 23.4559 21.5111C23.4898 21.5205 23.5218 21.5359 23.5504 21.5565C23.5549 21.5604 23.5701 21.5744 23.6011 21.6094C23.6552 21.6702 23.7228 21.7543 23.8436 21.9053L23.9194 22H8.08062L8.15636 21.9053ZM8.54218 21.5115C8.54214 21.5115 8.54266 21.5113 8.54387 21.5111L8.54218 21.5115ZM23.5489 21.5552C23.5489 21.5552 23.5493 21.5555 23.5502 21.5563C23.5493 21.5557 23.5489 21.5553 23.5489 21.5552Z" fill="white" stroke="black" stroke-width="2"/>
</svg>
