<svg width="32" height="32" viewBox="0 0 32 32" fill="none" xmlns="http://www.w3.org/2000/svg">
<path fill-rule="evenodd" clip-rule="evenodd" d="M7.97526 15.0729C7.77948 15.6755 7.77948 16.3245 7.97526 16.9271C8.10649 17.3309 8.33411 17.6594 8.59082 17.9618C8.83403 18.2483 9.1556 18.5698 9.52835 18.9426L9.52838 18.9426L14.2929 23.7071C14.6834 24.0976 15.3166 24.0976 15.7071 23.7071C16.0976 23.3166 16.0976 22.6834 15.7071 22.2929L10.9698 17.5556C10.7469 17.3327 10.5673 17.1527 10.4202 17L26 17C26.5523 17 27 16.5523 27 16C27 15.4477 26.5523 15 26 15L10.4202 15C10.5673 14.8473 10.7469 14.6673 10.9698 14.4444L15.7071 9.70711C16.0976 9.31658 16.0976 8.68342 15.7071 8.29289C15.3166 7.90237 14.6834 7.90237 14.2929 8.29289L9.5284 13.0574C9.15563 13.4301 8.83404 13.7517 8.59082 14.0382C8.33411 14.3406 8.10649 14.6691 7.97526 15.0729Z" fill="black"/>
</svg>
