<svg width="32" height="32" viewBox="0 0 32 32" fill="none" xmlns="http://www.w3.org/2000/svg">
<path fill-rule="evenodd" clip-rule="evenodd" d="M9.5121 16.618C9.38159 16.2163 9.38159 15.7837 9.5121 15.382C9.60624 15.0922 9.76581 14.8704 9.91424 14.6955C10.0494 14.5363 10.2232 14.3625 10.4017 14.1841L18.2929 6.29289C18.6834 5.90237 19.3166 5.90237 19.7071 6.29289C20.0976 6.68342 20.0976 7.31658 19.7071 7.70711L11.8385 15.5757C11.6288 15.7854 11.5146 15.9007 11.4389 15.9899C11.4359 15.9934 11.4331 15.9968 11.4304 16C11.4331 16.0032 11.4359 16.0066 11.4389 16.0101C11.5146 16.0993 11.6288 16.2146 11.8385 16.4243L19.7071 24.2929C20.0976 24.6834 20.0976 25.3166 19.7071 25.7071C19.3166 26.0976 18.6834 26.0976 18.2929 25.7071L10.4243 17.8385C10.4167 17.8309 10.4092 17.8234 10.4017 17.8159C10.2232 17.6375 10.0494 17.4637 9.91424 17.3045C9.76581 17.1296 9.60624 16.9077 9.5121 16.618Z" fill="black"/>
</svg>
