<svg width="20" height="21" viewBox="0 0 20 21" fill="none" xmlns="http://www.w3.org/2000/svg">
<path fill-rule="evenodd" clip-rule="evenodd" d="M9.63225 4.79466C9.41556 4.90631 9.26768 5.10814 9.24331 5.32156C9.11712 6.42911 8.81681 7.80355 8.10662 8.94748C7.77931 9.47466 7.60018 10.195 7.53231 11.0046C7.46518 11.8058 7.511 12.6429 7.59268 13.3648C7.68018 14.138 8.37962 14.7202 9.25831 14.7202H12.5788C13.5264 14.7202 14.3251 14.0246 14.4401 13.0992L14.7477 10.6208C14.8388 9.88788 14.2575 9.24185 13.507 9.24185H11.1826C10.986 9.24185 10.8009 9.15084 10.6828 8.99613C10.5647 8.84141 10.5276 8.64107 10.5825 8.4553C10.6496 8.22803 10.7208 8.02142 10.7824 7.84284C10.8017 7.78689 10.82 7.73363 10.837 7.6834C10.9109 7.46461 10.9639 7.28831 10.9954 7.10826C11.0544 6.77098 11.0493 6.35345 10.8259 5.60479C10.7322 5.29076 10.5092 5.00618 10.1959 4.79592C10.0486 4.69706 9.84506 4.68504 9.63225 4.79466ZM9.05243 3.70514C9.59018 3.4281 10.2991 3.37647 10.9003 3.77995C11.4124 4.12363 11.8376 4.62923 12.0254 5.25837C12.2862 6.1326 12.3272 6.74558 12.2274 7.31672C12.1835 7.56767 12.1148 7.79629 12.0431 8.01201H13.507C15.0079 8.01201 16.1706 9.30414 15.9886 10.77L15.6808 13.2483C15.4893 14.7908 14.1581 15.9501 12.5788 15.9501H9.25831C7.83268 15.9501 6.51781 14.9808 6.35037 13.5008C6.2635 12.7331 6.21052 11.811 6.28656 10.9035C6.36187 10.0045 6.56787 9.06666 7.03987 8.30637C7.61231 7.3843 7.88362 6.21555 8.00112 5.1845C8.07781 4.51203 8.51862 3.98015 9.05243 3.70514Z" fill="#ED3A3A"/>
<path d="M3.125 9.80082C3.125 9.12158 3.68464 8.57098 4.375 8.57098C5.06536 8.57098 5.625 9.12158 5.625 9.80082V14.1053C5.625 14.7845 5.06536 15.3351 4.375 15.3351C3.68464 15.3351 3.125 14.7845 3.125 14.1053V9.80082Z" fill="#ED3A3A"/>
</svg>
