<svg width="32" height="32" viewBox="0 0 32 32" fill="none" xmlns="http://www.w3.org/2000/svg">
<path fill-rule="evenodd" clip-rule="evenodd" d="M15.4116 6.85876C15.0649 7.04033 14.8283 7.36856 14.7893 7.71562C14.5874 9.51675 14.1069 11.7519 12.9706 13.6122C12.4469 14.4695 12.1603 15.6409 12.0517 16.9575C11.9443 18.2605 12.0176 19.6218 12.1483 20.7957C12.2883 22.0531 13.4074 23 14.8133 23H20.1261C21.6423 23 22.9202 21.8687 23.1041 20.3638L23.5964 16.3334C23.7421 15.1415 22.812 14.0909 21.6112 14.0909H17.8922C17.5776 14.0909 17.2814 13.9429 17.0925 13.6913C16.9036 13.4397 16.8442 13.1139 16.932 12.8118C17.0394 12.4422 17.1533 12.1062 17.2518 11.8158C17.2827 11.7248 17.312 11.6382 17.3392 11.5565C17.4574 11.2007 17.5423 10.914 17.5927 10.6212C17.687 10.0727 17.6789 9.3937 17.3215 8.17622C17.1716 7.66553 16.8147 7.20273 16.3134 6.86082C16.0777 6.70005 15.7521 6.68049 15.4116 6.85876ZM14.4839 5.08695C15.3443 4.63642 16.4786 4.55246 17.4405 5.20861C18.2598 5.7675 18.9402 6.58973 19.2406 7.61286C19.6579 9.03455 19.7235 10.0314 19.5638 10.9602C19.4936 11.3683 19.3837 11.7401 19.2689 12.0909H21.6112C24.0127 12.0909 25.8729 14.1922 25.5817 16.576L25.0893 20.6063C24.7829 23.1147 22.653 25 20.1261 25H14.8133C12.5323 25 10.4285 23.4238 10.1606 21.017C10.0216 19.7684 9.93684 18.2689 10.0585 16.7932C10.179 15.3311 10.5086 13.806 11.2638 12.5696C12.1797 11.0701 12.6138 9.16944 12.8018 7.49272C12.9245 6.39914 13.6298 5.53417 14.4839 5.08695Z" fill="black"/>
<path d="M5 15C5 13.8954 5.89543 13 7 13C8.10457 13 9 13.8954 9 15V22C9 23.1046 8.10457 24 7 24C5.89543 24 5 23.1046 5 22V15Z" fill="black"/>
</svg>
