<svg width="20" height="19" viewBox="0 0 20 19" fill="none" xmlns="http://www.w3.org/2000/svg">
<path fill-rule="evenodd" clip-rule="evenodd" d="M8.89115 0.331786C9.69777 -0.090586 10.7612 -0.169298 11.663 0.445842C12.4311 0.969811 13.0689 1.74065 13.3506 2.69984C13.7418 4.03267 13.8033 4.96722 13.6536 5.83797C13.5877 6.22056 13.4847 6.56912 13.3771 6.898H15.573C17.8244 6.898 19.5683 8.86797 19.2953 11.1028L18.8337 14.8812C18.5465 17.2328 16.5497 19.0003 14.1807 19.0003H9.19996C7.06153 19.0003 5.08921 17.5226 4.83806 15.2661C4.70774 14.0957 4.62828 12.6899 4.74234 11.3064C4.85531 9.93569 5.16431 8.50591 5.87231 7.34678C6.73096 5.941 7.13793 4.15913 7.31418 2.5872C7.42921 1.56196 8.09043 0.751064 8.89115 0.331786ZM1.875 7.75012C0.839466 7.75012 0 8.58956 0 9.62512V16.1876C0 17.2232 0.839466 18.0626 1.875 18.0626C2.91053 18.0626 3.75 17.2232 3.75 16.1876V9.62512C3.75 8.58956 2.91053 7.75012 1.875 7.75012Z" fill="#ED3A3A"/>
</svg>
