<svg width="20" height="19" viewBox="0 0 20 19" fill="none" xmlns="http://www.w3.org/2000/svg">
<path fill-rule="evenodd" clip-rule="evenodd" d="M9.17746 2.79617C9.21403 2.4708 9.43584 2.16308 9.76087 1.99286C10.0801 1.82573 10.3853 1.84407 10.6063 1.99479C11.0763 2.31534 11.4109 2.74921 11.5514 3.22798C11.8865 4.36937 11.8941 5.00594 11.8056 5.52015C11.7584 5.79465 11.6788 6.06344 11.568 6.397C11.5425 6.47359 11.515 6.55478 11.4861 6.64009C11.3937 6.91234 11.2869 7.22734 11.1862 7.57384C11.1039 7.85706 11.1596 8.1625 11.3367 8.39837C11.5138 8.63425 11.7915 8.773 12.0864 8.773H15.573C16.6987 8.773 17.5707 9.75794 17.4341 10.8753L16.9726 14.6538C16.8002 16.0647 15.6022 17.1253 14.1807 17.1253H9.19996C7.88193 17.1253 6.83278 16.2376 6.70153 15.0587C6.57899 13.9582 6.51028 12.682 6.61096 11.4604C6.71278 10.2261 6.98146 9.12794 7.47243 8.32422C8.53771 6.58019 8.98818 4.48472 9.17746 2.79617ZM11.663 0.445842C10.7612 -0.169298 9.69777 -0.090586 8.89115 0.331786C8.09043 0.751064 7.42921 1.56196 7.31418 2.5872C7.13793 4.15913 6.73096 5.941 5.87231 7.34678C5.16431 8.50591 4.85531 9.93569 4.74234 11.3064C4.62828 12.6899 4.70774 14.0957 4.83806 15.2661C5.08921 17.5226 7.06153 19.0003 9.19996 19.0003H14.1807C16.5497 19.0003 18.5465 17.2328 18.8337 14.8812L19.2953 11.1028C19.5683 8.86797 17.8244 6.898 15.573 6.898H13.3771C13.4847 6.56912 13.5877 6.22056 13.6536 5.83797C13.8033 4.96722 13.7418 4.03267 13.3506 2.69984C13.0689 1.74065 12.4311 0.969811 11.663 0.445842ZM1.875 7.75012C0.839466 7.75012 0 8.58956 0 9.62512V16.1876C0 17.2232 0.839466 18.0626 1.875 18.0626C2.91053 18.0626 3.75 17.2232 3.75 16.1876V9.62512C3.75 8.58956 2.91053 7.75012 1.875 7.75012Z" fill="#ED3A3A"/>
</svg>
