<svg width="32" height="32" viewBox="0 0 32 32" fill="none" xmlns="http://www.w3.org/2000/svg">
<path fill-rule="evenodd" clip-rule="evenodd" d="M10.3527 26.0002C10.3975 26.0001 10.4424 26 10.4876 26H21.5123C21.5574 26 21.6024 26.0001 21.6472 26.0002C22.4851 26.0017 23.2621 26.0031 24.0327 25.4756C24.3646 25.2484 24.6431 24.8989 24.8341 24.6013C25.025 24.3036 25.2266 23.9048 25.2948 23.5084C25.3649 23.1005 25.3665 22.7402 25.2793 22.3689C25.2055 22.0545 25.0723 21.7647 24.9602 21.5206C24.9541 21.5073 24.948 21.4941 24.942 21.481C23.4501 18.2275 19.9815 16 15.9999 16C12.0184 16 8.54975 18.2275 7.05784 21.481C7.05185 21.4941 7.04578 21.5073 7.03965 21.5206C6.92753 21.7647 6.79435 22.0545 6.72056 22.3689C6.6334 22.7402 6.63493 23.1005 6.70506 23.5084C6.77322 23.9048 6.97481 24.3036 7.16577 24.6013C7.35673 24.8989 7.63525 25.2484 7.96719 25.4756C8.73775 26.0031 9.51473 26.0017 10.3527 26.0002ZM10.4876 24C9.45091 24 9.30656 23.9688 9.09684 23.8252C9.09726 23.8255 9.09712 23.8254 9.09642 23.8248C9.09176 23.821 9.06235 23.7973 9.01353 23.7419C8.96133 23.6827 8.9039 23.6067 8.84912 23.5213C8.79433 23.4359 8.74917 23.352 8.71713 23.2799C8.68717 23.2125 8.6778 23.1758 8.67631 23.17C8.67609 23.1691 8.67605 23.169 8.67613 23.1695C8.64139 22.9674 8.65399 22.8841 8.66765 22.8259C8.69064 22.7279 8.73731 22.6167 8.87581 22.3147C10.023 19.8129 12.7541 18 15.9999 18C19.2458 18 21.9769 19.8129 23.124 22.3147C23.2626 22.6167 23.3092 22.7279 23.3322 22.8259C23.3459 22.8841 23.3585 22.9674 23.3237 23.1695C23.3238 23.169 23.3238 23.1691 23.3235 23.17C23.3221 23.1758 23.3127 23.2125 23.2827 23.2799C23.2507 23.352 23.2055 23.4359 23.1507 23.5213C23.096 23.6067 23.0385 23.6827 22.9863 23.7419C22.9375 23.7973 22.9081 23.821 22.9034 23.8248C22.9027 23.8254 22.9026 23.8255 22.903 23.8252C22.6933 23.9688 22.549 24 21.5123 24H10.4876Z" fill="black"/>
<path fill-rule="evenodd" clip-rule="evenodd" d="M16 7.5C14.3431 7.5 13 8.84315 13 10.5C13 12.1569 14.3431 13.5 16 13.5C17.6569 13.5 19 12.1569 19 10.5C19 8.84315 17.6569 7.5 16 7.5ZM11 10.5C11 7.73858 13.2386 5.5 16 5.5C18.7614 5.5 21 7.73858 21 10.5C21 13.2614 18.7614 15.5 16 15.5C13.2386 15.5 11 13.2614 11 10.5Z" fill="black"/>
</svg>
