<svg width="36" height="36" viewBox="0 0 36 36" fill="none" xmlns="http://www.w3.org/2000/svg">
<g clip-path="url(#clip0_1220_196)">
<path fill-rule="evenodd" clip-rule="evenodd" d="M11.6467 30.2502C11.6971 30.2501 11.7476 30.25 11.7985 30.25H24.2013C24.252 30.25 24.3026 30.2501 24.353 30.2502C25.2957 30.2519 26.1698 30.2535 27.0367 29.6601C27.4101 29.4045 27.7234 29.0113 27.9383 28.6765C28.1531 28.3415 28.3799 27.8929 28.4566 27.447C28.5354 26.9881 28.5372 26.5827 28.4391 26.165C28.3561 25.8113 28.2063 25.4853 28.0802 25.2108C28.0733 25.1957 28.0664 25.1809 28.0597 25.1661C26.3813 21.5059 22.4791 19 17.9998 19C13.5206 19 9.6184 21.5059 7.94 25.1661C7.93326 25.1809 7.92643 25.1957 7.91953 25.2107C7.7934 25.4853 7.64357 25.8113 7.56056 26.165C7.4625 26.5827 7.46422 26.9881 7.54312 27.447C7.6198 27.8929 7.84659 28.3415 8.06142 28.6765C8.27625 29.0113 8.58958 29.4045 8.96302 29.6601C9.8299 30.2535 10.704 30.2519 11.6467 30.2502ZM11.7985 28C10.6322 28 10.4698 27.9649 10.2339 27.8033C10.2343 27.8037 10.2347 27.804 10.2339 27.8033C10.2286 27.7991 10.1951 27.772 10.1401 27.7096C10.0814 27.643 10.0168 27.5575 9.95519 27.4615C9.89355 27.3654 9.84273 27.271 9.8067 27.1899C9.77299 27.1141 9.76245 27.0728 9.76078 27.0663C9.76053 27.0652 9.76069 27.0657 9.76078 27.0663C9.72169 26.8389 9.73567 26.7446 9.75103 26.6791C9.7769 26.5689 9.8294 26.4438 9.98521 26.104C11.2758 23.2895 14.3483 21.25 17.9998 21.25C21.6515 21.25 24.7239 23.2895 26.0144 26.104C26.1704 26.4438 26.2228 26.5689 26.2487 26.6791C26.2641 26.7446 26.2782 26.8383 26.2391 27.0657C26.2392 27.0651 26.2394 27.0647 26.2391 27.0657C26.2375 27.0722 26.2267 27.1141 26.193 27.1899C26.157 27.271 26.1061 27.3654 26.0445 27.4615C25.9829 27.5575 25.9182 27.643 25.8595 27.7096C25.8046 27.772 25.7715 27.7986 25.7663 27.8029C25.7655 27.8036 25.7658 27.8032 25.7663 27.8029C25.5303 27.9645 25.3676 28 24.2013 28H11.7985Z" fill="#BBBBBB"/>
<path fill-rule="evenodd" clip-rule="evenodd" d="M18 9.4375C16.136 9.4375 14.625 10.9485 14.625 12.8125C14.625 14.6765 16.136 16.1875 18 16.1875C19.864 16.1875 21.375 14.6765 21.375 12.8125C21.375 10.9485 19.864 9.4375 18 9.4375ZM12.375 12.8125C12.375 9.7059 14.8934 7.1875 18 7.1875C21.1066 7.1875 23.625 9.7059 23.625 12.8125C23.625 15.9191 21.1066 18.4375 18 18.4375C14.8934 18.4375 12.375 15.9191 12.375 12.8125Z" fill="#BBBBBB"/>
</g>
<defs>
<clipPath id="clip0_1220_196">
<rect width="36" height="36" fill="white"/>
</clipPath>
</defs>
</svg>
