<svg width="32" height="32" viewBox="0 0 32 32" fill="none" xmlns="http://www.w3.org/2000/svg">
<path d="M18 16C18 17.1046 17.1046 18 16 18C14.8954 18 14 17.1046 14 16C14 14.8954 14.8954 14 16 14C17.1046 14 18 14.8954 18 16Z" fill="black"/>
<path d="M12 16C12 17.1046 11.1046 18 10 18C8.89543 18 8 17.1046 8 16C8 14.8954 8.89543 14 10 14C11.1046 14 12 14.8954 12 16Z" fill="black"/>
<path d="M24 16C24 17.1046 23.1046 18 22 18C20.8954 18 20 17.1046 20 16C20 14.8954 20.8954 14 22 14C23.1046 14 24 14.8954 24 16Z" fill="black"/>
</svg>
