<svg width="32" height="32" viewBox="0 0 32 32" fill="none" xmlns="http://www.w3.org/2000/svg">
<g clip-path="url(#clip0_895_22650)">
<path fill-rule="evenodd" clip-rule="evenodd" d="M7.11108 22.8889C7.11108 22.3366 7.5588 21.8889 8.11108 21.8889H23.8889C24.4412 21.8889 24.8889 22.3366 24.8889 22.8889C24.8889 23.4412 24.4412 23.8889 23.8889 23.8889H8.11108C7.5588 23.8889 7.11108 23.4412 7.11108 22.8889Z" fill="#ED3A3A"/>
<path fill-rule="evenodd" clip-rule="evenodd" d="M7.11108 16C7.11108 15.4477 7.5588 15 8.11108 15H23.8889C24.4412 15 24.8889 15.4477 24.8889 16C24.8889 16.5523 24.4412 17 23.8889 17H8.11108C7.5588 17 7.11108 16.5523 7.11108 16Z" fill="#ED3A3A"/>
<path fill-rule="evenodd" clip-rule="evenodd" d="M7.11108 9.11111C7.11108 8.55883 7.5588 8.11111 8.11108 8.11111H23.8889C24.4412 8.11111 24.8889 8.55883 24.8889 9.11111C24.8889 9.66341 24.4412 10.1111 23.8889 10.1111H8.11108C7.5588 10.1111 7.11108 9.66341 7.11108 9.11111Z" fill="#ED3A3A"/>
</g>
<defs>
<clipPath id="clip0_895_22650">
<rect width="32" height="32" fill="white"/>
</clipPath>
</defs>
</svg>
