<svg width="32" height="32" viewBox="0 0 32 32" fill="none" xmlns="http://www.w3.org/2000/svg">
<path fill-rule="evenodd" clip-rule="evenodd" d="M8 22C8 21.4477 8.44772 21 9 21H23C23.5523 21 24 21.4477 24 22C24 22.5523 23.5523 23 23 23H9C8.44772 23 8 22.5523 8 22Z" fill="black"/>
<path fill-rule="evenodd" clip-rule="evenodd" d="M8 16C8 15.4477 8.44772 15 9 15H23C23.5523 15 24 15.4477 24 16C24 16.5523 23.5523 17 23 17H9C8.44772 17 8 16.5523 8 16Z" fill="black"/>
<path fill-rule="evenodd" clip-rule="evenodd" d="M8 10C8 9.44772 8.44772 9 9 9H23C23.5523 9 24 9.44772 24 10C24 10.5523 23.5523 11 23 11H9C8.44772 11 8 10.5523 8 10Z" fill="black"/>
</svg>
