<svg width="32" height="32" viewBox="0 0 32 32" fill="none" xmlns="http://www.w3.org/2000/svg">
<path fill-rule="evenodd" clip-rule="evenodd" d="M24.927 6.34349L24.9015 6.31797L24.9015 6.31797C24.6264 6.04283 24.3788 5.79523 24.156 5.60607C23.9173 5.4035 23.6422 5.2099 23.2954 5.09722C22.7933 4.93408 22.2524 4.93408 21.7503 5.09722C21.4035 5.2099 21.1283 5.4035 20.8897 5.60607C20.6669 5.79523 20.4193 6.04283 20.1442 6.31797L20.1442 6.31797L20.1187 6.34349L19.3348 7.12737C18.8307 7.1884 18.3427 7.41235 17.9558 7.79921C17.5689 8.18607 17.345 8.67414 17.284 9.17818L8.54294 17.9192L8.5103 17.9518C8.34837 18.1136 8.20544 18.2563 8.08125 18.4197C7.97193 18.5635 7.87582 18.7169 7.79409 18.878C7.70125 19.061 7.6351 19.2519 7.56016 19.4681L7.54504 19.5117L6.05987 23.7902L6.05987 23.7902C5.98327 24.0107 5.90504 24.2359 5.85771 24.4265C5.81227 24.6094 5.73931 24.9574 5.87019 25.3303C6.02104 25.76 6.35896 26.0979 6.7887 26.2488C7.16153 26.3797 7.50954 26.3067 7.69248 26.2613C7.88308 26.2139 8.10831 26.1357 8.32882 26.0591L12.6073 24.5739L12.6509 24.5588C12.8671 24.4839 13.058 24.4177 13.241 24.3249C13.4021 24.2432 13.5555 24.1471 13.6993 24.0377C13.8626 23.9135 14.0054 23.7706 14.1672 23.6087L14.1672 23.6087L14.1998 23.576L22.9408 14.835C23.4449 14.774 23.9329 14.55 24.3198 14.1632C24.7066 13.7763 24.9305 13.2883 24.9916 12.7843L25.801 11.9748L25.801 11.9748C26.0762 11.6997 26.3238 11.4521 26.5129 11.2293C26.7155 10.9907 26.9091 10.7155 27.0218 10.3687C27.1849 9.86662 27.1849 9.32575 27.0218 8.82364C26.9091 8.47684 26.7155 8.20166 26.5129 7.96304C26.3238 7.74022 26.0762 7.49265 25.801 7.21754L25.801 7.21754L25.7755 7.19202L24.927 6.34349ZM19.8676 9.21271L22.9063 12.2513C23.0432 12.389 23.0429 12.6116 22.9055 12.749C22.7679 12.8866 22.5448 12.8866 22.4072 12.749L19.37 9.71177C19.2324 9.57415 19.2324 9.35104 19.37 9.21343C19.5074 9.07605 19.73 9.07581 19.8676 9.21271ZM24.2154 10.732L24.3613 10.5861C24.67 10.2775 24.8584 10.0879 24.9883 9.93497C25.0487 9.86372 25.0818 9.81711 25.1003 9.78721C25.1091 9.77299 25.1139 9.76363 25.1164 9.75844C25.1188 9.75345 25.1195 9.75112 25.1197 9.75069C25.1523 9.65027 25.1523 9.5421 25.1197 9.44168C25.1195 9.44125 25.1188 9.43892 25.1164 9.43393C25.1139 9.42873 25.1091 9.41938 25.1003 9.40516C25.0818 9.37525 25.0487 9.32864 24.9883 9.2574C24.8584 9.10445 24.67 8.91491 24.3613 8.60623L23.5128 7.75771C23.2041 7.44903 23.0146 7.26059 22.8616 7.13075C22.7904 7.07026 22.7438 7.03717 22.7138 7.01867C22.6996 7.00987 22.6903 7.00506 22.6851 7.0026C22.6801 7.00023 22.6778 6.99947 22.6773 6.99933C22.5769 6.96671 22.4687 6.96671 22.3683 6.99933C22.3679 6.99947 22.3656 7.00023 22.3606 7.0026C22.3554 7.00506 22.346 7.00987 22.3318 7.01867C22.3019 7.03717 22.2553 7.07026 22.184 7.13075C22.0311 7.26059 21.8416 7.44903 21.5329 7.75771L21.387 7.90362L24.2154 10.732ZM18.0602 11.2304L9.95715 19.3334L9.91163 19.379L12.74 22.2073L12.7856 22.1618L20.8886 14.0588L18.0602 11.2304ZM8.4464 23.0139L9.03179 21.3276L10.7914 23.0872L9.10507 23.6726L8.4464 23.0139Z" fill="black"/>
</svg>
