<svg width="42" height="42" viewBox="0 0 42 42" fill="none" xmlns="http://www.w3.org/2000/svg">
<g clip-path="url(#clip0_824_5874)">
<path fill-rule="evenodd" clip-rule="evenodd" d="M22.7759 11.9557C23.2885 11.4431 24.1194 11.4431 24.6321 11.9557L30.2005 17.5241C30.713 18.0366 30.713 18.8677 30.2005 19.3802L18.6372 30.9435C18.6228 30.9579 18.6086 30.9722 18.5944 30.9864C18.3821 31.1989 18.1947 31.3865 17.9803 31.5495C17.7916 31.6931 17.5903 31.8192 17.3788 31.9264C17.1386 32.0482 16.8881 32.1351 16.6043 32.2334C16.5853 32.24 16.5662 32.2467 16.5471 32.2532L10.9316 34.2026C10.6421 34.3031 10.3465 34.4057 10.0964 34.4679C9.85626 34.5275 9.39951 34.6233 8.91015 34.4515C8.34613 34.2535 7.90261 33.81 7.70462 33.246C7.53284 32.7567 7.62859 32.2998 7.68823 32.0598C7.75036 31.8096 7.85304 31.514 7.95358 31.2246L9.90286 25.6091C9.90953 25.5899 9.91615 25.5708 9.9227 25.5519C10.0211 25.2681 10.1079 25.0176 10.2297 24.7774C10.337 24.5659 10.4631 24.3646 10.6066 24.1758C10.7696 23.9614 10.9572 23.7741 11.1698 23.5617C11.1839 23.5475 11.1982 23.5334 11.2126 23.5189L22.7759 11.9557ZM23.704 14.7399L13.0688 25.3751C12.7904 25.6535 12.7379 25.7099 12.6963 25.7645C12.6485 25.8274 12.6065 25.8946 12.5707 25.965C12.5396 26.0262 12.5118 26.098 12.3827 26.47L10.6262 31.5299L15.6862 29.7734C16.0582 29.6444 16.13 29.6166 16.1911 29.5854C16.2616 29.5497 16.3287 29.5076 16.3917 29.4598C16.4463 29.4182 16.5027 29.3659 16.7811 29.0874L27.4163 18.4522L23.704 14.7399Z" fill="#ED3A3A"/>
<path fill-rule="evenodd" clip-rule="evenodd" d="M15.7932 31.9314L10.2247 26.363L12.0809 24.5067L17.6493 30.0753L15.7932 31.9314Z" fill="#ED3A3A"/>
<path fill-rule="evenodd" clip-rule="evenodd" d="M10.5901 33.4223L8.73391 31.5662L10.5901 29.71L12.4462 31.5662L10.5901 33.4223Z" fill="#ED3A3A"/>
<path fill-rule="evenodd" clip-rule="evenodd" d="M23.567 10.2365C24.7726 9.03072 26.7276 9.03072 27.9334 10.2365L31.9196 14.2228C33.1254 15.4286 33.1254 17.3834 31.9196 18.5892C30.7139 19.7948 28.759 19.7948 27.5533 18.5892L23.567 14.6029C22.3612 13.3971 22.3612 11.4422 23.567 10.2365ZM26.0771 12.0926C25.8965 11.912 25.6037 11.912 25.4231 12.0926C25.2425 12.2732 25.2425 12.5661 25.4231 12.7467L29.4094 16.733C29.59 16.9136 29.8829 16.9136 30.0635 16.733C30.2441 16.5524 30.2441 16.2595 30.0635 16.0789L26.0771 12.0926Z" fill="#ED3A3A"/>
<path fill-rule="evenodd" clip-rule="evenodd" d="M32.6832 8.29238C32.6942 8.30351 32.7054 8.31468 32.7167 8.32587L33.8303 9.43957C33.8415 9.45076 33.8527 9.46192 33.8638 9.47305C34.225 9.83414 34.55 10.1591 34.7982 10.4515C35.0641 10.7647 35.3182 11.1259 35.4661 11.5811C35.6802 12.2401 35.6802 12.95 35.4661 13.6089C35.3182 14.0641 35.0641 14.4253 34.7982 14.7385C34.55 15.031 34.225 15.3559 33.8638 15.717L32.7108 16.8701C32.1983 17.3826 31.3672 17.3826 30.8546 16.8701L25.2861 11.3016C24.7736 10.789 24.7736 9.95802 25.2861 9.44545L26.4058 8.32587C26.417 8.31468 26.4281 8.30351 26.4393 8.29238C26.8003 7.93125 27.1253 7.60628 27.4177 7.35801C27.7309 7.09212 28.0921 6.83803 28.5473 6.69014C29.2063 6.47601 29.9161 6.47601 30.5752 6.69014C31.0304 6.83803 31.3915 7.09212 31.7048 7.35801C31.9972 7.60628 32.322 7.93125 32.6832 8.29238ZM29.7742 9.19094C29.7676 9.18784 29.764 9.18666 29.764 9.18666C29.6322 9.14383 29.4902 9.14383 29.3584 9.18666C29.3584 9.18666 29.3549 9.18784 29.3483 9.19094C29.3415 9.19417 29.3291 9.20048 29.3105 9.21205C29.2712 9.23633 29.2101 9.27976 29.1165 9.35915C28.9158 9.52957 28.667 9.77688 28.2619 10.182L28.0704 10.3735L31.7827 14.0858L31.9742 13.8943C32.3794 13.4892 32.6266 13.2404 32.797 13.0397C32.8764 12.9462 32.9199 12.885 32.9441 12.8458C32.9557 12.8271 32.962 12.8148 32.9653 12.808C32.9684 12.8014 32.9696 12.7978 32.9696 12.7978C33.0124 12.666 33.0124 12.524 32.9696 12.3922C32.9696 12.3922 32.9684 12.3886 32.9653 12.3821C32.962 12.3752 32.9557 12.363 32.9441 12.3443C32.9199 12.3051 32.8764 12.2439 32.797 12.1504C32.6266 11.9496 32.3794 11.7009 31.9742 11.2957L30.8606 10.182C30.4554 9.77688 30.2067 9.52957 30.0059 9.35915C29.9124 9.27976 29.8511 9.23633 29.8119 9.21205C29.7932 9.20048 29.781 9.19417 29.7742 9.19094Z" fill="#ED3A3A"/>
</g>
<defs>
<clipPath id="clip0_824_5874">
<rect width="42" height="42" fill="white"/>
</clipPath>
</defs>
</svg>
