<svg width="32" height="32" viewBox="0 0 32 32" fill="none" xmlns="http://www.w3.org/2000/svg">
<path d="M7.90152 21.2152L7.10334 21.8176L7.90152 21.2152ZM8.89393 19.7152L8.92103 18.7156L8.89393 19.7152ZM19.753 6.99292L19.3044 7.88663L19.753 6.99292ZM17.6626 10.2127C17.6626 14.9105 13.8542 18.7188 9.15642 18.7188V20.7188C14.9588 20.7188 19.6626 16.015 19.6626 10.2127H17.6626ZM17.4792 8.44681C17.5993 9.01562 17.6626 9.6062 17.6626 10.2127H19.6626C19.6626 9.46661 19.5846 8.73767 19.4362 8.0339L17.4792 8.44681ZM19.3044 7.88663C22.091 9.28554 24 12.1677 24 15.4938H26C26 11.3823 23.6381 7.82429 20.2016 6.0992L19.3044 7.88663ZM24 15.4938C24 20.1917 20.1917 24 15.4939 24V26C21.2962 26 26 21.2962 26 15.4938H24ZM15.4939 24C12.7187 24 10.254 22.6721 8.69969 20.6127L7.10334 21.8176C9.01928 24.3561 12.0647 26 15.4939 26V24ZM9.15642 18.7188C9.07768 18.7188 8.99921 18.7177 8.92103 18.7156L8.86683 20.7149C8.96307 20.7175 9.0596 20.7188 9.15642 20.7188V18.7188ZM8.69969 20.6127C8.69967 20.6127 8.70776 20.6238 8.71511 20.6462C8.72246 20.6686 8.72618 20.6937 8.72562 20.7182C8.72451 20.7673 8.70803 20.7874 8.71291 20.7804C8.71816 20.7729 8.73558 20.7538 8.76777 20.7374C8.79795 20.7221 8.83178 20.7139 8.86683 20.7149L8.92103 18.7156C8.16016 18.695 7.47117 19.0682 7.07587 19.6314C6.65904 20.2254 6.55093 21.0857 7.10334 21.8176L8.69969 20.6127ZM19.4362 8.0339C19.4288 7.99925 19.4308 7.96409 19.4405 7.93128C19.4509 7.8963 19.4667 7.87556 19.4731 7.86906C19.479 7.86301 19.4621 7.88306 19.4136 7.89312C19.3893 7.89816 19.3638 7.89903 19.3403 7.89582C19.3168 7.89262 19.3043 7.88661 19.3044 7.88663L20.2016 6.0992C19.3817 5.68758 18.5549 5.94974 18.0463 6.46749C17.5643 6.9582 17.3223 7.70295 17.4792 8.44681L19.4362 8.0339Z" fill="black"/>
</svg>
