<svg width="32" height="32" viewBox="0 0 32 32" fill="none" xmlns="http://www.w3.org/2000/svg">
<path d="M10 13.5C10 13.0357 10 12.8036 10.0128 12.6076C10.2098 9.60304 12.603 7.20977 15.6076 7.01285C15.8036 7 16.0357 7 16.5 7V7C16.9643 7 17.1964 7 17.3924 7.01285C20.397 7.20977 22.7902 9.60304 22.9872 12.6076C23 12.8036 23 13.0357 23 13.5V18.5C23 22.0899 20.0899 25 16.5 25V25C12.9101 25 10 22.0899 10 18.5V13.5Z" stroke="black" stroke-width="2"/>
<path d="M16.5 7.5V15M16.5 15H10M16.5 15H23" stroke="black" stroke-width="2" stroke-linecap="round" stroke-linejoin="round"/>
</svg>
