<svg width="34" height="34" viewBox="0 0 34 34" fill="none" xmlns="http://www.w3.org/2000/svg">
<g clip-path="url(#clip0_938_1088)">
<path d="M20.1875 25.5C20.1875 27.2605 18.7605 28.6875 17 28.6875C15.2395 28.6875 13.8125 27.2605 13.8125 25.5C13.8125 23.7395 15.2395 22.3125 17 22.3125C18.7605 22.3125 20.1875 23.7395 20.1875 25.5Z" fill="white"/>
<path fill-rule="evenodd" clip-rule="evenodd" d="M17 23.375C15.8264 23.375 14.875 24.3264 14.875 25.5C14.875 26.6736 15.8264 27.625 17 27.625C18.1736 27.625 19.125 26.6736 19.125 25.5C19.125 24.3264 18.1736 23.375 17 23.375ZM12.75 25.5C12.75 23.1528 14.6528 21.25 17 21.25C19.3472 21.25 21.25 23.1528 21.25 25.5C21.25 27.8472 19.3472 29.75 17 29.75C14.6528 29.75 12.75 27.8472 12.75 25.5Z" fill="#333333"/>
<path d="M19.1009 8.82166C19.1168 8.71676 19.1251 8.60934 19.1251 8.5C19.1251 7.32639 18.1737 6.375 17.0001 6.375C15.8265 6.375 14.8751 7.32639 14.8751 8.5C14.8751 8.60935 14.8834 8.71677 14.8993 8.82167C11.9884 9.73819 9.87287 12.5094 9.87287 15.7857L9.87288 16.8654C9.86998 19.6718 9.15635 21.2804 7.18351 22.79C6.46571 23.3392 6.85737 24.4375 7.76121 24.4375H26.2391C27.1429 24.4375 27.5346 23.3392 26.8168 22.79C24.8399 21.2773 24.1274 19.6695 24.1274 16.8482V15.7857C24.1274 12.5094 22.0118 9.73818 19.1009 8.82166Z" fill="white"/>
<path fill-rule="evenodd" clip-rule="evenodd" d="M13.8398 8.082C14.0444 6.51913 15.3814 5.3125 17.0001 5.3125C18.6188 5.3125 19.9558 6.51912 20.1604 8.08199C23.1233 9.34596 25.1899 12.3269 25.1899 15.7857V16.8482C25.1899 18.1757 25.3587 19.1172 25.6994 19.8733C26.0345 20.617 26.5746 21.2668 27.4624 21.9461C29.0317 23.147 28.1022 25.5 26.2391 25.5H7.76121C5.89809 25.5 4.96848 23.147 6.53784 21.9461C7.42342 21.2685 7.96324 20.619 8.29864 19.8765C8.63949 19.122 8.80898 18.1838 8.81039 16.8649L8.81037 15.7857C8.81037 12.3269 10.8769 9.34598 13.8398 8.082ZM17.0001 7.4375C16.4133 7.4375 15.9376 7.9132 15.9376 8.5C15.9376 8.55577 15.9419 8.60987 15.9497 8.66216C16.0283 9.17997 15.718 9.67782 15.2184 9.83512C12.7499 10.6124 10.9354 12.9733 10.9354 15.7857V16.8666C10.9339 18.3536 10.7451 19.6227 10.2352 20.7514C9.77275 21.7751 9.07831 22.6127 8.15494 23.375H25.8453C24.9202 22.6114 24.2246 21.7729 23.7621 20.7464C23.2523 19.6151 23.0649 18.3421 23.0649 16.8483V15.7857C23.0649 12.9733 21.2503 10.6123 18.7818 9.83512C18.2822 9.67782 17.9719 9.17996 18.0505 8.66216C18.0584 8.60986 18.0626 8.55577 18.0626 8.5C18.0626 7.9132 17.5869 7.4375 17.0001 7.4375Z" fill="#333333"/>
</g>
<defs>
<clipPath id="clip0_938_1088">
<rect width="34" height="34" fill="white"/>
</clipPath>
</defs>
</svg>
