<svg width="32" height="32" viewBox="0 0 32 32" fill="none" xmlns="http://www.w3.org/2000/svg">
<circle cx="16" cy="24" r="3" stroke="black" stroke-width="2"/>
<path d="M17.9772 8.30274C17.9922 8.20401 18 8.10291 18 8C18 6.89543 17.1046 6 16 6C14.8954 6 14 6.89543 14 8C14 8.10292 14.0078 8.20402 14.0228 8.30275C11.2831 9.16536 9.29202 11.7736 9.29202 14.8571L9.29203 15.8733C9.2893 18.5146 8.61765 20.0286 6.76086 21.4494C6.08528 21.9663 6.4539 23 7.30457 23H24.6955C25.5462 23 25.9148 21.9663 25.2392 21.4494C23.3786 20.0257 22.708 18.5125 22.708 15.8571L22.708 14.8571C22.708 11.7736 20.7169 9.16535 17.9772 8.30274Z" fill="white" stroke="black" stroke-width="2" stroke-linecap="round" stroke-linejoin="round"/>
</svg>
