<svg width="32" height="32" viewBox="0 0 32 32" fill="none" xmlns="http://www.w3.org/2000/svg">
<path fill-rule="evenodd" clip-rule="evenodd" d="M10 18.2071V23.2071C10 24.864 11.3431 26.2071 13 26.2071C14.6569 26.2071 16 24.864 16 23.2071V19.2612L20.5405 20.7747C21.2034 20.9957 21.7629 21.1822 22.2254 21.2922C22.7024 21.4057 23.1983 21.4704 23.7031 21.3487C24.467 21.1646 25.1282 20.688 25.5445 20.0215C25.8195 19.5812 25.915 19.0902 25.9582 18.6018C26 18.1283 26 17.5385 26 16.8398V10.5745C26 9.87577 26 9.28597 25.9582 8.81243C25.915 8.32403 25.8195 7.83309 25.5445 7.39274C25.1282 6.72623 24.467 6.24968 23.7031 6.06552C23.1983 5.94385 22.7024 6.00855 22.2254 6.12201C21.7629 6.23203 21.2034 6.41854 20.5405 6.63953L12.8377 9.20712H10.1421C9.62385 9.2071 9.17672 9.20709 8.80824 9.2367C8.41944 9.26794 8.03249 9.3369 7.65907 9.52349C7.07793 9.81387 6.60675 10.285 6.31637 10.8662C6.12978 11.2396 6.06082 11.6266 6.02958 12.0154C5.99997 12.3838 5.99998 12.8309 6 13.3492V14.065C5.99998 14.5833 5.99997 15.0304 6.02958 15.3989C6.06082 15.7877 6.12978 16.1746 6.31637 16.5481C6.60675 17.1292 7.07793 17.6004 7.65907 17.8908C8.03249 18.0773 8.41944 18.1463 8.80824 18.1775C9.1426 18.2044 9.54172 18.2069 10 18.2071ZM22.6882 8.06772C22.3222 8.15479 21.8472 8.31216 21.1306 8.55101L14 10.9279V16.4864L21.1306 18.8632C21.8472 19.1021 22.3222 19.2595 22.6882 19.3465C23.0495 19.4325 23.1818 19.4171 23.2344 19.4044C23.489 19.343 23.7094 19.1842 23.8482 18.962C23.8768 18.9161 23.9332 18.7956 23.9659 18.4256C23.9991 18.0508 24 17.5504 24 16.7951V10.6191C24 9.86383 23.9991 9.36341 23.9659 8.98864C23.9332 8.61868 23.8768 8.4981 23.8482 8.45223C23.7094 8.23006 23.489 8.07121 23.2344 8.00982C23.1818 7.99715 23.0495 7.98178 22.6882 8.06772ZM12.8377 18.2071H12V23.2071C12 23.7594 12.4477 24.2071 13 24.2071C13.5523 24.2071 14 23.7594 14 23.2071V18.5946L12.8377 18.2071ZM12 16.2071V11.2071H10.18C9.61317 11.2071 9.24717 11.2079 8.96845 11.2303C8.70111 11.2518 8.6017 11.2883 8.55302 11.3126C8.35931 11.4094 8.20225 11.5664 8.10546 11.7601C8.08114 11.8088 8.04464 11.9082 8.02315 12.1756C8.00075 12.4543 8 12.8203 8 13.3871V14.0271C8 14.594 8.00075 14.96 8.02315 15.2387C8.04464 15.506 8.08114 15.6054 8.10546 15.6541C8.20225 15.8478 8.35931 16.0049 8.55302 16.1017C8.6017 16.126 8.70111 16.1625 8.96845 16.184C9.24717 16.2064 9.61317 16.2071 10.18 16.2071H12Z" fill="#333333"/>
</svg>
