<svg width="32" height="32" viewBox="0 0 32 32" fill="none" xmlns="http://www.w3.org/2000/svg">
<path d="M11 23V17H15V23C15 24.1046 14.1046 25 13 25C11.8954 25 11 24.1046 11 23Z" stroke="black" stroke-width="2" stroke-linecap="round" stroke-linejoin="round"/>
<path d="M10.18 17L13 17L13 10L10.18 10C9.07876 10 8.52814 10 8.10604 10.2109C7.71862 10.4045 7.4045 10.7186 7.21091 11.106C7 11.5281 7 12.0788 7 13.18L7 13.82C7 14.9212 7 15.4719 7.21091 15.894C7.4045 16.2814 7.71861 16.5955 8.10604 16.7891C8.52814 17 9.07876 17 10.18 17Z" stroke="black" stroke-width="2" stroke-linecap="round" stroke-linejoin="round"/>
<path d="M20.8144 7.3952L13 10V17L20.8144 19.6048C22.2124 20.0708 22.9114 20.3038 23.4687 20.1695C23.978 20.0467 24.4188 19.729 24.6963 19.2846C25 18.7984 25 18.0616 25 16.588V10.412C25 8.93839 25 8.20158 24.6963 7.71536C24.4188 7.27102 23.978 6.95332 23.4687 6.83055C22.9114 6.6962 22.2124 6.9292 20.8144 7.3952Z" fill="#D9D9D9" stroke="black" stroke-width="2" stroke-linecap="round" stroke-linejoin="round"/>
</svg>
