<svg width="32" height="32" viewBox="0 0 32 32" fill="none" xmlns="http://www.w3.org/2000/svg">
<path fill-rule="evenodd" clip-rule="evenodd" d="M16 5C14.4765 5 13.2182 6.13565 13.0256 7.60659C10.237 8.79622 8.29202 11.6018 8.29202 14.8571L8.29203 15.8728C8.29071 17.1142 8.13119 17.9972 7.81039 18.7073C7.49472 19.4061 6.98665 20.0174 6.15316 20.6552C4.67612 21.7854 5.55105 24 7.30457 24H12C12 26.2091 13.7909 28 16 28C18.2091 28 20 26.2091 20 24H24.6955C26.449 24 27.3239 21.7854 25.8469 20.6552C25.0113 20.0158 24.503 19.4042 24.1876 18.7043C23.8669 17.9927 23.708 17.1065 23.708 15.8571L23.708 14.8571C23.708 11.6018 21.763 8.7962 18.9744 7.60658C18.7818 6.13564 17.5235 5 16 5ZM17.493 22H24.3249C23.4542 21.2813 22.7995 20.4921 22.3642 19.526C21.8844 18.4613 21.708 17.2632 21.708 15.8572L21.708 14.8571C21.708 12.2102 20.0002 9.98809 17.6769 9.25658C17.2067 9.10854 16.9146 8.63996 16.9886 8.15262C16.996 8.1034 17 8.05249 17 8C17 7.44772 16.5523 7 16 7C15.4477 7 15 7.44772 15 8C15 8.05249 15.004 8.10341 15.0114 8.15262C15.0854 8.63997 14.7933 9.10854 14.3231 9.25658C11.9998 9.9881 10.292 12.2102 10.292 14.8571L10.292 15.8744C10.2906 17.274 10.1129 18.4684 9.63304 19.5307C9.19778 20.4942 8.54419 21.2825 7.67514 22H14.507C14.8116 21.9921 15.1347 21.9946 15.471 21.9973C15.6441 21.9986 15.8207 22 16 22C15.9972 22 15.9944 22 15.9916 22H16.0084C16.0056 22 16.0028 22 16 22C16.1793 22 16.3559 21.9986 16.529 21.9973C16.8653 21.9946 17.1884 21.9921 17.493 22ZM14 24H18C18 25.1046 17.1046 26 16 26C14.8954 26 14 25.1046 14 24Z" fill="black"/>
</svg>
