<svg width="32" height="32" viewBox="0 0 32 32" fill="none" xmlns="http://www.w3.org/2000/svg">
<path d="M9.5 9.2C9.5 8.07989 9.5 7.51984 9.71799 7.09202C9.90973 6.71569 10.2157 6.40973 10.592 6.21799C11.0198 6 11.5799 6 12.7 6H17.7C19.3802 6 20.2202 6 20.862 6.32698C21.4265 6.6146 21.8854 7.07354 22.173 7.63803C22.5 8.27976 22.5 9.11984 22.5 10.8V20.8C22.5 21.9201 22.5 22.4802 22.282 22.908C22.0903 23.2843 21.7843 23.5903 21.408 23.782C20.9802 24 20.4201 24 19.3 24H12.7C11.5799 24 11.0198 24 10.592 23.782C10.2157 23.5903 9.90973 23.2843 9.71799 22.908C9.5 22.4802 9.5 21.9201 9.5 20.8V9.2Z" stroke="black" stroke-width="2"/>
<path d="M17.6142 9.24567L11.5571 6.82283C10.5718 6.42872 9.5 7.15435 9.5 8.21555V22.6459C9.5 23.4637 9.9979 24.1992 10.7572 24.5029L17.4429 27.1772C18.4282 27.5713 19.5 26.8456 19.5 25.7845V12.0311C19.5 10.8044 18.7531 9.70126 17.6142 9.24567Z" fill="white" stroke="black" stroke-width="2" stroke-linecap="round" stroke-linejoin="round"/>
<circle cx="16.45" cy="17.65" r="1.25" fill="black"/>
</svg>
