<svg width="32" height="32" viewBox="0 0 32 32" fill="none" xmlns="http://www.w3.org/2000/svg">
<path fill-rule="evenodd" clip-rule="evenodd" d="M12.1615 6H19.8385C20.3657 5.99998 20.8205 5.99997 21.195 6.03057C21.5904 6.06287 21.9836 6.13419 22.362 6.32698C22.9265 6.6146 23.3854 7.07354 23.673 7.63803C23.8658 8.01641 23.9371 8.40963 23.9694 8.80497C24 9.17955 24 9.63432 24 10.1615V17.6745C24 17.7025 24 17.7303 24.0001 17.7578C24.0004 18.1647 24.0008 18.5235 23.9171 18.8719C23.8436 19.178 23.7224 19.4707 23.5579 19.7391C23.3707 20.0446 23.1168 20.2981 22.8288 20.5855C22.8093 20.605 22.7896 20.6246 22.7698 20.6444L18.6444 24.7698C18.6246 24.7896 18.605 24.8093 18.5855 24.8288C18.298 25.1168 18.0446 25.3707 17.7391 25.5579C17.4707 25.7224 17.178 25.8436 16.8719 25.9171C16.5235 26.0008 16.1647 26.0004 15.7578 26.0001C15.7303 26 15.7025 26 15.6745 26H12.1614C11.6343 26 11.1795 26 10.805 25.9694C10.4096 25.9371 10.0164 25.8658 9.63803 25.673C9.07354 25.3854 8.6146 24.9265 8.32698 24.362C8.13419 23.9836 8.06287 23.5904 8.03057 23.195C7.99997 22.8205 7.99998 22.3657 8 21.8385V10.1615C7.99998 9.63431 7.99997 9.17955 8.03057 8.80497C8.06287 8.40963 8.13419 8.01641 8.32698 7.63803C8.6146 7.07354 9.07354 6.6146 9.63803 6.32698C10.0164 6.13419 10.4096 6.06287 10.805 6.03057C11.1795 5.99997 11.6343 5.99998 12.1615 6ZM10.9678 8.02393C10.6962 8.04612 10.5955 8.0838 10.546 8.109C10.3578 8.20487 10.2049 8.35785 10.109 8.54601C10.0838 8.59546 10.0461 8.69617 10.0239 8.96784C10.0008 9.25117 10 9.62345 10 10.2V21.8C10 22.3766 10.0008 22.7488 10.0239 23.0322C10.0461 23.3038 10.0838 23.4045 10.109 23.454C10.2049 23.6422 10.3578 23.7951 10.546 23.891C10.5955 23.9162 10.6962 23.9539 10.9678 23.9761C11.2512 23.9992 11.6234 24 12.2 24H15.6745C16.2113 24 16.3167 23.9936 16.405 23.9724C16.5071 23.9479 16.6046 23.9075 16.6941 23.8526C16.7715 23.8052 16.8506 23.7352 17.2302 23.3556L21.3556 19.2302C21.7352 18.8506 21.8052 18.7715 21.8526 18.6941C21.9075 18.6046 21.9479 18.5071 21.9724 18.405C21.9936 18.3167 22 18.2113 22 17.6745V10.2C22 9.62345 21.9992 9.25117 21.9761 8.96784C21.9539 8.69617 21.9162 8.59546 21.891 8.54601C21.7951 8.35785 21.6422 8.20487 21.454 8.109C21.4045 8.0838 21.3038 8.04612 21.0322 8.02393C20.7488 8.00078 20.3766 8 19.8 8H12.2C11.6234 8 11.2512 8.00078 10.9678 8.02393Z" fill="black"/>
<path fill-rule="evenodd" clip-rule="evenodd" d="M20.5858 20H20.2C19.6234 20 19.2512 20.0008 18.9678 20.0239C18.6962 20.0461 18.5955 20.0838 18.546 20.109C18.3578 20.2049 18.2049 20.3579 18.109 20.546C18.0838 20.5955 18.0461 20.6962 18.0239 20.9678C18.0008 21.2512 18 21.6235 18 22.2V22.5858L20.5858 20ZM22.3489 18.0129C22.4722 18.0238 22.8211 18.0562 23.12 18.3115C23.4365 18.5817 23.6044 18.9872 23.5717 19.402C23.5409 19.7939 23.317 20.0635 23.2376 20.1584C23.143 20.2714 23.0182 20.3961 22.9085 20.5057C22.9015 20.5127 22.8946 20.5197 22.8877 20.5265L18.5265 24.8877C18.5196 24.8946 18.5127 24.9015 18.5057 24.9085C18.396 25.0183 18.2714 25.143 18.1584 25.2376C18.0635 25.3171 17.7939 25.5409 17.402 25.5717C16.9871 25.6044 16.5817 25.4365 16.3115 25.12C16.0562 24.8211 16.0238 24.4722 16.0129 24.3489C15.9999 24.2021 15.9999 24.0258 16 23.8706C16 23.8607 16 23.8509 16 23.8412L16 22.1615C16 21.6343 16 21.1796 16.0306 20.805C16.0629 20.4096 16.1342 20.0164 16.327 19.638C16.6146 19.0736 17.0735 18.6146 17.638 18.327C18.0164 18.1342 18.4096 18.0629 18.805 18.0306C19.1795 18 19.6343 18 20.1615 18L21.8412 18C21.8509 18 21.8607 18 21.8706 18C22.0258 18 22.2021 17.9999 22.3489 18.0129Z" fill="black"/>
<path d="M11.137 13H12.1575V11.8291H12.7591C13.6453 11.8318 14.2308 11.3081 14.2308 10.4756C14.2308 9.65649 13.6614 9.11133 12.7913 9.11133H11.137V13ZM12.1575 11.0342V9.92773H12.555C12.939 9.93042 13.1646 10.1372 13.1619 10.4756C13.1646 10.8167 12.939 11.0315 12.555 11.0342H12.1575Z" fill="black"/>
<path d="M15.9731 13C17.1602 13 17.9067 12.2695 17.9067 11.0557C17.9067 9.83911 17.1602 9.11133 15.9624 9.11133H14.4961V13H15.9731ZM15.5166 12.1299V9.98145H15.9087C16.5344 9.98145 16.8755 10.2339 16.8755 11.0557C16.8755 11.8748 16.5344 12.1299 15.9355 12.1299H15.5166Z" fill="black"/>
<path d="M18.2687 13H19.2893V11.4692H20.8093V10.6421H19.2893V9.93848H20.9812V9.11133H18.2687V13Z" fill="black"/>
<path fill-rule="evenodd" clip-rule="evenodd" d="M11 14.5C11 14.2239 11.2239 14 11.5 14H20.5C20.7761 14 21 14.2239 21 14.5C21 14.7761 20.7761 15 20.5 15H11.5C11.2239 15 11 14.7761 11 14.5ZM11 16.5C11 16.2239 11.2239 16 11.5 16H20.5C20.7761 16 21 16.2239 21 16.5C21 16.7761 20.7761 17 20.5 17H11.5C11.2239 17 11 16.7761 11 16.5ZM11 18.5C11 18.2239 11.2239 18 11.5 18H14.5C14.7761 18 15 18.2239 15 18.5C15 18.7761 14.7761 19 14.5 19H11.5C11.2239 19 11 18.7761 11 18.5Z" fill="black"/>
</svg>
