<svg width="32" height="32" viewBox="0 0 32 32" fill="none" xmlns="http://www.w3.org/2000/svg">
<path d="M22.0627 19.9373L17.9373 24.0627C17.5914 24.4086 17.4184 24.5816 17.2166 24.7053C17.0376 24.8149 16.8425 24.8957 16.6385 24.9447C16.4083 25 16.1637 25 15.6745 25H12.2C11.0799 25 10.5198 25 10.092 24.782C9.71569 24.5903 9.40973 24.2843 9.21799 23.908C9 23.4802 9 22.9201 9 21.8V10.2C9 9.0799 9 8.51984 9.21799 8.09202C9.40973 7.71569 9.71569 7.40973 10.092 7.21799C10.5198 7 11.0799 7 12.2 7H19.8C20.9201 7 21.4802 7 21.908 7.21799C22.2843 7.40973 22.5903 7.71569 22.782 8.09202C23 8.51984 23 9.0799 23 10.2V17.6745C23 18.1637 23 18.4083 22.9447 18.6385C22.8957 18.8425 22.8149 19.0376 22.7053 19.2166C22.5816 19.4184 22.4086 19.5914 22.0627 19.9373Z" stroke="black" stroke-width="2"/>
<path d="M17 22.2V23.8412C17 24.2047 17 24.3864 17.0719 24.4706C17.1342 24.5436 17.2278 24.5823 17.3235 24.5748C17.4339 24.5661 17.5624 24.4376 17.8194 24.1806L22.1806 19.8194L22.1806 19.8194C22.4376 19.5624 22.5661 19.4339 22.5748 19.3235C22.5823 19.2278 22.5436 19.1342 22.4706 19.0719C22.3864 19 22.2047 19 21.8412 19H20.2C19.0799 19 18.5198 19 18.092 19.218C17.7157 19.4097 17.4097 19.7157 17.218 20.092C17 20.5198 17 21.0799 17 22.2Z" stroke="black" stroke-width="2" stroke-linecap="round"/>
<path d="M11.137 13H12.1575V11.8291H12.7591C13.6453 11.8318 14.2308 11.3081 14.2308 10.4756C14.2308 9.65649 13.6614 9.11133 12.7913 9.11133H11.137V13ZM12.1575 11.0342V9.92773H12.555C12.939 9.93042 13.1646 10.1372 13.1619 10.4756C13.1646 10.8167 12.939 11.0315 12.555 11.0342H12.1575ZM15.9731 13C17.1602 13 17.9067 12.2695 17.9067 11.0557C17.9067 9.83911 17.1602 9.11133 15.9624 9.11133H14.4961V13H15.9731ZM15.5166 12.1299V9.98145H15.9087C16.5344 9.98145 16.8755 10.2339 16.8755 11.0557C16.8755 11.8748 16.5344 12.1299 15.9355 12.1299H15.5166ZM18.2687 13H19.2893V11.4692H20.8093V10.6421H19.2893V9.93848H20.9812V9.11133H18.2687V13Z" fill="black"/>
<path d="M11.5 14.5H20.5M11.5 16.5H20.5M11.5 18.5H14.5" stroke="black" stroke-linecap="round"/>
</svg>
