<svg width="32" height="32" viewBox="0 0 32 32" fill="none" xmlns="http://www.w3.org/2000/svg">
<path d="M22.0627 19.9373L17.9373 24.0627C17.5914 24.4086 17.4184 24.5816 17.2166 24.7053C17.0376 24.8149 16.8425 24.8957 16.6385 24.9447C16.4083 25 16.1637 25 15.6745 25H12.2C11.0799 25 10.5198 25 10.092 24.782C9.71569 24.5903 9.40973 24.2843 9.21799 23.908C9 23.4802 9 22.9201 9 21.8V10.2C9 9.0799 9 8.51984 9.21799 8.09202C9.40973 7.71569 9.71569 7.40973 10.092 7.21799C10.5198 7 11.0799 7 12.2 7H19.8C20.9201 7 21.4802 7 21.908 7.21799C22.2843 7.40973 22.5903 7.71569 22.782 8.09202C23 8.51984 23 9.0799 23 10.2V17.6745C23 18.1637 23 18.4083 22.9447 18.6385C22.8957 18.8425 22.8149 19.0376 22.7053 19.2166C22.5816 19.4184 22.4086 19.5914 22.0627 19.9373Z" stroke="black" stroke-width="2"/>
<path d="M10.6563 13H11.6768V11.8291H12.2784C13.1646 11.8318 13.75 11.3081 13.75 10.4756C13.75 9.65649 13.1807 9.11133 12.3106 9.11133H10.6563V13ZM11.6768 11.0342V9.92773H12.0743C12.4583 9.93042 12.6839 10.1372 12.6812 10.4756C12.6839 10.8167 12.4583 11.0315 12.0743 11.0342H11.6768ZM17.3616 9.11133H16.3411V11.2007H16.3088L14.8855 9.11133H14.0154V13H15.0359V10.8999H15.0627L16.5076 13H17.3616V9.11133ZM20.2802 10.3896H21.3168C21.2309 9.61084 20.5273 9.05762 19.6142 9.05762C18.5668 9.05762 17.7263 9.78271 17.7236 11.061C17.7263 12.2937 18.4916 13.0537 19.6196 13.0537C20.6347 13.0537 21.3598 12.4307 21.3598 11.3726V10.8408H19.6518V11.5713H20.3715C20.3662 11.9312 20.1137 12.1594 19.6303 12.1621C19.0717 12.1594 18.7763 11.7485 18.7763 11.0503C18.7763 10.3547 19.0932 9.94922 19.6357 9.94922C19.9768 9.94922 20.2104 10.1104 20.2802 10.3896Z" fill="black"/>
<path d="M11.5586 18.1485L12.8586 16.8485C12.9367 16.7704 13.0633 16.7704 13.1414 16.8485L14.1515 17.8586C14.6201 18.3272 15.3799 18.3272 15.8485 17.8586L18.8586 14.8485C18.9367 14.7704 19.0633 14.7704 19.1414 14.8485L20.4414 16.1485C20.4789 16.186 20.5 16.2369 20.5 16.2899V22C20.5 22.2761 20.2761 22.5 20 22.5H11.7C11.5895 22.5 11.5 22.4105 11.5 22.3V18.2899C11.5 18.2369 11.5211 18.186 11.5586 18.1485Z" fill="black" stroke="black" stroke-linecap="round"/>
<path d="M17 22.2V23.8412C17 24.2047 17 24.3864 17.0719 24.4706C17.1342 24.5436 17.2278 24.5823 17.3235 24.5748C17.4339 24.5661 17.5624 24.4376 17.8194 24.1806L22.1806 19.8194L22.1806 19.8194C22.4376 19.5624 22.5661 19.4339 22.5748 19.3235C22.5823 19.2278 22.5436 19.1342 22.4706 19.0719C22.3864 19 22.2047 19 21.8412 19H20.2C19.0799 19 18.5198 19 18.092 19.218C17.7157 19.4097 17.4097 19.7157 17.218 20.092C17 20.5198 17 21.0799 17 22.2Z" fill="white" stroke="black" stroke-width="2" stroke-linecap="round"/>
<circle cx="14.75" cy="15.25" r="1.25" fill="black"/>
</svg>
