<svg width="34" height="34" viewBox="0 0 34 34" fill="none" xmlns="http://www.w3.org/2000/svg">
<path fill-rule="evenodd" clip-rule="evenodd" d="M12.2188 23.375C12.2188 22.7882 12.6944 22.3125 13.2812 22.3125H24.9688C25.5556 22.3125 26.0312 22.7882 26.0312 23.375C26.0312 23.9618 25.5556 24.4375 24.9688 24.4375H13.2812C12.6944 24.4375 12.2188 23.9618 12.2188 23.375Z" fill="#333333"/>
<path fill-rule="evenodd" clip-rule="evenodd" d="M12.2188 17C12.2188 16.4132 12.6944 15.9375 13.2812 15.9375H24.9688C25.5556 15.9375 26.0312 16.4132 26.0312 17C26.0312 17.5868 25.5556 18.0625 24.9688 18.0625H13.2812C12.6944 18.0625 12.2188 17.5868 12.2188 17Z" fill="#333333"/>
<path fill-rule="evenodd" clip-rule="evenodd" d="M12.2188 10.625C12.2188 10.0382 12.6944 9.5625 13.2812 9.5625H24.9688C25.5556 9.5625 26.0312 10.0382 26.0312 10.625C26.0312 11.2118 25.5556 11.6875 24.9688 11.6875H13.2812C12.6944 11.6875 12.2188 11.2118 12.2188 10.625Z" fill="#333333"/>
<path d="M10.625 10.625C10.625 11.5052 9.91146 12.2188 9.03125 12.2188C8.15104 12.2188 7.4375 11.5052 7.4375 10.625C7.4375 9.74479 8.15104 9.03125 9.03125 9.03125C9.91146 9.03125 10.625 9.74479 10.625 10.625Z" fill="#333333"/>
<path d="M10.625 17C10.625 17.8802 9.91146 18.5938 9.03125 18.5938C8.15104 18.5938 7.4375 17.8802 7.4375 17C7.4375 16.1198 8.15104 15.4062 9.03125 15.4062C9.91146 15.4062 10.625 16.1198 10.625 17Z" fill="#333333"/>
<path d="M10.625 23.375C10.625 24.2552 9.91146 24.9688 9.03125 24.9688C8.15104 24.9688 7.4375 24.2552 7.4375 23.375C7.4375 22.4948 8.15104 21.7812 9.03125 21.7812C9.91146 21.7812 10.625 22.4948 10.625 23.375Z" fill="#333333"/>
</svg>
