<svg width="32" height="32" viewBox="0 0 32 32" fill="none" xmlns="http://www.w3.org/2000/svg">
<path d="M17 7H11.8C10.1198 7 9.27976 7 8.63803 7.32698C8.07354 7.6146 7.6146 8.07354 7.32698 8.63803C7 9.27976 7 10.1198 7 11.8V20.2C7 21.8802 7 22.7202 7.32698 23.362C7.6146 23.9265 8.07354 24.3854 8.63803 24.673C9.27976 25 10.1198 25 11.8 25H20.2C21.8802 25 22.7202 25 23.362 24.673C23.9265 24.3854 24.3854 23.9265 24.673 23.362C25 22.7202 25 21.8802 25 20.2V16" stroke="black" stroke-width="2" stroke-linecap="round" stroke-linejoin="round"/>
<path d="M16.7659 18.0331L25.5564 9.24264C25.8852 8.91385 26.0496 8.74945 26.1483 8.57843C26.4162 8.11433 26.4162 7.54253 26.1483 7.07843C26.0496 6.90741 25.8852 6.74301 25.5564 6.41421C25.2276 6.08542 25.0632 5.92102 24.8922 5.82228C24.428 5.55433 23.8563 5.55433 23.3922 5.82228C23.2211 5.92102 23.0567 6.08542 22.7279 6.41421L13.9374 15.2047C13.6719 15.4703 13.5391 15.6031 13.4248 15.7499C13.3232 15.8804 13.2326 16.0191 13.1539 16.1645C13.0652 16.3282 12.9969 16.5031 12.8603 16.8529L12.8603 16.8529L12.078 18.8564C11.8682 19.3937 11.7633 19.6624 11.8206 19.8341C11.8704 19.9832 11.9874 20.1002 12.1365 20.15C12.3081 20.2073 12.5768 20.1024 13.1142 19.8925L15.1177 19.1102C15.4675 18.9736 15.6424 18.9053 15.8061 18.8167C15.9515 18.738 16.0902 18.6474 16.2206 18.5458C16.3675 18.4315 16.5003 18.2987 16.7659 18.0331Z" stroke="black" stroke-width="2" stroke-linecap="round" stroke-linejoin="round"/>
<path d="M13.5355 15.6066L16.3639 18.435" stroke="black" stroke-width="2" stroke-linecap="round" stroke-linejoin="round"/>
</svg>
