<svg width="36" height="36" viewBox="0 0 36 36" fill="none" xmlns="http://www.w3.org/2000/svg">
<g clip-path="url(#clip0_1220_539)">
<path fill-rule="evenodd" clip-rule="evenodd" d="M13.2285 6.75H19.125C19.7463 6.75 20.25 7.25369 20.25 7.875C20.25 8.49633 19.7463 9 19.125 9H13.275C12.3113 9 11.6562 9.00088 11.1499 9.04224C10.6567 9.08254 10.4045 9.15559 10.2285 9.24524C9.80516 9.46095 9.46095 9.80516 9.24524 10.2285C9.15559 10.4045 9.08254 10.6567 9.04224 11.1499C9.00088 11.6562 9 12.3113 9 13.275V22.725C9 23.6887 9.00088 24.3438 9.04224 24.8501C9.08254 25.3433 9.15559 25.5956 9.24524 25.7715C9.46095 26.1948 9.80516 26.5391 10.2285 26.7547C10.4045 26.8444 10.6567 26.9174 11.1499 26.9577C11.6562 26.9991 12.3113 27 13.275 27H22.725C23.6887 27 24.3438 26.9991 24.8501 26.9577C25.3433 26.9174 25.5956 26.8444 25.7715 26.7547C26.1948 26.5391 26.5391 26.1948 26.7547 25.7715C26.8444 25.5956 26.9174 25.3433 26.9577 24.8501C26.9991 24.3438 27 23.6887 27 22.725V18C27 17.3787 27.5037 16.875 28.125 16.875C28.7463 16.875 29.25 17.3787 29.25 18V22.7715C29.25 23.6771 29.25 24.4244 29.2003 25.0333C29.1486 25.6656 29.0377 26.2469 28.7595 26.793C28.3281 27.6397 27.6397 28.3281 26.793 28.7595C26.2469 29.0377 25.6656 29.1486 25.0333 29.2003C24.4244 29.25 23.6771 29.25 22.7715 29.25H13.2285C12.3229 29.25 11.5756 29.25 10.9667 29.2003C10.3343 29.1486 9.75304 29.0377 9.20705 28.7595C8.36031 28.3281 7.6719 27.6397 7.24047 26.793C6.96227 26.2469 6.85139 25.6656 6.79971 25.0333C6.74998 24.4244 6.74999 23.6771 6.75 22.7715V13.2285C6.74999 12.3229 6.74998 11.5756 6.79971 10.9667C6.85139 10.3343 6.96227 9.75304 7.24047 9.20705C7.6719 8.36031 8.36031 7.6719 9.20705 7.24047C9.75304 6.96227 10.3343 6.85139 10.9667 6.79971C11.5756 6.74998 12.3229 6.74999 13.2285 6.75Z" fill="#ED3A3A"/>
<path fill-rule="evenodd" clip-rule="evenodd" d="M29.4724 6.34637C29.4971 6.37107 29.5217 6.39579 29.5463 6.4205C29.5711 6.4452 29.5958 6.46984 29.6205 6.49446C29.9143 6.78728 30.2031 7.0751 30.3911 7.40073C30.8935 8.27092 30.8935 9.34303 30.3911 10.2132C30.2031 10.5389 29.9143 10.8267 29.6205 11.1195C29.5958 11.1441 29.5711 11.1688 29.5463 11.1935L19.657 21.0827C19.6433 21.0966 19.6297 21.1102 19.6162 21.1237C19.3569 21.3832 19.1607 21.5794 18.9393 21.7518C18.7435 21.9041 18.5355 22.0401 18.3175 22.1581C18.0706 22.2918 17.8122 22.3926 17.4705 22.5259C17.4527 22.5329 17.4347 22.5398 17.4166 22.547L13.2501 24.1739C12.8341 24.3363 12.3613 24.2372 12.0455 23.9214C11.7296 23.6055 11.6306 23.1328 11.793 22.7167L13.4199 18.5504C13.427 18.5321 13.434 18.5141 13.4409 18.4965C13.5742 18.1547 13.6752 17.8962 13.8087 17.6495C13.9268 17.4313 14.0627 17.2233 14.215 17.0277C14.3874 16.8063 14.5837 16.6101 14.8431 16.3507C14.8566 16.3372 14.8702 16.3236 14.8841 16.3098L24.7734 6.4205C24.7981 6.39579 24.8228 6.37107 24.8473 6.34637C25.1402 6.05257 25.428 5.76379 25.7536 5.57579C26.6238 5.07338 27.6959 5.07338 28.5661 5.57579C28.8918 5.76379 29.1796 6.05257 29.4724 6.34637ZM27.5523 7.61688C27.4635 7.53591 27.4374 7.52217 27.4411 7.52435C27.2671 7.42386 27.0526 7.42386 26.8786 7.52435C26.8824 7.52217 26.8562 7.53591 26.7675 7.61688C26.6743 7.70194 26.5565 7.81932 26.3644 8.01148L16.4751 17.9008C16.1575 18.2184 16.0665 18.3122 15.9905 18.4097C15.9144 18.5076 15.8464 18.6116 15.7873 18.7207C15.7285 18.8293 15.6791 18.9504 15.5158 19.3687L14.8224 21.1445L16.5981 20.451C17.0165 20.2877 17.1375 20.2384 17.2462 20.1795C17.3553 20.1204 17.4593 20.0525 17.5571 19.9763C17.6547 19.9004 17.7484 19.8093 18.066 19.4917L27.9553 9.60247C28.1475 9.41032 28.2649 9.29254 28.35 9.19936C28.431 9.11065 28.4447 9.08447 28.4425 9.08823C28.543 8.9142 28.543 8.69977 28.4425 8.52573C28.4447 8.5295 28.431 8.50331 28.35 8.41459C28.2649 8.32141 28.1475 8.20365 27.9553 8.01148C27.7632 7.81932 27.6454 7.70194 27.5523 7.61688Z" fill="#ED3A3A"/>
<path fill-rule="evenodd" clip-rule="evenodd" d="M14.4319 16.7619C14.8712 16.3226 15.5836 16.3226 16.0229 16.7619L19.2049 19.9439C19.6443 20.3832 19.6443 21.0955 19.2049 21.5349C18.7655 21.9743 18.0533 21.9743 17.6139 21.5349L14.4319 18.3529C13.9926 17.9136 13.9926 17.2013 14.4319 16.7619Z" fill="#ED3A3A"/>
</g>
<defs>
<clipPath id="clip0_1220_539">
<rect width="36" height="36" fill="white"/>
</clipPath>
</defs>
</svg>
