<svg width="32" height="32" viewBox="0 0 32 32" fill="none" xmlns="http://www.w3.org/2000/svg">
<path fill-rule="evenodd" clip-rule="evenodd" d="M8.5 11.5C9.32843 11.5 10 10.8284 10 10C10 9.17157 9.32843 8.5 8.5 8.5C7.67157 8.5 7 9.17157 7 10C7 10.8284 7.67157 11.5 8.5 11.5ZM11.5 10C11.5 9.44771 11.9477 9 12.5 9H23.5C24.0523 9 24.5 9.44771 24.5 10C24.5 10.5523 24.0523 11 23.5 11H12.5C11.9477 11 11.5 10.5523 11.5 10ZM12.5 15C11.9477 15 11.5 15.4477 11.5 16C11.5 16.5523 11.9477 17 12.5 17H23.5C24.0523 17 24.5 16.5523 24.5 16C24.5 15.4477 24.0523 15 23.5 15H12.5ZM12.5 21C11.9477 21 11.5 21.4477 11.5 22C11.5 22.5523 11.9477 23 12.5 23H23.5C24.0523 23 24.5 22.5523 24.5 22C24.5 21.4477 24.0523 21 23.5 21H12.5ZM10 16C10 16.8284 9.32843 17.5 8.5 17.5C7.67157 17.5 7 16.8284 7 16C7 15.1716 7.67157 14.5 8.5 14.5C9.32843 14.5 10 15.1716 10 16ZM8.5 23.5C9.32843 23.5 10 22.8284 10 22C10 21.1716 9.32843 20.5 8.5 20.5C7.67157 20.5 7 21.1716 7 22C7 22.8284 7.67157 23.5 8.5 23.5Z" fill="black"/>
</svg>
