<svg width="32" height="32" viewBox="0 0 32 32" fill="none" xmlns="http://www.w3.org/2000/svg">
<path fill-rule="evenodd" clip-rule="evenodd" d="M21.4879 15.382C21.6184 15.7837 21.6184 16.2163 21.4879 16.618C21.3938 16.9078 21.2342 17.1296 21.0858 17.3045C20.9506 17.4637 20.7768 17.6375 20.5983 17.8159L12.7071 25.7071C12.3166 26.0976 11.6834 26.0976 11.2929 25.7071C10.9024 25.3166 10.9024 24.6834 11.2929 24.2929L19.1615 16.4243C19.3712 16.2146 19.4854 16.0993 19.5611 16.0101C19.5641 16.0066 19.5669 16.0032 19.5696 16C19.5669 15.9968 19.5641 15.9934 19.5611 15.9899C19.4854 15.9007 19.3712 15.7854 19.1615 15.5757L11.2929 7.70711C10.9024 7.31658 10.9024 6.68342 11.2929 6.29289C11.6834 5.90237 12.3166 5.90237 12.7071 6.29289L20.5757 14.1615C20.5833 14.1691 20.5908 14.1766 20.5983 14.1841C20.7768 14.3625 20.9506 14.5363 21.0858 14.6955C21.2342 14.8704 21.3938 15.0923 21.4879 15.382Z" fill="black"/>
</svg>
