<svg width="32" height="32" viewBox="0 0 32 32" fill="none" xmlns="http://www.w3.org/2000/svg">
<path fill-rule="evenodd" clip-rule="evenodd" d="M23.4092 17.9618C23.6659 17.6594 23.8935 17.3309 24.0247 16.9271C24.2205 16.3245 24.2205 15.6755 24.0247 15.0729C23.8935 14.6691 23.6659 14.3406 23.4092 14.0382C23.166 13.7517 22.8444 13.4302 22.4717 13.0574L22.4716 13.0574L17.7071 8.29289C17.3166 7.90237 16.6834 7.90237 16.2929 8.29289C15.9024 8.68342 15.9024 9.31658 16.2929 9.70711L21.0302 14.4444C21.2531 14.6673 21.4327 14.8473 21.5798 15L6 15C5.44771 15 5 15.4477 5 16C5 16.5523 5.44771 17 6 17L21.5798 17C21.4327 17.1527 21.2531 17.3327 21.0302 17.5556L16.2929 22.2929C15.9024 22.6834 15.9024 23.3166 16.2929 23.7071C16.6834 24.0976 17.3166 24.0976 17.7071 23.7071L22.4716 18.9426L22.4716 18.9426C22.8444 18.5699 23.166 18.2483 23.4092 17.9618Z" fill="black"/>
</svg>
