<svg width="32" height="32" viewBox="0 0 32 32" fill="none" xmlns="http://www.w3.org/2000/svg">
<path fill-rule="evenodd" clip-rule="evenodd" d="M25.0247 16.0729C25.2205 16.6755 25.2205 17.3245 25.0247 17.9271C24.8935 18.3309 24.6659 18.6594 24.4092 18.9618C24.166 19.2483 23.8444 19.5699 23.4716 19.9426L19.7071 23.7071C19.3166 24.0976 18.6834 24.0976 18.2929 23.7071C17.9024 23.3166 17.9024 22.6834 18.2929 22.2929L22.0301 18.5556C22.4378 18.148 22.7005 17.8842 22.8845 17.6674C23.0609 17.4597 23.1055 17.3618 23.1226 17.309C23.1879 17.1082 23.1879 16.8918 23.1226 16.691C23.1055 16.6382 23.0609 16.5403 22.8845 16.3326C22.7005 16.1158 22.4378 15.8521 22.0301 15.4444L18.2929 11.7071C17.9024 11.3166 17.9024 10.6834 18.2929 10.2929C18.6834 9.90237 19.3166 9.90237 19.7071 10.2929L23.4716 14.0574C23.8444 14.4301 24.166 14.7517 24.4092 15.0382C24.6659 15.3406 24.8935 15.6691 25.0247 16.0729Z" fill="black"/>
<path fill-rule="evenodd" clip-rule="evenodd" d="M9 6.5C9.55228 6.5 10 6.94772 10 7.5C10 9.14903 10.0007 10.3273 10.0742 11.2519C10.1468 12.1652 10.2856 12.745 10.5156 13.2114C11.0025 14.1986 11.8014 14.9975 12.7886 15.4844C13.255 15.7144 13.8348 15.8532 14.7481 15.9258C15.6727 15.9993 16.851 16 18.5 16H24C24.5523 16 25 16.4477 25 17C25 17.5523 24.5523 18 24 18H18.4569C16.8604 18 15.6027 18 14.5897 17.9195C13.5564 17.8374 12.6923 17.6669 11.904 17.2781C10.522 16.5966 9.40343 15.478 8.72189 14.096C8.33313 13.3077 8.1626 12.4436 8.08049 11.4103C7.99999 10.3973 7.99999 9.13961 8 7.54315V7.5C8 6.94772 8.44772 6.5 9 6.5Z" fill="black"/>
</svg>
