<svg width="36" height="36" viewBox="0 0 36 36" fill="none" xmlns="http://www.w3.org/2000/svg">
<g clip-path="url(#clip0_1220_802)">
<path fill-rule="evenodd" clip-rule="evenodd" d="M15.75 9C12.0221 9 9 12.0221 9 15.75C9 19.4779 12.0221 22.5 15.75 22.5C19.4779 22.5 22.5 19.4779 22.5 15.75C22.5 12.0221 19.4779 9 15.75 9ZM6.75 15.75C6.75 10.7794 10.7794 6.75 15.75 6.75C20.7206 6.75 24.75 10.7794 24.75 15.75C24.75 20.7206 20.7206 24.75 15.75 24.75C10.7794 24.75 6.75 20.7206 6.75 15.75Z" fill="#ED3A3A"/>
<path fill-rule="evenodd" clip-rule="evenodd" d="M28.9205 28.9205C28.4811 29.3598 27.7688 29.3598 27.3295 28.9205L20.5795 22.1705C20.1402 21.7312 20.1402 21.0188 20.5795 20.5795C21.0188 20.1402 21.7311 20.1402 22.1705 20.5795L28.9205 27.3295C29.3598 27.7688 29.3598 28.4812 28.9205 28.9205Z" fill="#ED3A3A"/>
</g>
<defs>
<clipPath id="clip0_1220_802">
<rect width="36" height="36" fill="white"/>
</clipPath>
</defs>
</svg>
