<svg width="32" height="32" viewBox="0 0 32 32" fill="none" xmlns="http://www.w3.org/2000/svg">
<path fill-rule="evenodd" clip-rule="evenodd" d="M8 14C8 10.6863 10.6863 8 14 8C17.3137 8 20 10.6863 20 14C20 17.3137 17.3137 20 14 20C10.6863 20 8 17.3137 8 14ZM14 6C9.58172 6 6 9.58172 6 14C6 18.4183 9.58172 22 14 22C15.8487 22 17.551 21.3729 18.9056 20.3199L24.2929 25.7071C24.6834 26.0976 25.3166 26.0976 25.7071 25.7071C26.0976 25.3166 26.0976 24.6834 25.7071 24.2929L20.3199 18.9056C21.3729 17.551 22 15.8487 22 14C22 9.58172 18.4183 6 14 6Z" fill="black"/>
</svg>
