<svg width="32" height="32" viewBox="0 0 32 32" fill="none" xmlns="http://www.w3.org/2000/svg">
<path fill-rule="evenodd" clip-rule="evenodd" d="M26.4194 10.5796L16.0815 20.6303L20.7093 23.7155C21.2579 24.0812 22.0042 23.8252 22.2127 23.1996L26.4194 10.5796ZM14.6149 22.0562L19.5999 25.3796C21.2458 26.4768 23.4845 25.7087 24.1101 23.8321L28.4632 10.7726C29.2118 8.52682 27.1862 6.33935 24.8896 6.9135L5.28386 11.8149C3.59942 12.236 3.21485 14.4562 4.65953 15.4193L8.66667 18.0907V24.2888C8.66667 25.615 10.2614 26.2887 11.2123 25.3643L14.6149 22.0562ZM9.71404 16.3853L21.5494 9.8101L5.76893 13.7552L9.71404 16.3853ZM10.6667 18.144L22.5739 11.5289L10.6667 23.1053V18.144Z" fill="black"/>
</svg>
