<svg width="36" height="36" viewBox="0 0 36 36" fill="none" xmlns="http://www.w3.org/2000/svg">
<path fill-rule="evenodd" clip-rule="evenodd" d="M29.7218 11.9021L18.0916 23.2091L23.2979 26.68C23.9151 27.0914 24.7547 26.8034 24.9892 26.0996L29.7218 11.9021ZM16.4417 24.8132L22.0498 28.5521C23.9015 29.7864 26.42 28.9223 27.1238 26.8111L32.0211 12.1192C32.8632 9.59269 30.5844 7.13178 28.0008 7.7777L5.9443 13.2918C4.0493 13.7655 3.61666 16.2632 5.24193 17.3467L9.74996 20.3521V27.3249C9.74996 28.8169 11.544 29.5748 12.6138 28.5349L16.4417 24.8132ZM14.5269 23.5367L16.1769 21.9326L25.3956 12.97L13.0342 19.8374L12 20.412V21.8521V25.9935L14.5269 23.5367ZM10.9283 18.4335L24.243 11.0364L6.49 15.4746L10.9283 18.4335Z" fill="#ED3A3A"/>
</svg>
