<svg width="32" height="32" viewBox="0 0 32 32" fill="none" xmlns="http://www.w3.org/2000/svg">
<circle cx="16" cy="16" r="4.5" stroke="black" stroke-width="2"/>
<path d="M18.9348 23.4446L18.5678 22.5144L18.9348 23.4446ZM20.7596 23.5881L20.0525 24.2952L20.7596 23.5881ZM23.3395 19.1883L24.2565 19.5872L23.3395 19.1883ZM23.5881 20.7597L22.881 21.4668L23.5881 20.7597ZM23.4445 13.0652L24.3748 12.6982L23.4445 13.0652ZM23.588 9.44596L22.8809 10.1531L23.588 9.44596ZM22.554 8.41195L23.2611 7.70485L22.554 8.41195ZM19.1882 8.66055L18.7893 9.57755L19.1882 8.66055ZM18.9348 8.55547L18.5678 9.48569L18.9348 8.55547ZM13.0652 8.5555L12.6982 7.62529L13.0652 8.5555ZM12.8118 8.66057L12.4129 7.74357L12.8118 8.66057ZM11.2404 8.41197L11.9475 7.70486L11.2404 8.41197ZM8.66056 12.8118L7.74356 12.4129L8.66056 12.8118ZM8.41193 22.5541L7.70483 23.2612L8.41193 22.5541ZM9.44588 23.5881L8.73877 24.2952L9.44588 23.5881ZM13.0652 23.4445L12.6982 24.3748L13.0652 23.4445ZM12.4129 24.2565C12.5071 24.2975 12.6023 24.3369 12.6982 24.3748L13.4322 22.5143C13.3577 22.485 13.2839 22.4543 13.2107 22.4225L12.4129 24.2565ZM7.70483 23.2612L8.73877 24.2952L10.153 22.881L9.11904 21.847L7.70483 23.2612ZM7.62525 19.3018C7.66309 19.3977 7.70253 19.4928 7.74354 19.5871L9.57754 18.7893C9.54569 18.7161 9.51507 18.6423 9.48569 18.5678L7.62525 19.3018ZM5 15.2686V16.7314H7V15.2686H5ZM7.74356 12.4129C7.70256 12.5072 7.66313 12.6023 7.62529 12.6982L9.48572 13.4322C9.5151 13.3577 9.54572 13.2839 9.57755 13.2107L7.74356 12.4129ZM9.11906 10.153L10.153 9.11908L8.73882 7.70486L7.70485 8.73883L9.11906 10.153ZM12.6982 7.62529C12.6022 7.66313 12.5071 7.70257 12.4129 7.74357L13.2107 9.57756C13.2839 9.54572 13.3577 9.5151 13.4322 9.48572L12.6982 7.62529ZM16.7314 5H15.2686V7H16.7314V5ZM19.5871 7.74355C19.4928 7.70254 19.3977 7.6631 19.3018 7.62525L18.5678 9.48569C18.6423 9.51507 18.7161 9.5457 18.7893 9.57755L19.5871 7.74355ZM24.2952 8.73885L23.2611 7.70485L21.8469 9.11906L22.8809 10.1531L24.2952 8.73885ZM24.3748 12.6982C24.3369 12.6022 24.2975 12.5071 24.2565 12.4128L22.4225 13.2106C22.4543 13.2839 22.4849 13.3577 22.5143 13.4322L24.3748 12.6982ZM27 16.7314V15.2686H25V16.7314H27ZM24.2565 19.5872C24.2975 19.4929 24.3369 19.3977 24.3748 19.3018L22.5144 18.5678C22.485 18.6423 22.4543 18.7161 22.4225 18.7894L24.2565 19.5872ZM22.881 21.847L21.847 22.881L23.2612 24.2952L24.2952 23.2612L22.881 21.847ZM19.3018 24.3748C19.3977 24.337 19.4928 24.2975 19.5871 24.2565L18.7894 22.4225C18.7161 22.4543 18.6423 22.485 18.5678 22.5144L19.3018 24.3748ZM15.2686 27H16.7314V25H15.2686V27ZM17 24.7314C17 24.8798 16.8797 25 16.7314 25V27C17.9843 27 19 25.9843 19 24.7314H17ZM18.5678 22.5144C17.7154 22.8507 17 23.6734 17 24.7314H19C19 24.6318 19.0772 24.4634 19.3018 24.3748L18.5678 22.5144ZM21.4667 22.881C20.7184 22.1326 19.6302 22.0567 18.7894 22.4225L19.5871 24.2565C19.8083 24.1603 19.982 24.2246 20.0525 24.2952L21.4667 22.881ZM21.847 22.881C21.742 22.986 21.5717 22.986 21.4667 22.881L20.0525 24.2952C20.9386 25.1812 22.3751 25.1812 23.2612 24.2952L21.847 22.881ZM22.881 21.4668C22.986 21.5718 22.986 21.742 22.881 21.847L24.2952 23.2612C25.1812 22.3752 25.1812 20.9386 24.2952 20.0526L22.881 21.4668ZM22.4225 18.7894C22.0567 19.6303 22.1326 20.7184 22.881 21.4668L24.2952 20.0526C24.2246 19.982 24.1603 19.8083 24.2565 19.5872L22.4225 18.7894ZM24.7314 17C23.6734 17 22.8507 17.7154 22.5144 18.5678L24.3748 19.3018C24.4634 19.0772 24.6318 19 24.7314 19V17ZM25 16.7314C25 16.8797 24.8798 17 24.7314 17V19C25.9843 19 27 17.9843 27 16.7314H25ZM24.7314 15C24.8797 15 25 15.1202 25 15.2686H27C27 14.0157 25.9843 13 24.7314 13V15ZM22.5143 13.4322C22.8506 14.2846 23.6734 15 24.7314 15V13C24.6318 13 24.4634 12.9227 24.3748 12.6982L22.5143 13.4322ZM22.8809 10.5333C22.1326 11.2816 22.0567 12.3698 22.4225 13.2106L24.2565 12.4128C24.1603 12.1917 24.2246 12.018 24.2952 11.9475L22.8809 10.5333ZM22.8809 10.1531C22.9859 10.2581 22.9859 10.4283 22.8809 10.5333L24.2952 11.9475C25.1812 11.0614 25.1812 9.62489 24.2952 8.73885L22.8809 10.1531ZM21.4667 9.11906C21.5717 9.01407 21.7419 9.01407 21.8469 9.11906L23.2611 7.70485C22.3751 6.8188 20.9385 6.81881 20.0525 7.70485L21.4667 9.11906ZM18.7893 9.57755C19.6302 9.94333 20.7184 9.86742 21.4667 9.11906L20.0525 7.70485C19.9819 7.7754 19.8082 7.83973 19.5871 7.74355L18.7893 9.57755ZM17 7.26861C17 8.32666 17.7154 9.1494 18.5678 9.48569L19.3018 7.62525C19.0773 7.53666 19 7.36824 19 7.26861H17ZM16.7314 7C16.8797 7 17 7.12026 17 7.26861H19C19 6.01569 17.9843 5 16.7314 5V7ZM15 7.26863C15 7.12027 15.1202 7 15.2686 7V5C14.0157 5 13 6.0157 13 7.26863H15ZM13.4322 9.48572C14.2846 9.14942 15 8.32668 15 7.26863H13C13 7.36827 12.9227 7.5367 12.6982 7.62529L13.4322 9.48572ZM10.5333 9.11908C11.2816 9.86744 12.3698 9.94335 13.2107 9.57756L12.4129 7.74357C12.1918 7.83976 12.018 7.77542 11.9475 7.70486L10.5333 9.11908ZM10.153 9.11908C10.258 9.01408 10.4283 9.01408 10.5333 9.11908L11.9475 7.70486C11.0614 6.81882 9.62487 6.81882 8.73882 7.70486L10.153 9.11908ZM9.11906 10.5333C9.01406 10.4283 9.01406 10.2581 9.11906 10.153L7.70485 8.73883C6.8188 9.62489 6.8188 11.0615 7.70485 11.9475L9.11906 10.5333ZM9.57755 13.2107C9.94334 12.3698 9.86743 11.2817 9.11906 10.5333L7.70485 11.9475C7.77541 12.0181 7.83975 12.1918 7.74356 12.4129L9.57755 13.2107ZM7.26863 15C8.32668 15 9.14942 14.2846 9.48572 13.4322L7.62529 12.6982C7.5367 12.9227 7.36827 13 7.26863 13V15ZM7 15.2686C7 15.1202 7.12027 15 7.26863 15V13C6.0157 13 5 14.0157 5 15.2686H7ZM7.26861 17C7.12026 17 7 16.8797 7 16.7314H5C5 17.9843 6.01569 19 7.26861 19V17ZM9.48569 18.5678C9.1494 17.7154 8.32666 17 7.26861 17V19C7.36824 19 7.53666 19.0773 7.62525 19.3018L9.48569 18.5678ZM9.11904 21.4667C9.86741 20.7184 9.94332 19.6302 9.57754 18.7893L7.74354 19.5871C7.83973 19.8082 7.77539 19.982 7.70483 20.0525L9.11904 21.4667ZM9.11904 21.847C9.01403 21.742 9.01403 21.5717 9.11904 21.4667L7.70483 20.0525C6.81877 20.9386 6.81877 22.3752 7.70483 23.2612L9.11904 21.847ZM10.5332 22.881C10.4282 22.986 10.258 22.986 10.153 22.881L8.73877 24.2952C9.62483 25.1812 11.0614 25.1812 11.9475 24.2952L10.5332 22.881ZM13.2107 22.4225C12.3698 22.0567 11.2816 22.1326 10.5332 22.881L11.9475 24.2952C12.018 24.2246 12.1917 24.1603 12.4129 24.2565L13.2107 22.4225ZM13 24.7314C13 25.9843 14.0157 27 15.2686 27V25C15.1202 25 15 24.8797 15 24.7314H13ZM15 24.7314C15 23.6734 14.2846 22.8506 13.4322 22.5143L12.6982 24.3748C12.9227 24.4634 13 24.6318 13 24.7314H15Z" fill="black"/>
</svg>
