<svg width="11" height="14" viewBox="0 0 11 14" fill="none" xmlns="http://www.w3.org/2000/svg">
<g clip-path="url(#clip0_1394_875)">
<path d="M1.94592 14.0769H9.05409C9.70273 14.0769 10.1892 13.9148 10.5135 13.5905C10.8378 13.2661 11 12.7838 11 12.1435V5.91893C11 5.27859 10.8378 4.79626 10.5135 4.47194C10.1892 4.14761 9.70273 3.98545 9.05409 3.98545H7.32508V4.98961H9.0355C9.3412 4.98961 9.57875 5.07277 9.74814 5.23909C9.91754 5.40541 10.0022 5.65073 10.0022 5.97506V12.0873C10.0022 12.4117 9.91754 12.657 9.74814 12.8233C9.57875 12.9896 9.3412 13.0728 9.0355 13.0728H1.95831C1.64845 13.0728 1.41089 12.9896 1.24563 12.8233C1.08038 12.657 0.997748 12.4117 0.997748 12.0873V5.97506C0.997748 5.65073 1.08038 5.40541 1.24563 5.23909C1.41089 5.07277 1.64845 4.98961 1.95831 4.98961H3.67493V3.98545H1.94592C1.29728 3.98545 0.810796 4.14657 0.486479 4.46882C0.16216 4.79107 0 5.27444 0 5.91893V12.1435C0 12.7879 0.16216 13.2713 0.486479 13.5936C0.810796 13.9158 1.29728 14.0769 1.94592 14.0769ZM5.4969 9.19334C5.63324 9.19334 5.74995 9.14552 5.84704 9.04989C5.94413 8.95426 5.99267 8.83992 5.99267 8.70686V2.30146L5.95549 1.3659L6.37072 1.80873L7.31265 2.81913C7.39942 2.91892 7.51098 2.96882 7.64733 2.96882C7.77539 2.96882 7.8828 2.92724 7.96957 2.84408C8.05634 2.76092 8.09973 2.65489 8.09973 2.52599C8.09973 2.40957 8.05015 2.30146 7.95098 2.20167L5.85634 0.168399C5.79436 0.106029 5.73549 0.0623704 5.67972 0.0374221C5.62394 0.012474 5.563 0 5.4969 0C5.43492 0 5.37605 0.012474 5.32028 0.0374221C5.2645 0.0623704 5.20356 0.106029 5.13746 0.168399L3.04281 2.20167C2.94779 2.30146 2.90028 2.40957 2.90028 2.52599C2.90028 2.65489 2.94159 2.76092 3.02422 2.84408C3.10685 2.92724 3.21427 2.96882 3.34648 2.96882C3.48695 2.96882 3.60056 2.91892 3.68732 2.81913L4.6231 1.80873L5.0445 1.3659L5.00732 2.30146V8.70686C5.00732 8.83992 5.05586 8.95426 5.15296 9.04989C5.25004 9.14552 5.36469 9.19334 5.4969 9.19334Z" fill="#646464"/>
</g>
<defs>
<clipPath id="clip0_1394_875">
<rect width="11" height="14" fill="white"/>
</clipPath>
</defs>
</svg>
