<svg width="32" height="32" viewBox="0 0 32 32" fill="none" xmlns="http://www.w3.org/2000/svg">
<path fill-rule="evenodd" clip-rule="evenodd" d="M15.2587 9H16.7413C17.5463 8.99999 18.2106 8.99998 18.7518 9.04419C19.3139 9.09012 19.8306 9.18868 20.316 9.43597C21.0686 9.81947 21.6805 10.4314 22.064 11.184C22.3113 11.6694 22.4099 12.1861 22.4558 12.7482C22.5 13.2894 22.5 13.9537 22.5 14.7587V17.2413C22.5 18.0463 22.5 18.7106 22.4558 19.2518C22.4099 19.8139 22.3113 20.3306 22.064 20.816C21.6805 21.5686 21.0686 22.1805 20.316 22.564C19.8306 22.8113 19.3139 22.9099 18.7518 22.9558C18.2106 23 17.5463 23 16.7413 23H15.2587C14.4537 23 13.7894 23 13.2482 22.9558C12.6861 22.9099 12.1694 22.8113 11.684 22.564C10.9314 22.1805 10.3195 21.5686 9.93597 20.816C9.68868 20.3306 9.59012 19.8139 9.54419 19.2518C9.49998 18.7106 9.49999 18.0463 9.5 17.2413V14.7587C9.49999 13.9537 9.49998 13.2894 9.54419 12.7482C9.59012 12.1861 9.68868 11.6694 9.93597 11.184C10.3195 10.4314 10.9314 9.81947 11.684 9.43597C12.1694 9.18868 12.6861 9.09012 13.2482 9.04419C13.7894 8.99998 14.4537 8.99999 15.2587 9ZM13.411 11.0376C12.9726 11.0734 12.7484 11.1383 12.592 11.218C12.2157 11.4097 11.9097 11.7157 11.718 12.092C11.6383 12.2484 11.5734 12.4726 11.5376 12.911C11.5008 13.3611 11.5 13.9434 11.5 14.8V17.2C11.5 18.0566 11.5008 18.6389 11.5376 19.089C11.5734 19.5274 11.6383 19.7516 11.718 19.908C11.9097 20.2843 12.2157 20.5903 12.592 20.782C12.7484 20.8617 12.9726 20.9266 13.411 20.9624C13.8611 20.9992 14.4434 21 15.3 21H16.7C17.5566 21 18.1389 20.9992 18.589 20.9624C19.0274 20.9266 19.2516 20.8617 19.408 20.782C19.7843 20.5903 20.0903 20.2843 20.282 19.908C20.3617 19.7516 20.4266 19.5274 20.4624 19.089C20.4992 18.6389 20.5 18.0566 20.5 17.2V14.8C20.5 13.9434 20.4992 13.3611 20.4624 12.911C20.4266 12.4726 20.3617 12.2484 20.282 12.092C20.0903 11.7157 19.7843 11.4097 19.408 11.218C19.2516 11.1383 19.0274 11.0734 18.589 11.0376C18.1389 11.0008 17.5566 11 16.7 11H15.3C14.4434 11 13.8611 11.0008 13.411 11.0376Z" fill="black"/>
<path d="M13 8C13 7.44772 13.4477 7 14 7H18C18.5523 7 19 7.44772 19 8V9.5H13V8Z" fill="black"/>
<path fill-rule="evenodd" clip-rule="evenodd" d="M12 8C12 6.89543 12.8954 6 14 6H18C19.1046 6 20 6.89543 20 8V10.5H12V8ZM18 8H14V8.5H18V8Z" fill="black"/>
<path d="M19 24C19 24.5523 18.5523 25 18 25L14 25C13.4477 25 13 24.5523 13 24L13 22.5L19 22.5L19 24Z" fill="black"/>
<path fill-rule="evenodd" clip-rule="evenodd" d="M20 24C20 25.1046 19.1046 26 18 26L14 26C12.8954 26 12 25.1046 12 24L12 21.5L20 21.5L20 24ZM14 24L18 24L18 23.5L14 23.5L14 24Z" fill="black"/>
<path fill-rule="evenodd" clip-rule="evenodd" d="M19.3536 13.6464C19.5488 13.8417 19.5488 14.1583 19.3536 14.3536L16.3536 17.3536C16.1583 17.5488 15.8417 17.5488 15.6464 17.3536L13.6464 15.3536C13.4512 15.1583 13.4512 14.8417 13.6464 14.6464C13.8417 14.4512 14.1583 14.4512 14.3536 14.6464L16 16.2929L18.6464 13.6464C18.8417 13.4512 19.1583 13.4512 19.3536 13.6464Z" fill="black"/>
</svg>
