<svg width="32" height="32" viewBox="0 0 32 32" fill="none" xmlns="http://www.w3.org/2000/svg">
<path d="M13.9712 13.3445L12.4651 10.0864L12.4569 10.0686C12.3191 9.77057 12.205 9.52366 12.1091 9.34753C12.0603 9.25786 12.0052 9.16577 11.9428 9.08725C11.8886 9.01904 11.7798 8.89692 11.6062 8.84069C11.3201 8.748 11.0062 8.82364 10.7936 9.03646C10.6647 9.16557 10.6235 9.32382 10.6063 9.40924C10.5864 9.50758 10.5794 9.61463 10.5768 9.71669C10.5716 9.91716 10.5824 10.189 10.5955 10.5171L10.5963 10.5366L10.8996 18.1523L10.9003 18.1699C10.9095 18.4011 10.9175 18.6022 10.937 18.7688C10.9577 18.9459 10.9947 19.121 11.0812 19.2917C11.2114 19.5487 11.413 19.7628 11.6617 19.9083C11.8268 20.0049 11.9994 20.0524 12.1749 20.0837C12.3401 20.1132 12.5403 20.1333 12.7705 20.1564L12.7881 20.1582L14.7526 20.3555C14.9623 20.3766 15.0856 20.3894 15.1727 20.4063C15.1774 20.4072 15.1818 20.4081 15.1859 20.4089C15.1843 20.4128 15.1826 20.417 15.1807 20.4214C15.1456 20.5029 15.0868 20.612 14.9863 20.7972L12.8333 24.7614C12.7175 24.9747 12.7716 25.2404 12.9616 25.3914C13.1516 25.5425 13.4227 25.5352 13.6043 25.3742L18.9249 20.6592L18.9437 20.6425C19.3148 20.3137 19.6191 20.044 19.8361 19.8133C20.0514 19.5844 20.2502 19.3246 20.3083 19.0056C20.3891 18.5618 20.266 18.1053 19.9729 17.7623C19.7623 17.5158 19.4598 17.3912 19.1587 17.3016C18.8551 17.2113 18.4564 17.1312 17.9703 17.0336L17.9457 17.0287L17.8104 17.0015L17.712 17.4917L17.8104 17.0015C17.5924 16.9577 17.4628 16.9312 17.3721 16.9042C17.367 16.9026 17.3621 16.9011 17.3577 16.8997C17.3601 16.8957 17.3628 16.8914 17.3656 16.8869C17.4161 16.8068 17.4961 16.7015 17.6313 16.525L20.46 12.8317C20.4736 12.814 20.487 12.7964 20.5003 12.7791C20.8056 12.3808 21.0168 12.1052 21.1442 11.7902C21.2567 11.5121 21.3182 11.216 21.3258 10.9161C21.3344 10.5765 21.2504 10.2396 21.129 9.75259C21.1237 9.73142 21.1184 9.70998 21.113 9.68824L20.7164 8.0951C20.7163 8.09479 20.7163 8.09448 20.7162 8.09416L20.71 8.06937C20.5533 7.43977 20.4276 6.93488 20.3001 6.56231C20.1785 6.20709 20.0167 5.84314 19.7093 5.63461C19.298 5.35557 18.7752 5.29837 18.3133 5.48188C17.9682 5.61901 17.7315 5.93936 17.5359 6.25989C17.3309 6.59608 17.099 7.06186 16.8098 7.6427L16.7984 7.66554L13.9712 13.3445Z" fill="black" stroke="black" stroke-linecap="round" stroke-linejoin="round"/>
</svg>
