<svg width="32" height="32" viewBox="0 0 32 32" fill="none" xmlns="http://www.w3.org/2000/svg">
<path d="M14.0008 12.1972L12.9179 9.86497L12.9038 9.83446C12.7712 9.54892 12.651 9.28999 12.547 9.09978C12.4933 9.00156 12.422 8.88012 12.3325 8.76813C12.2594 8.67648 12.0742 8.46042 11.7588 8.35868L11.4555 9.29896L11.7588 8.35868C11.294 8.20871 10.7842 8.332 10.4393 8.67786C10.2053 8.91249 10.1393 9.18928 10.1161 9.30424C10.0878 9.44472 10.0798 9.58535 10.0769 9.69726C10.0714 9.91397 10.0828 10.1992 10.0954 10.5137L10.0967 10.5474L10.4017 18.172L10.4029 18.2009C10.4117 18.4222 10.4204 18.6406 10.4422 18.8268C10.4664 19.0335 10.5134 19.2736 10.6372 19.5178C10.811 19.8605 11.0799 20.1459 11.4116 20.3398C11.6479 20.478 11.8848 20.5392 12.0897 20.5757C12.2743 20.6086 12.4918 20.6303 12.7122 20.6523L12.7409 20.6552L14.4217 20.8232L12.4047 24.5211C12.1723 24.9473 12.2794 25.4788 12.6588 25.7816C13.0382 26.0844 13.5803 26.071 13.9442 25.7498L19.2847 21.0376L19.3179 21.0084C19.6785 20.6902 19.9992 20.4073 20.2332 20.1596C20.4634 19.9159 20.7503 19.5669 20.8363 19.098C20.945 18.5056 20.7809 17.8958 20.3897 17.4379C20.0801 17.0755 19.6568 16.9175 19.3354 16.8222C19.04 16.7346 18.6687 16.6577 18.2515 16.574L20.8928 13.1403C20.9127 13.1144 20.9325 13.0888 20.9522 13.0633C21.2401 12.6898 21.4937 12.3608 21.6485 11.9794C21.7843 11.6447 21.8586 11.2881 21.8677 10.927L20.868 10.9018L21.8677 10.927C21.8781 10.5155 21.7769 10.1126 21.662 9.65523C21.6542 9.62404 21.6463 9.59261 21.6384 9.5609L21.2366 7.95354C21.2364 7.95305 21.2363 7.95257 21.2362 7.95208L21.2254 7.90886C21.0729 7.29895 20.9427 6.77815 20.8081 6.38621C20.6853 6.02866 20.481 5.51881 20.0254 5.20983C19.4776 4.83831 18.7815 4.7619 18.1661 5.00572C17.6544 5.20851 17.3444 5.66193 17.1469 5.98432C16.9305 6.33771 16.6904 6.81787 16.4093 7.38018L16.3887 7.42137L16.3887 7.42137L14.0008 12.1972Z" stroke="black" stroke-width="2" stroke-linecap="round" stroke-linejoin="round"/>
</svg>
