<svg width="32" height="32" viewBox="0 0 32 32" fill="none" xmlns="http://www.w3.org/2000/svg">
<path d="M14.5214 7.5753C14.9851 6.45408 15.217 5.89347 15.5458 5.72582C15.8311 5.58036 16.1689 5.58036 16.4542 5.72582C16.783 5.89347 17.0149 6.45408 17.4786 7.5753L19.1983 11.7339L23.6833 12.0955C24.8819 12.1922 25.4812 12.2405 25.7413 12.5006C25.9671 12.7264 26.0714 13.0463 26.0223 13.3617C25.9656 13.7252 25.5101 14.1176 24.599 14.9025L21.175 17.8524L22.2181 22.2503C22.4971 23.4268 22.6366 24.0151 22.4685 24.3432C22.3227 24.6279 22.0494 24.8256 21.7334 24.8751C21.3692 24.9322 20.8541 24.6158 19.8238 23.9828L16 21.6339L12.1762 23.9828C11.1459 24.6158 10.6308 24.9322 10.2666 24.8751C9.95057 24.8256 9.67733 24.6279 9.53147 24.3432C9.36337 24.0151 9.50289 23.4268 9.78194 22.2503L10.825 17.8524L7.40096 14.9025C6.48992 14.1176 6.0344 13.7252 5.97774 13.3617C5.92857 13.0463 6.03294 12.7264 6.25866 12.5006C6.51876 12.2405 7.11808 12.1922 8.3167 12.0955L12.8017 11.7339L14.5214 7.5753Z" stroke="black" stroke-width="2" stroke-linejoin="round"/>
</svg>
