<svg width="32" height="32" viewBox="0 0 32 32" fill="none" xmlns="http://www.w3.org/2000/svg">
<path fill-rule="evenodd" clip-rule="evenodd" d="M15.0916 4.83492C15.6623 4.544 16.3377 4.544 16.9084 4.83492C17.374 5.07228 17.6355 5.51018 17.8026 5.83077C17.9803 6.1717 18.1683 6.62645 18.3852 7.15098L19.8886 10.7863L23.8091 11.1024C24.3695 11.1476 24.8561 11.1868 25.2325 11.251C25.5873 11.3116 26.0808 11.4258 26.4485 11.7936C26.8999 12.245 27.1087 12.8849 27.0103 13.5158C26.9302 14.0295 26.5991 14.4128 26.3482 14.671C26.0821 14.9448 25.7123 15.2634 25.2863 15.6303L22.2883 18.2132L23.2016 22.0638C23.3321 22.6142 23.4454 23.0915 23.5006 23.471C23.5525 23.8282 23.5964 24.335 23.3585 24.7992C23.0668 25.3686 22.5203 25.764 21.8883 25.8631C21.373 25.9439 20.9053 25.7438 20.5823 25.5827C20.2391 25.4117 19.8211 25.1549 19.3393 24.8588L16 22.8075L12.6607 24.8588C12.1789 25.1549 11.7609 25.4117 11.4178 25.5827C11.0947 25.7438 10.627 25.9439 10.1117 25.8631C9.47973 25.764 8.93324 25.3686 8.64152 24.7992C8.40367 24.335 8.44752 23.8282 8.49947 23.471C8.55467 23.0916 8.6679 22.6142 8.79843 22.0639L9.71173 18.2132L6.71375 15.6304C6.28778 15.2634 5.91794 14.9448 5.65185 14.671C5.40096 14.4128 5.06981 14.0295 4.98971 13.5158C4.89137 12.8849 5.10012 12.245 5.55155 11.7936C5.91922 11.4258 6.4127 11.3116 6.76757 11.251C7.14394 11.1868 7.63052 11.1476 8.19096 11.1024L12.1114 10.7863L13.6148 7.151C13.8317 6.62647 14.0197 6.1717 14.1974 5.83077C14.3645 5.51018 14.626 5.07228 15.0916 4.83492ZM15.971 6.75519C15.8394 7.00768 15.6849 7.37857 15.4455 7.95747L13.7258 12.1161C13.5823 12.4631 13.2564 12.7005 12.882 12.7307L8.39711 13.0923C7.77805 13.1422 7.38181 13.1751 7.10397 13.2225C7.08236 13.2262 7.06257 13.2298 7.04449 13.2333C7.05702 13.2468 7.07086 13.2614 7.08614 13.2772C7.28258 13.4793 7.58318 13.7395 8.0537 14.1449L11.4777 17.0948C11.7607 17.3386 11.8842 17.7198 11.798 18.0832L10.755 22.4811C10.6109 23.0886 10.5194 23.4782 10.4786 23.7589C10.4754 23.7808 10.4727 23.801 10.4705 23.8195C10.4873 23.8115 10.5056 23.8027 10.5255 23.7928C10.7793 23.6663 11.1208 23.4576 11.6528 23.1308L15.4766 20.7818C15.7977 20.5846 16.2024 20.5846 16.5234 20.7818L20.3472 23.1308C20.8792 23.4576 21.2207 23.6663 21.4745 23.7928C21.4944 23.8027 21.5127 23.8115 21.5295 23.8194C21.5273 23.801 21.5246 23.7808 21.5214 23.7589C21.4806 23.4782 21.3891 23.0886 21.2451 22.4811L20.202 18.0832C20.1158 17.7198 20.2393 17.3386 20.5223 17.0948L23.9463 14.1449C24.4169 13.7395 24.7175 13.4793 24.9139 13.2772C24.9292 13.2614 24.943 13.2468 24.9556 13.2333C24.9375 13.2298 24.9177 13.2262 24.8961 13.2225C24.6182 13.1751 24.222 13.1422 23.6029 13.0923L19.118 12.7307C18.7436 12.7005 18.4178 12.4631 18.2742 12.1161L16.5545 7.95747C16.3151 7.37858 16.1607 7.00768 16.029 6.75519C16.0187 6.7354 16.009 6.71736 16 6.70095C15.991 6.71736 15.9813 6.7354 15.971 6.75519Z" fill="#ED3A3A"/>
</svg>
