<svg width="32" height="32" viewBox="0 0 32 32" fill="none" xmlns="http://www.w3.org/2000/svg">
<path fill-rule="evenodd" clip-rule="evenodd" d="M12.1696 5.75H19.8304C20.3646 5.74999 20.8104 5.74998 21.1747 5.77974C21.5546 5.81078 21.9112 5.87789 22.2485 6.04973C22.7659 6.31338 23.1866 6.73408 23.4503 7.25153C23.6221 7.58879 23.6892 7.94545 23.7203 8.32533C23.75 8.68956 23.75 9.1354 23.75 9.66955V22.3305C23.75 22.8646 23.75 23.3104 23.7203 23.6747C23.6892 24.0546 23.6221 24.4112 23.4503 24.7485C23.1866 25.2659 22.7659 25.6866 22.2485 25.9503C21.9112 26.1221 21.5546 26.1892 21.1747 26.2203C20.8104 26.25 20.3646 26.25 19.8305 26.25H12.1695C11.6354 26.25 11.1896 26.25 10.8253 26.2203C10.4454 26.1892 10.0888 26.1221 9.75153 25.9503C9.23408 25.6866 8.81338 25.2659 8.54973 24.7485C8.37789 24.4112 8.31078 24.0546 8.27974 23.6747C8.24998 23.3104 8.24999 22.8646 8.25 22.3304V9.66957C8.24999 9.13541 8.24998 8.68956 8.27974 8.32533C8.31078 7.94545 8.37789 7.58879 8.54973 7.25153C8.81338 6.73408 9.23408 6.31338 9.75153 6.04973C10.0888 5.87789 10.4454 5.81078 10.8253 5.77974C11.1896 5.74998 11.6354 5.74999 12.1696 5.75ZM10.9475 7.27476C10.6604 7.29822 10.5231 7.3401 10.4325 7.38624C10.1973 7.50608 10.0061 7.69731 9.88624 7.93251C9.8401 8.02307 9.79822 8.16036 9.77476 8.44748C9.75058 8.74336 9.75 9.12757 9.75 9.7V22.3C9.75 22.8724 9.75058 23.2566 9.77476 23.5525C9.79822 23.8396 9.8401 23.9769 9.88624 24.0675C10.0061 24.3027 10.1973 24.4939 10.4325 24.6138C10.5231 24.6599 10.6604 24.7018 10.9475 24.7252C11.2434 24.7494 11.6276 24.75 12.2 24.75H19.8C20.3724 24.75 20.7566 24.7494 21.0525 24.7252C21.3396 24.7018 21.4769 24.6599 21.5675 24.6138C21.8027 24.4939 21.9939 24.3027 22.1138 24.0675C22.1599 23.9769 22.2018 23.8396 22.2252 23.5525C22.2494 23.2566 22.25 22.8724 22.25 22.3V9.7C22.25 9.12757 22.2494 8.74336 22.2252 8.44748C22.2018 8.16036 22.1599 8.02307 22.1138 7.93251C21.9939 7.69731 21.8027 7.50608 21.5675 7.38624C21.4769 7.3401 21.3396 7.29822 21.0525 7.27476C20.7566 7.25058 20.3724 7.25 19.8 7.25H12.2C11.6276 7.25 11.2434 7.25058 10.9475 7.27476Z" fill="black"/>
<path d="M13.6269 13.0352C14.2017 13.0369 14.592 12.666 14.5902 12.1492C14.592 11.6693 14.251 11.3266 13.7922 11.3266C13.5109 11.3266 13.2596 11.4584 13.1418 11.6852H13.1172C13.1207 11.1842 13.3017 10.873 13.648 10.873C13.8537 10.873 13.9996 10.9838 14.0418 11.1613H14.5621C14.5111 10.743 14.1596 10.4195 13.648 10.4195C13.0117 10.4195 12.6021 10.9275 12.6004 11.7871C12.5986 12.7188 13.1014 13.0334 13.6269 13.0352ZM13.1699 12.1633C13.1734 11.9154 13.3703 11.7115 13.6305 11.7098C13.8889 11.7115 14.0769 11.9084 14.0769 12.1633C14.0769 12.4199 13.8853 12.6186 13.6234 12.6168C13.3633 12.6186 13.1734 12.4129 13.1699 12.1633Z" fill="black"/>
<path d="M15.1212 12.6906C15.2777 12.6906 15.413 12.5588 15.413 12.3953C15.413 12.2336 15.2777 12.1018 15.1212 12.1035C14.956 12.1018 14.8224 12.2336 14.8259 12.3953C14.8224 12.5588 14.956 12.6906 15.1212 12.6906ZM14.8259 11.0559C14.8224 11.2193 14.956 11.3512 15.1212 11.3512C15.2777 11.3512 15.413 11.2193 15.413 11.0559C15.413 10.8941 15.2777 10.7623 15.1212 10.7641C14.956 10.7623 14.8224 10.8941 14.8259 11.0559Z" fill="black"/>
<path d="M15.6417 12.55H16.8792V13H17.3819V12.55H17.7053V12.1246H17.3819V10.4547H16.7175L15.6417 12.1316V12.55ZM16.176 12.1246V12.1035L16.8616 11.0348H16.8862V12.1246H16.176Z" fill="black"/>
<path d="M18.9676 10.4547H18.4684L17.8391 10.8555V11.323L18.4227 10.9574H18.4367V13H18.9676V10.4547Z" fill="black"/>
<path d="M14 24.15C14 24.0119 14.1119 23.9 14.25 23.9H17.75C17.8881 23.9 18 24.0119 18 24.15C18 24.2881 17.8881 24.4 17.75 24.4H14.25C14.1119 24.4 14 24.2881 14 24.15Z" fill="black"/>
</svg>
