<svg width="21" height="22" viewBox="0 0 21 22" fill="none" xmlns="http://www.w3.org/2000/svg">
<g clip-path="url(#clip0_1369_1087)">
<path d="M20.1667 7.49809C20.1667 6.69979 20.0472 5.94743 19.8084 5.241C19.5696 4.53464 19.2368 3.9106 18.8101 3.36889C18.3834 2.82718 17.8914 2.4027 17.3341 2.09545C16.7769 1.7882 16.183 1.63457 15.5525 1.63457L12.3904 1.63457C11.7663 1.30513 11.0752 1.04696 10.3173 0.860055C9.55944 0.673148 8.7538 0.579696 7.90038 0.579696L6.5821 0.579695C5.98341 0.579695 5.4341 0.598704 4.93415 0.636721C4.4342 0.674738 4.01545 0.734911 3.67789 0.817238C3.01556 0.981957 2.49174 1.27815 2.10644 1.70581C1.72114 2.13346 1.5285 2.63871 1.5285 3.22156C1.5285 3.44966 1.56671 3.67773 1.64315 3.90577C1.31191 4.14652 1.05715 4.43956 0.878845 4.78489C0.700544 5.13016 0.611393 5.50235 0.611392 5.90147C0.611392 6.30694 0.684631 6.66807 0.831106 6.98485C0.608198 7.2066 0.434625 7.47427 0.310388 7.78788C0.186218 8.10149 0.12413 8.43252 0.124129 8.78097C0.124129 9.00271 0.151195 9.22604 0.205323 9.45097C0.259454 9.67589 0.337485 9.87386 0.439418 10.0449C0.146466 10.4503 -8.57052e-06 10.9477 -8.62203e-06 11.5369C-8.66302e-06 12.0057 0.113009 12.4334 0.339049 12.8199C0.565154 13.2063 0.86929 13.512 1.25146 13.7369C1.63356 13.9618 2.06027 14.0743 2.53158 14.0743L6.15216 14.0743C6.26681 14.0743 6.35915 14.0996 6.4292 14.1503C6.4993 14.201 6.53436 14.2739 6.53436 14.3689C6.53436 14.6286 6.45153 14.9628 6.28588 15.3715C6.1203 15.7801 5.93085 16.2299 5.71752 16.7209C5.50414 17.2119 5.31465 17.7172 5.14907 18.2367C4.98348 18.7562 4.90069 19.2567 4.90069 19.7382C4.90069 20.1754 4.99623 20.565 5.18732 20.9071C5.3784 21.2492 5.63793 21.5169 5.9659 21.7101C6.29387 21.9034 6.67121 22 7.09792 22C7.56924 22 7.97368 21.8701 8.31124 21.6104C8.64873 21.3506 8.97034 20.9261 9.27608 20.3369C9.56903 19.7857 9.87949 19.2409 10.2075 18.7024C10.5355 18.1639 10.8906 17.619 11.2727 17.0678C11.6548 16.5166 12.0783 15.9385 12.5432 15.3335C13.0082 14.7284 13.524 14.0806 14.0909 13.3901L15.9155 13.3901C16.5014 13.3901 17.0523 13.238 17.5682 12.9339C18.0841 12.6298 18.5363 12.2069 18.9247 11.6652C19.3132 11.1235 19.6174 10.4963 19.8371 9.78358C20.0568 9.07086 20.1667 8.30903 20.1667 7.49809ZM14.6163 7.54557C14.6163 8.22982 14.559 8.84753 14.4443 9.39871C14.3297 9.94989 14.1434 10.4837 13.8855 11C13.6275 11.5163 13.282 12.0628 12.8489 12.6393C12.3713 13.2728 11.8475 13.9539 11.2775 14.6825C10.7074 15.4111 10.1359 16.1903 9.5627 17.0203C8.98945 17.8502 8.46401 18.7372 7.98636 19.6812C7.80806 20.0423 7.64884 20.2799 7.50869 20.394C7.3686 20.508 7.21257 20.565 7.0406 20.565C6.83047 20.565 6.66172 20.4937 6.53436 20.3512C6.40692 20.2086 6.34321 20.0043 6.34321 19.7382C6.34321 19.3518 6.426 18.9273 6.59158 18.4648C6.75723 18.0023 6.94672 17.5271 7.16004 17.0393C7.37336 16.5515 7.56285 16.0779 7.7285 15.6186C7.89408 15.1592 7.97687 14.7427 7.97687 14.3689C7.97687 13.8304 7.77943 13.4075 7.38455 13.1002C6.98966 12.7929 6.50883 12.6393 5.94203 12.6393L2.53158 12.6393C2.21946 12.6393 1.95993 12.5332 1.753 12.3209C1.54601 12.1087 1.44251 11.8474 1.44251 11.5369C1.44251 11.1314 1.61764 10.7608 1.96792 10.4251C2.05068 10.3427 2.09685 10.2556 2.10644 10.1637C2.11596 10.0718 2.0857 9.98155 2.01566 9.89287C1.85647 9.66476 1.74185 9.46835 1.67181 9.30363C1.6017 9.13892 1.56665 8.96469 1.56665 8.78097C1.56665 8.55293 1.62078 8.34228 1.72904 8.14901C1.83736 7.95581 1.99978 7.77682 2.2163 7.61204C2.33727 7.52335 2.41687 7.41884 2.45509 7.29849C2.4933 7.17809 2.47739 7.04503 2.40735 6.89932C2.28637 6.67757 2.19722 6.49861 2.1399 6.36244C2.08257 6.2262 2.05391 6.07254 2.05391 5.90147C2.05391 5.41367 2.39144 4.99554 3.06649 4.6471C3.17475 4.59007 3.24322 4.51722 3.27192 4.42853C3.30055 4.33978 3.29259 4.24156 3.24805 4.13387C3.12701 3.8488 3.05057 3.65557 3.01875 3.55417C2.98692 3.45284 2.97101 3.34197 2.97101 3.22156C2.97101 2.98716 3.05856 2.78284 3.23367 2.60858C3.40884 2.43439 3.67156 2.30295 4.02184 2.21427C4.30207 2.14452 4.66031 2.09224 5.09654 2.0574C5.53283 2.02256 6.02482 2.00832 6.57251 2.01468L7.89089 2.03365C9.22834 2.04637 10.4018 2.28712 11.4112 2.75591C12.4206 3.22477 13.2072 3.87099 13.7708 4.69459C14.3345 5.51818 14.6163 6.46851 14.6163 7.54557ZM18.7241 7.49809C18.7241 8.31532 18.592 9.06133 18.3277 9.7361C18.0634 10.4108 17.7179 10.9493 17.2912 11.3516C16.8645 11.7539 16.4059 11.955 15.9155 11.955C15.769 11.955 15.6225 11.955 15.4761 11.955C15.3296 11.955 15.1799 11.955 15.0271 11.955C15.3901 11.2898 15.6528 10.6008 15.8152 9.8881C15.9776 9.17538 16.0588 8.40404 16.0588 7.57409C16.0588 6.68075 15.9028 5.85398 15.5907 5.09377C15.2786 4.33349 14.8328 3.65875 14.2533 3.06955C14.4698 3.06955 14.6863 3.06955 14.9029 3.06955C15.1194 3.06955 15.3359 3.06955 15.5525 3.06955C16.1129 3.06955 16.6352 3.27229 17.1192 3.67776C17.6032 4.08323 17.9917 4.62014 18.2847 5.28849C18.5776 5.9569 18.7241 6.69343 18.7241 7.49809Z" fill="#538DD1"/>
</g>
<defs>
<clipPath id="clip0_1369_1087">
<rect width="20.1667" height="22" fill="white" transform="translate(20.1667 22) rotate(-180)"/>
</clipPath>
</defs>
</svg>
