<svg width="21" height="22" viewBox="0 0 21 22" fill="none" xmlns="http://www.w3.org/2000/svg">
<g clip-path="url(#clip0_1369_1081)">
<path d="M0 14.5019C0 15.3002 0.119414 16.0526 0.358243 16.759C0.597072 17.4654 0.92984 18.0894 1.35655 18.6311C1.78326 19.1728 2.27525 19.5973 2.83251 19.9046C3.38978 20.2118 3.98366 20.3654 4.61417 20.3654H7.77627C8.4004 20.6949 9.09143 20.953 9.84934 21.1399C10.6072 21.3269 11.4129 21.4203 12.2663 21.4203H13.5846C14.1832 21.4203 14.7326 21.4013 15.2325 21.3633C15.7325 21.3253 16.1512 21.2651 16.4888 21.1828C17.1511 21.018 17.6749 20.7219 18.0602 20.2942C18.4455 19.8665 18.6382 19.3613 18.6382 18.7784C18.6382 18.5503 18.5999 18.3223 18.5235 18.0942C18.8547 17.8535 19.1095 17.5604 19.2878 17.2151C19.4661 16.8698 19.5553 16.4976 19.5553 16.0985C19.5553 15.6931 19.482 15.3319 19.3356 15.0151C19.5585 14.7934 19.732 14.5257 19.8563 14.2121C19.9804 13.8985 20.0425 13.5675 20.0425 13.219C20.0425 12.9973 20.0155 12.774 19.9613 12.549C19.9072 12.3241 19.8292 12.1261 19.7272 11.9551C20.0202 11.5497 20.1667 11.0523 20.1667 10.4631C20.1667 9.99427 20.0536 9.5666 19.8276 9.18013C19.6015 8.79367 19.2974 8.48798 18.9152 8.26307C18.5331 8.03816 18.1064 7.92571 17.6351 7.92571H14.0145C13.8998 7.92571 13.8075 7.90037 13.7375 7.84969C13.6674 7.799 13.6323 7.72614 13.6323 7.63111C13.6323 7.37136 13.7151 7.03716 13.8808 6.62851C14.0464 6.21987 14.2358 5.77005 14.4491 5.27905C14.6625 4.78805 14.852 4.2828 15.0176 3.76329C15.1832 3.24378 15.266 2.74327 15.266 2.26177C15.266 1.82462 15.1704 1.43499 14.9793 1.09288C14.7883 0.750758 14.5287 0.483082 14.2008 0.289849C13.8728 0.0966165 13.4954 0 13.0687 0C12.5974 0 12.193 0.129878 11.8554 0.389634C11.5179 0.649389 11.1963 1.07387 10.8906 1.66306C10.5976 2.21425 10.2872 2.75911 9.95919 3.29763C9.63118 3.83614 9.27611 4.381 8.89399 4.93219C8.51186 5.48338 8.08834 6.06149 7.62341 6.66653C7.1585 7.27157 6.64263 7.91937 6.07581 8.60995H4.25115C3.66523 8.60995 3.11433 8.762 2.59846 9.0661C2.08258 9.37021 1.6304 9.79309 1.24191 10.3348C0.853414 10.8765 0.549306 11.5037 0.329584 12.2164C0.109861 12.9291 0 13.691 0 14.5019ZM5.55038 14.4544C5.55038 13.7702 5.6077 13.1525 5.72234 12.6013C5.83697 12.0501 6.02326 11.5163 6.2812 11C6.53913 10.4837 6.88464 9.93722 7.31771 9.3607C7.79537 8.72715 8.3192 8.04608 8.8892 7.3175C9.45921 6.58892 10.0308 5.80965 10.604 4.9797C11.1772 4.14975 11.7027 3.26278 12.1803 2.31879C12.3586 1.95767 12.5178 1.72009 12.658 1.60605C12.7981 1.49201 12.9541 1.43499 13.1261 1.43499C13.3362 1.43499 13.5049 1.50627 13.6323 1.64882C13.7597 1.79136 13.8234 1.99568 13.8234 2.26177C13.8234 2.64824 13.7407 3.07272 13.5751 3.53521C13.4094 3.9977 13.2199 4.47286 13.0066 4.9607C12.7933 5.44853 12.6038 5.92211 12.4382 6.38143C12.2726 6.84075 12.1898 7.25731 12.1898 7.63111C12.1898 8.16963 12.3872 8.59252 12.7821 8.89979C13.177 9.20706 13.6578 9.3607 14.2246 9.3607H17.6351C17.9472 9.3607 18.2067 9.46682 18.4137 9.67906C18.6207 9.89127 18.7241 10.1526 18.7241 10.4631C18.7241 10.8686 18.549 11.2392 18.1987 11.5749C18.116 11.6573 18.0698 11.7444 18.0602 11.8363C18.0507 11.9282 18.081 12.0184 18.151 12.1071C18.3102 12.3352 18.4248 12.5316 18.4949 12.6964C18.565 12.8611 18.6 13.0353 18.6 13.219C18.6 13.4471 18.5459 13.6577 18.4376 13.851C18.3293 14.0442 18.1669 14.2232 17.9504 14.388C17.8294 14.4766 17.7498 14.5812 17.7116 14.7015C17.6734 14.8219 17.6893 14.955 17.7593 15.1007C17.8803 15.3224 17.9694 15.5014 18.0268 15.6376C18.0841 15.7738 18.1127 15.9275 18.1127 16.0985C18.1127 16.5863 17.7752 17.0045 17.1002 17.3529C16.9919 17.4099 16.9234 17.4828 16.8947 17.5715C16.8661 17.6602 16.8741 17.7584 16.9186 17.8661C17.0396 18.1512 17.1161 18.3444 17.1479 18.4458C17.1797 18.5472 17.1956 18.658 17.1956 18.7784C17.1956 19.0128 17.1081 19.2172 16.933 19.3914C16.7578 19.5656 16.4951 19.697 16.1448 19.7857C15.8646 19.8555 15.5064 19.9078 15.0701 19.9426C14.6338 19.9774 14.1418 19.9917 13.5941 19.9853L12.2758 19.9663C10.9383 19.9536 9.76488 19.7129 8.75547 19.2441C7.74601 18.7752 6.95947 18.129 6.39584 17.3054C5.8322 16.4818 5.55038 15.5315 5.55038 14.4544ZM1.44253 14.5019C1.44253 13.6847 1.57468 12.9387 1.83898 12.2639C2.10329 11.5892 2.44879 11.0507 2.8755 10.6484C3.3022 10.2461 3.76076 10.045 4.25115 10.045C4.39763 10.045 4.54411 10.045 4.69059 10.045C4.83708 10.045 4.98674 10.045 5.1396 10.045C4.77658 10.7102 4.51387 11.3992 4.35146 12.1119C4.18906 12.8246 4.10786 13.596 4.10786 14.4259C4.10786 15.3192 4.26389 16.146 4.57595 16.9062C4.88803 17.6665 5.33384 18.3412 5.9134 18.9304C5.69686 18.9304 5.48032 18.9304 5.26379 18.9304C5.04725 18.9304 4.83071 18.9304 4.61417 18.9304C4.05372 18.9304 3.53148 18.7277 3.04745 18.3222C2.56343 17.9168 2.17494 17.3799 1.88197 16.7115C1.58901 16.0431 1.44253 15.3066 1.44253 14.5019Z" fill="#ED3A3A"/>
</g>
<defs>
<clipPath id="clip0_1369_1081">
<rect width="20.1667" height="22" fill="white"/>
</clipPath>
</defs>
</svg>
