<svg width="32" height="32" viewBox="0 0 32 32" fill="none" xmlns="http://www.w3.org/2000/svg">
<path d="M13.1614 6.68683C13.6178 6.26816 13.8459 6.05882 14.0849 5.93587C14.6592 5.64033 15.3408 5.64033 15.9151 5.93587C16.1541 6.05882 16.3822 6.26816 16.8386 6.68683V6.68683C17.0758 6.90446 17.1944 7.01327 17.3228 7.09895C17.6288 7.30307 17.9852 7.41886 18.3527 7.43358C18.507 7.43975 18.6669 7.42143 18.9867 7.3848V7.3848C19.602 7.31431 19.9096 7.27907 20.1752 7.32004C20.8135 7.41851 21.365 7.81919 21.6559 8.39585C21.7769 8.63577 21.8385 8.93924 21.9616 9.54618V9.54618C22.0256 9.86167 22.0576 10.0194 22.1111 10.1642C22.2387 10.5092 22.4589 10.8124 22.7476 11.0403C22.8688 11.136 23.0089 11.2151 23.2892 11.3735V11.3735C23.8284 11.6781 24.098 11.8304 24.2888 12.0197C24.7473 12.4745 24.958 13.1228 24.8544 13.7604C24.8112 14.0256 24.6827 14.3073 24.4255 14.8707V14.8707C24.2918 15.1635 24.225 15.3099 24.1832 15.4586C24.0836 15.8127 24.0836 16.1873 24.1832 16.5414C24.225 16.6901 24.2918 16.8365 24.4255 17.1293V17.1293C24.6827 17.6927 24.8113 17.9744 24.8544 18.2396C24.958 18.8772 24.7473 19.5255 24.2888 19.9803C24.098 20.1696 23.8284 20.3219 23.2892 20.6265V20.6265C23.0089 20.7849 22.8688 20.864 22.7476 20.9597C22.4589 21.1876 22.2387 21.4908 22.1111 21.8358C22.0576 21.9806 22.0256 22.1383 21.9616 22.4538V22.4538C21.8385 23.0608 21.7769 23.3642 21.6559 23.6041C21.365 24.1808 20.8135 24.5815 20.1752 24.68C19.9096 24.7209 19.602 24.6857 18.9867 24.6152V24.6152C18.6669 24.5786 18.507 24.5602 18.3527 24.5664C17.9852 24.5811 17.6288 24.6969 17.3228 24.9011C17.1944 24.9867 17.0758 25.0955 16.8386 25.3132V25.3132C16.3822 25.7318 16.1541 25.9412 15.9151 26.0641C15.3408 26.3597 14.6592 26.3597 14.0849 26.0641C13.8459 25.9412 13.6178 25.7318 13.1614 25.3132V25.3132C12.9242 25.0955 12.8056 24.9867 12.6772 24.9011C12.3712 24.6969 12.0148 24.5811 11.6473 24.5664C11.493 24.5602 11.3331 24.5786 11.0133 24.6152V24.6152C10.398 24.6857 10.0904 24.7209 9.82482 24.68C9.18648 24.5815 8.63499 24.1808 8.34408 23.6041C8.22305 23.3642 8.16151 23.0608 8.03841 22.4538V22.4538C7.97443 22.1383 7.94243 21.9806 7.88889 21.8358C7.76132 21.4908 7.54108 21.1876 7.25239 20.9597C7.13122 20.864 6.99108 20.7849 6.7108 20.6265V20.6265C6.17161 20.3219 5.90201 20.1696 5.71123 19.9803C5.25269 19.5255 5.04204 18.8772 5.14565 18.2396C5.18875 17.9744 5.31733 17.6927 5.5745 17.1293V17.1293C5.70817 16.8365 5.77501 16.6901 5.8168 16.5414C5.91638 16.1873 5.91638 15.8127 5.8168 15.4586C5.77501 15.3099 5.70817 15.1635 5.5745 14.8707V14.8707C5.31733 14.3073 5.18875 14.0256 5.14565 13.7604C5.04204 13.1228 5.25269 12.4745 5.71124 12.0197C5.90201 11.8304 6.17161 11.6781 6.7108 11.3735V11.3735C6.99108 11.2151 7.13122 11.136 7.25239 11.0403C7.54108 10.8124 7.76132 10.5092 7.88889 10.1642C7.94243 10.0194 7.97443 9.86167 8.03841 9.54618V9.54618C8.16151 8.93924 8.22305 8.63577 8.34408 8.39585C8.63499 7.81919 9.18648 7.41851 9.82482 7.32004C10.0904 7.27907 10.398 7.31431 11.0133 7.3848V7.3848C11.3331 7.42143 11.493 7.43975 11.6473 7.43358C12.0148 7.41886 12.3712 7.30307 12.6772 7.09895C12.8056 7.01327 12.9242 6.90446 13.1614 6.68683V6.68683Z" stroke="black" stroke-width="2"/>
<path d="M10.5 16L13.5 19L19 13.5" stroke="black" stroke-width="2" stroke-linecap="round" stroke-linejoin="round"/>
</svg>
