<svg width="32" height="32" viewBox="0 0 32 32" fill="none" xmlns="http://www.w3.org/2000/svg">
<rect x="7" y="8.5" width="18" height="15" rx="3" stroke="black" stroke-width="2"/>
<path d="M13 17.5358V14.4642C13 13.3335 13 12.7682 13.2366 12.4496C13.4429 12.1719 13.759 11.9967 14.1038 11.969C14.4994 11.9372 14.9788 12.2368 15.9376 12.836L18.3949 14.3718C19.2588 14.9117 19.6907 15.1817 19.8388 15.5273C19.9682 15.8292 19.9682 16.1708 19.8388 16.4727C19.6907 16.8183 19.2588 17.0883 18.3949 17.6282L15.9376 19.164L15.9376 19.164C14.9788 19.7632 14.4994 20.0628 14.1038 20.031C13.759 20.0033 13.4429 19.8281 13.2366 19.5504C13 19.2318 13 18.6665 13 17.5358Z" stroke="black" stroke-width="1.5" stroke-linecap="round" stroke-linejoin="round"/>
</svg>
