<svg width="32" height="32" viewBox="0 0 32 32" fill="none" xmlns="http://www.w3.org/2000/svg">
<path d="M16 11.5V17.5" stroke="black" stroke-width="2" stroke-linecap="round" stroke-linejoin="round"/>
<circle cx="16" cy="20.75" r="1.25" fill="black"/>
<path d="M7.74118 17.9853L11.7912 10.3915C13.143 7.85679 13.819 6.58941 14.7137 6.16478C15.5277 5.77841 16.4723 5.77841 17.2863 6.16478C18.181 6.58941 18.857 7.85679 20.2088 10.3915L24.2588 17.9853L24.2588 17.9853C25.4795 20.2741 26.0899 21.4186 25.9792 22.3531C25.8782 23.2048 25.4175 23.9726 24.7135 24.4625C23.941 25 22.644 25 20.05 25H11.95C9.35597 25 8.05895 25 7.28651 24.4625C6.58248 23.9726 6.12179 23.2048 6.02085 22.3531C5.9101 21.4186 6.52046 20.2741 7.74118 17.9853Z" stroke="black" stroke-width="2" stroke-linejoin="round"/>
</svg>
